<svg id="Capa_1" data-name="Capa 1" xmlns="http://www.w3.org/2000/svg" xmlns:xlink="http://www.w3.org/1999/xlink" viewBox="0 0 512 512"><defs><style>.cls-1{fill:#9ADFFF;}.cls-2{fill:url(#linear-gradient);}.cls-3{fill:url(#linear-gradient-2);}</style><linearGradient id="linear-gradient" x1="257" y1="447.98" x2="257" y2="66.03" gradientUnits="userSpaceOnUse"><stop offset="0" stop-color="#fff"/><stop offset="0.15" stop-color="#fcfeff"/><stop offset="0.28" stop-color="#f1fbfe"/><stop offset="0.4" stop-color="#dff5fd"/><stop offset="0.51" stop-color="#c6edfb"/><stop offset="0.63" stop-color="#a5e2f9"/><stop offset="0.74" stop-color="#7dd6f7"/><stop offset="0.85" stop-color="#4ec7f4"/><stop offset="0.96" stop-color="#18b6f1"/><stop offset="1" stop-color="#00aeef"/></linearGradient><linearGradient id="linear-gradient-2" x1="342.03" y1="264.44" x2="342.03" y2="249.51" xlink:href="#linear-gradient"/></defs><circle class="cls-1" cx="256" cy="256" r="256"/><path class="cls-2" d="M414.78,229.25a7.46,7.46,0,1,0,0-14.92H386.52V194h28.26a7.46,7.46,0,1,0,0-14.92H386.52V166.89a7.44,7.44,0,0,0-2.18-5.27L362.77,140a7.47,7.47,0,0,0-5.28-2.19H345.28V109.61a7.46,7.46,0,1,0-14.92,0v28.23H310.05V109.61a7.46,7.46,0,0,0-14.92,0v28.23H274.84V111.11a45.09,45.09,0,0,0-88.49-12.24A67.3,67.3,0,0,0,126,165.81a67.53,67.53,0,0,0,5.1,25.72,74.19,74.19,0,0,0,0,131,67.32,67.32,0,0,0,14.33,73,66.76,66.76,0,0,0,40.95,19.65,45.09,45.09,0,0,0,88.49-12.21V376.15h20.29V404.4a7.46,7.46,0,0,0,14.92,0V376.15h20.31V404.4a7.46,7.46,0,0,0,14.92,0V376.15h12.21a7.47,7.47,0,0,0,5.28-2.19l21.57-21.57a7.46,7.46,0,0,0,2.18-5.27V334.89h28.26a7.46,7.46,0,1,0,0-14.92H386.52V299.68h28.26a7.46,7.46,0,0,0,0-14.92H386.52V264.45h28.26a7.46,7.46,0,1,0,0-14.92H386.52V229.25Zm-185,203.81a30.29,30.29,0,0,1-27.85-18.6,66.24,66.24,0,0,0,35.55-18.82,7.46,7.46,0,1,0-10.66-10.44,51.21,51.21,0,0,1-34.41,15.33,52.38,52.38,0,0,1-44.8-78A7.45,7.45,0,0,0,143.86,312a59.25,59.25,0,0,1,0-110q6.66-3.59,3.73-10.57a52.4,52.4,0,0,1,44.8-78,51.16,51.16,0,0,1,34.4,15.33,7.46,7.46,0,1,0,10.68-10.41,65.63,65.63,0,0,0-19.73-13.89,67,67,0,0,0-15.83-5,30.17,30.17,0,0,1,58,11.58v91.46H236.69L216.9,182.78a26.51,26.51,0,1,0-23.24,13.76,26.58,26.58,0,0,0,12.68-3.22l22,22a8,8,0,0,0,5.27,2.19h26.32v32H213.17a26.47,26.47,0,1,0,0,14.92h46.75V296.5H233.6l-.53,0a7.45,7.45,0,0,0-4.75,2.16l-22,22A26.51,26.51,0,0,0,175,325.2a26.46,26.46,0,1,0,42,6l19.79-19.81h23.22V402.9a30.18,30.18,0,0,1-30.16,30.16Zm-24.54-263a11.55,11.55,0,1,1-3.38-8.16A11.47,11.47,0,0,1,205.21,170.09ZM199.33,257a11.55,11.55,0,1,1-11.56-11.53A11.57,11.57,0,0,1,199.33,257Zm5.88,86.93a11.4,11.4,0,0,1-3.38,8.13,11.56,11.56,0,0,1-16.34,0,11.53,11.53,0,0,1,0-16.3,11.56,11.56,0,0,1,16.33,0h0a11.51,11.51,0,0,1,3.38,8.17ZM371.6,344l-17.2,17.2H274.84V339.12H342a7.46,7.46,0,0,0,7.46-7.46V290.47a7.46,7.46,0,0,0-14.92,0V324.2H274.84V189.81h59.73v33.65a7.46,7.46,0,1,0,14.92,0V182.35a7.46,7.46,0,0,0-7.46-7.46H274.84V152.76H354.4L371.6,170Z" transform="translate(-1 -1)"/><path class="cls-3" d="M342,249.51a7.46,7.46,0,0,0-7.46,7.46v0a7.46,7.46,0,1,0,7.46-7.48Z" transform="translate(-1 -1)"/></svg>