<svg id="Capa_1" data-name="Capa 1" xmlns="http://www.w3.org/2000/svg" xmlns:xlink="http://www.w3.org/1999/xlink" viewBox="0 0 888.41 541.11"><defs><style>.cls-1{fill:#F21B3F;}.cls-2{fill:url(#linear-gradient);}.cls-3{fill:url(#linear-gradient-2);}.cls-4{fill:url(#linear-gradient-3);}</style><linearGradient id="linear-gradient" x1="-210.68" y1="353.84" x2="-210.68" y2="-28.11" gradientUnits="userSpaceOnUse"><stop offset="0" stop-color="#fff"/><stop offset="0.15" stop-color="#fcfeff"/><stop offset="0.28" stop-color="#f1fbfe"/><stop offset="0.4" stop-color="#dff5fd"/><stop offset="0.51" stop-color="#c6edfb"/><stop offset="0.63" stop-color="#a5e2f9"/><stop offset="0.74" stop-color="#7dd6f7"/><stop offset="0.85" stop-color="#4ec7f4"/><stop offset="0.96" stop-color="#18b6f1"/><stop offset="1" stop-color="#00aeef"/></linearGradient><linearGradient id="linear-gradient-2" x1="-125.65" y1="170.31" x2="-125.65" y2="155.38" xlink:href="#linear-gradient"/><linearGradient id="linear-gradient-3" x1="76.63" y1="374.54" x2="76.63" y2="450.95" gradientTransform="matrix(4, 0, 0, -4, -50, 1908)" xlink:href="#linear-gradient"/></defs><circle class="cls-1" cx="632.41" cy="285.11" r="256"/><path class="cls-2" d="M-52.9,135.11a7.46,7.46,0,0,0,7.46-7.46,7.46,7.46,0,0,0-7.46-7.46H-81.16V99.88H-52.9a7.46,7.46,0,0,0,7.46-7.46A7.46,7.46,0,0,0-52.9,85H-81.16V72.75a7.46,7.46,0,0,0-2.18-5.27l-21.57-21.59a7.46,7.46,0,0,0-5.28-2.18H-122.4V15.47A7.46,7.46,0,0,0-129.86,8a7.46,7.46,0,0,0-7.46,7.46V43.71h-20.31V15.47A7.46,7.46,0,0,0-165.09,8a7.46,7.46,0,0,0-7.46,7.46V43.71h-20.29V17a45.14,45.14,0,0,0-45.09-45.08,45.27,45.27,0,0,0-43.4,32.85,66.76,66.76,0,0,0-40.95,19.65A66.91,66.91,0,0,0-341.7,71.68a67.53,67.53,0,0,0,5.1,25.72,74,74,0,0,0-26.27,23.45,73.76,73.76,0,0,0-13,42,73.79,73.79,0,0,0,39.3,65.48,67.49,67.49,0,0,0-5.08,25.7,66.86,66.86,0,0,0,19.41,47.28A66.78,66.78,0,0,0-281.33,321a45.28,45.28,0,0,0,43.41,32.86,45.13,45.13,0,0,0,45.08-45.08V282h20.29v28.25a7.46,7.46,0,0,0,7.46,7.46,7.46,7.46,0,0,0,7.46-7.46V282h20.31v28.25a7.46,7.46,0,0,0,7.46,7.46,7.46,7.46,0,0,0,7.46-7.46V282h12.21a7.47,7.47,0,0,0,5.28-2.19l21.57-21.56A7.46,7.46,0,0,0-81.16,253V240.75H-52.9a7.46,7.46,0,0,0,7.46-7.46,7.46,7.46,0,0,0-7.46-7.46H-81.16V205.55H-52.9a7.46,7.46,0,0,0,7.46-7.46,7.46,7.46,0,0,0-7.46-7.46H-81.16V170.32H-52.9a7.46,7.46,0,0,0,7.46-7.46,7.46,7.46,0,0,0-7.46-7.46H-81.16V135.11Zm-185,203.81a30.29,30.29,0,0,1-27.86-18.6,65.68,65.68,0,0,0,15.85-5,66,66,0,0,0,19.7-13.84,7.45,7.45,0,0,0-.11-10.55,7.45,7.45,0,0,0-10.55.11,51.21,51.21,0,0,1-15.27,10.72,50.53,50.53,0,0,1-19.14,4.6A52.54,52.54,0,0,1-326.77,254a52.28,52.28,0,0,1,6.67-25.61,7.44,7.44,0,0,0,.54-6.13,7.49,7.49,0,0,0-4.26-4.45,59,59,0,0,1-37.17-55,58.93,58.93,0,0,1,37.17-55q6.65-3.6,3.73-10.58a52.48,52.48,0,0,1-6.68-25.63A52.55,52.55,0,0,1-275.3,19.32a51.08,51.08,0,0,1,19.14,4.6A50.85,50.85,0,0,1-240.9,34.66a7.43,7.43,0,0,0,5.34,2.25,7.46,7.46,0,0,0,5.21-2.12,7.46,7.46,0,0,0,.13-10.55,65.63,65.63,0,0,0-19.73-13.89A66.49,66.49,0,0,0-265.78,5.4a30.3,30.3,0,0,1,27.86-18.59A30.19,30.19,0,0,1-207.76,17v91.46H-231l-19.79-19.79A26.26,26.26,0,0,0-247.55,76a26.3,26.3,0,0,0-7.75-18.72,26.51,26.51,0,0,0-37.43,0A26.3,26.3,0,0,0-300.48,76a26.28,26.28,0,0,0,7.75,18.71A26.39,26.39,0,0,0-274,102.41a26.45,26.45,0,0,0,12.68-3.23l22,22a7.94,7.94,0,0,0,5.27,2.18h26.32V155.4h-46.75a26.5,26.5,0,0,0-25.39-19,26.48,26.48,0,0,0-26.46,26.45,26.5,26.5,0,0,0,26.46,26.47,26.52,26.52,0,0,0,25.39-19h46.75v32h-26.32a4.22,4.22,0,0,0-.53,0,7.35,7.35,0,0,0-4.74,2.16l-22,22a26.52,26.52,0,0,0-31.39,4.51,26.3,26.3,0,0,0-7.75,18.73,26.22,26.22,0,0,0,7.75,18.68A26.39,26.39,0,0,0-274,276.21a26.38,26.38,0,0,0,18.7-7.73,26.22,26.22,0,0,0,7.76-18.69,26.34,26.34,0,0,0-3.23-12.7L-231,217.28h23.23v91.48a30.2,30.2,0,0,1-30.17,30.16ZM-262.47,76a11.47,11.47,0,0,1-3.38,8.16,11.56,11.56,0,0,1-16.33,0A11.47,11.47,0,0,1-285.56,76a11.47,11.47,0,0,1,3.38-8.16,11.56,11.56,0,0,1,16.33,0A11.47,11.47,0,0,1-262.47,76Zm-5.88,86.9a11.56,11.56,0,0,1-11.55,11.55,11.56,11.56,0,0,1-11.54-11.55,11.55,11.55,0,0,1,11.54-11.53A11.55,11.55,0,0,1-268.35,162.86Zm5.88,86.92a11.42,11.42,0,0,1-3.38,8.14,11.57,11.57,0,0,1-16.34,0,11.41,11.41,0,0,1-3.37-8.13,11.51,11.51,0,0,1,3.38-8.17,11.56,11.56,0,0,1,16.33,0h0a11.47,11.47,0,0,1,3.38,8.16Zm166.39.11-17.2,17.2h-79.56V245h67.19a7.46,7.46,0,0,0,7.46-7.46V196.33a7.46,7.46,0,0,0-7.46-7.46,7.46,7.46,0,0,0-7.46,7.46v33.73h-59.73V95.67h59.73v33.65a7.46,7.46,0,0,0,7.46,7.46,7.46,7.46,0,0,0,7.46-7.46V88.21a7.46,7.46,0,0,0-7.46-7.46h-67.19V58.63h79.56l17.2,17.21Z" transform="translate(375.91 28.11)"/><path class="cls-3" d="M-125.65,155.38a7.46,7.46,0,0,0-7.46,7.46v0a7.45,7.45,0,0,0,7.46,7.45,7.47,7.47,0,0,0,7.46-7.47,7.46,7.46,0,0,0-7.46-7.46Z" transform="translate(375.91 28.11)"/><g id="Layer_2" data-name="Layer 2"><path class="cls-4" d="M435.57,133.67a5,5,0,0,0-5,5V351a34.67,34.67,0,0,0-24.45-10.17H381.64V114.25h24.45a5,5,0,0,0,0-10.07H376.6a5,5,0,0,0-5,5v57.54H252.84c0-1.06.1-2.11.1-3.17a59.4,59.4,0,0,0-118.79,0c0,1.07,0,2.12.11,3.17H77.43a5,5,0,0,0-5,5v233a5,5,0,0,0,5,5H406.09a34.56,34.56,0,0,0,34.52-34.52V138.7A5,5,0,0,0,435.57,133.67Zm-92.7,125.17L358.05,274l-9.23,9.22a5.07,5.07,0,0,0-1.47,3.56v14l-6.62,6.62a5.08,5.08,0,0,0-1.48,3.56v8.12l-12.51,12.51-8.68-8.69V301.43a5,5,0,0,0-1.47-3.56l-18.5-18.51a5.07,5.07,0,0,0-3.56-1.47H280.89l-9.38-9.38V255.23l16.06-16.06,10-3.94,6.17,6.17a5,5,0,0,0,3.56,1.48H329a5.14,5.14,0,0,0,1.78-.32l22.62-8.51a5,5,0,0,0,3.27-4.71v-15.4a5,5,0,0,0-1.48-3.56l-4.8-4.8h21.19v42.61l-2.33-2.33a5,5,0,0,0-5-1.26L345,250.46a5,5,0,0,0-2.09,8.38Zm28.7-82v18.69h-128a59.39,59.39,0,0,0,7.83-18.69Zm-178-62.57a49.31,49.31,0,0,1,23.89,92.46,5.07,5.07,0,0,0-2.41,3.08,236.51,236.51,0,0,1-21.48,49.43,270.65,270.65,0,0,1-17.21-36.35c-1.61-4.29-3.07-8.65-4.27-13.08a5,5,0,0,0-2.42-3.08,49.32,49.32,0,0,1,23.9-92.46ZM178.3,287.61a5,5,0,0,0-3.78-1.73h-2.43l-6.92-11.54,2.32-13.5a5,5,0,0,0-2.3-5.12L142,241.2a5.14,5.14,0,0,0-2.91-.75l-11.4.54-4.38-12.28a4.88,4.88,0,0,0-1.18-1.87L111.23,216V205.58h40.38a60.12,60.12,0,0,0,11.3,8.85c.62,2.14,1.3,4.27,2,6.38l-12.14,1.58a5,5,0,0,0-4.37,5.63,5.15,5.15,0,0,0,.34,1.28l2.64,6.47a5,5,0,0,0,1.91,2.3l16.54,10.79a5.09,5.09,0,0,0,3.82.7l3-.66c4.83,9.8,9.27,17.44,11.36,20.91,1.15,1.9,2.22,3.83,4.6,4.29a5.19,5.19,0,0,0,5.39-2.66c.68-1.1,2.83-4.63,5.7-9.83l16.09-2.44,11.73,15-.18,20.89-26.28,3.08a5,5,0,0,0-3.37,1.89l-14.15,18a5.13,5.13,0,0,0-1,2.3l-3.92,23.83h-2.08l-4.09-29.5,3-23.06a5,5,0,0,0-1.21-4ZM171.64,238l-10.1-6.59,7-.9C169.5,233.07,170.56,235.56,171.64,238ZM406.09,399.76H82.46V176.82h53.22a59.39,59.39,0,0,0,7.83,18.69H106.2a5,5,0,0,0-5,5V376a5,5,0,0,0,5,5H214.07a5,5,0,0,0,0-10.07H111.23V230.2l3,3,5.25,14.75a5.13,5.13,0,0,0,5,3.35l13.55-.66,19,11.88-2.07,12a5,5,0,0,0,.65,3.45l9.35,15.58a5,5,0,0,0,3.85,2.43L166.41,314a5.08,5.08,0,0,0,0,1.35l4.79,34.52a5,5,0,0,0,5,4.34h10.72a5,5,0,0,0,5-4.22l4.41-26.77,12.06-15.3L237,304.57a5,5,0,0,0,4.45-4.95l.23-27.1a5,5,0,0,0-1.07-3.15L226,250.67a5,5,0,0,0-4.72-1.87l-11.67,1.77a220.05,220.05,0,0,0,14.61-36.14,59.38,59.38,0,0,0,11.29-8.86H336.16L346.6,216v9.82l-18.51,7h-18.7l-7-7a5,5,0,0,0-5.41-1.12l-14,5.53a5,5,0,0,0-1.73,1.12L262.9,249.58a5,5,0,0,0-1.47,3.56v17.44a5.07,5.07,0,0,0,1.47,3.56l12.34,12.33A5.08,5.08,0,0,0,278.8,288h13.66L308,303.51V325a5,5,0,0,0,1.48,3.55l13.72,13.72a5,5,0,0,0,7.11,0h0l17.54-17.55a5,5,0,0,0,1.48-3.56v-8.11l6.62-6.62a5,5,0,0,0,1.47-3.56v-14l11.31-11.32a5,5,0,0,0,0-7.11h0l-12.81-12.8,8.34-2.54.38.38a23.84,23.84,0,0,0,6.93,4.78v85.55a5,5,0,0,0,5,5h25.17V371H315.83a5,5,0,0,0,0,10.07h91a5,5,0,0,0,5-5V351.57a24.45,24.45,0,0,1-5.75,48.19ZM193.55,191.61a28,28,0,1,0-28-28h0A28.06,28.06,0,0,0,193.55,191.61Zm0-46a18,18,0,1,1-18,18h0a18,18,0,0,1,18-18ZM277.72,376a5,5,0,0,1-5,5H257.22a5,5,0,0,1,0-10.07h15.46a5,5,0,0,1,5,5Z" transform="translate(375.91 28.11)"/></g></svg>