<svg id="Capa_1" data-name="Capa 1" xmlns="http://www.w3.org/2000/svg" xmlns:xlink="http://www.w3.org/1999/xlink" viewBox="0 0 907.49 724.08"><defs><style>.cls-1{fill:#F21B3F;}.cls-2{fill:url(#linear-gradient);}.cls-3{fill:url(#linear-gradient-2);}.cls-4{fill:url(#linear-gradient-3);}.cls-5{fill:url(#linear-gradient-4);}</style><linearGradient id="linear-gradient" x1="-210.68" y1="353.84" x2="-210.68" y2="-28.11" gradientUnits="userSpaceOnUse"><stop offset="0" stop-color="#fff"/><stop offset="0.15" stop-color="#fcfeff"/><stop offset="0.28" stop-color="#f1fbfe"/><stop offset="0.4" stop-color="#dff5fd"/><stop offset="0.51" stop-color="#c6edfb"/><stop offset="0.63" stop-color="#a5e2f9"/><stop offset="0.74" stop-color="#7dd6f7"/><stop offset="0.85" stop-color="#4ec7f4"/><stop offset="0.96" stop-color="#18b6f1"/><stop offset="1" stop-color="#00aeef"/></linearGradient><linearGradient id="linear-gradient-2" x1="-125.65" y1="170.31" x2="-125.65" y2="155.38" xlink:href="#linear-gradient"/><linearGradient id="linear-gradient-3" x1="-40.17" y1="303.01" x2="-40.17" y2="379.42" gradientTransform="matrix(4, 0, 0, -4, -50, 1908)" xlink:href="#linear-gradient"/><linearGradient id="linear-gradient-4" x1="38.34" y1="441.17" x2="38.34" y2="483.58" gradientTransform="matrix(8, 0, 0, -8, -50, 3956)" xlink:href="#linear-gradient"/></defs><circle class="cls-1" cx="651.49" cy="285.11" r="256"/><path class="cls-2" d="M-52.9,135.11a7.46,7.46,0,0,0,7.46-7.46,7.46,7.46,0,0,0-7.46-7.46H-81.16V99.88H-52.9a7.46,7.46,0,0,0,7.46-7.46A7.46,7.46,0,0,0-52.9,85H-81.16V72.75a7.46,7.46,0,0,0-2.18-5.27l-21.57-21.59a7.46,7.46,0,0,0-5.28-2.18H-122.4V15.47A7.46,7.46,0,0,0-129.86,8a7.46,7.46,0,0,0-7.46,7.46V43.71h-20.31V15.47A7.46,7.46,0,0,0-165.09,8a7.46,7.46,0,0,0-7.46,7.46V43.71h-20.29V17a45.14,45.14,0,0,0-45.09-45.08,45.27,45.27,0,0,0-43.4,32.85,66.76,66.76,0,0,0-40.95,19.65A66.91,66.91,0,0,0-341.7,71.68a67.53,67.53,0,0,0,5.1,25.72,74,74,0,0,0-26.27,23.45,73.76,73.76,0,0,0-13,42,73.79,73.79,0,0,0,39.3,65.48,67.49,67.49,0,0,0-5.08,25.7,66.86,66.86,0,0,0,19.41,47.28A66.78,66.78,0,0,0-281.33,321a45.28,45.28,0,0,0,43.41,32.86,45.13,45.13,0,0,0,45.08-45.08V282h20.29v28.25a7.46,7.46,0,0,0,7.46,7.46,7.46,7.46,0,0,0,7.46-7.46V282h20.31v28.25a7.46,7.46,0,0,0,7.46,7.46,7.46,7.46,0,0,0,7.46-7.46V282h12.21a7.47,7.47,0,0,0,5.28-2.19l21.57-21.56A7.46,7.46,0,0,0-81.16,253V240.75H-52.9a7.46,7.46,0,0,0,7.46-7.46,7.46,7.46,0,0,0-7.46-7.46H-81.16V205.55H-52.9a7.46,7.46,0,0,0,7.46-7.46,7.46,7.46,0,0,0-7.46-7.46H-81.16V170.32H-52.9a7.46,7.46,0,0,0,7.46-7.46,7.46,7.46,0,0,0-7.46-7.46H-81.16V135.11Zm-185,203.81a30.29,30.29,0,0,1-27.86-18.6,65.68,65.68,0,0,0,15.85-5,66,66,0,0,0,19.7-13.84,7.45,7.45,0,0,0-.11-10.55,7.45,7.45,0,0,0-10.55.11,51.21,51.21,0,0,1-15.27,10.72,50.53,50.53,0,0,1-19.14,4.6A52.54,52.54,0,0,1-326.77,254a52.28,52.28,0,0,1,6.67-25.61,7.44,7.44,0,0,0,.54-6.13,7.49,7.49,0,0,0-4.26-4.45,59,59,0,0,1-37.17-55,58.93,58.93,0,0,1,37.17-55q6.65-3.6,3.73-10.58a52.48,52.48,0,0,1-6.68-25.63A52.55,52.55,0,0,1-275.3,19.32a51.08,51.08,0,0,1,19.14,4.6A50.85,50.85,0,0,1-240.9,34.66a7.43,7.43,0,0,0,5.34,2.25,7.46,7.46,0,0,0,5.21-2.12,7.46,7.46,0,0,0,.13-10.55,65.63,65.63,0,0,0-19.73-13.89A66.49,66.49,0,0,0-265.78,5.4a30.3,30.3,0,0,1,27.86-18.59A30.19,30.19,0,0,1-207.76,17v91.46H-231l-19.79-19.79A26.26,26.26,0,0,0-247.55,76a26.3,26.3,0,0,0-7.75-18.72,26.51,26.51,0,0,0-37.43,0A26.3,26.3,0,0,0-300.48,76a26.28,26.28,0,0,0,7.75,18.71A26.39,26.39,0,0,0-274,102.41a26.45,26.45,0,0,0,12.68-3.23l22,22a7.94,7.94,0,0,0,5.27,2.18h26.32V155.4h-46.75a26.5,26.5,0,0,0-25.39-19,26.48,26.48,0,0,0-26.46,26.45,26.5,26.5,0,0,0,26.46,26.47,26.52,26.52,0,0,0,25.39-19h46.75v32h-26.32a4.22,4.22,0,0,0-.53,0,7.35,7.35,0,0,0-4.74,2.16l-22,22a26.52,26.52,0,0,0-31.39,4.51,26.3,26.3,0,0,0-7.75,18.73,26.22,26.22,0,0,0,7.75,18.68A26.39,26.39,0,0,0-274,276.21a26.38,26.38,0,0,0,18.7-7.73,26.22,26.22,0,0,0,7.76-18.69,26.34,26.34,0,0,0-3.23-12.7L-231,217.28h23.23v91.48a30.2,30.2,0,0,1-30.17,30.16ZM-262.47,76a11.47,11.47,0,0,1-3.38,8.16,11.56,11.56,0,0,1-16.33,0A11.47,11.47,0,0,1-285.56,76a11.47,11.47,0,0,1,3.38-8.16,11.56,11.56,0,0,1,16.33,0A11.47,11.47,0,0,1-262.47,76Zm-5.88,86.9a11.56,11.56,0,0,1-11.55,11.55,11.56,11.56,0,0,1-11.54-11.55,11.55,11.55,0,0,1,11.54-11.53A11.55,11.55,0,0,1-268.35,162.86Zm5.88,86.92a11.42,11.42,0,0,1-3.38,8.14,11.57,11.57,0,0,1-16.34,0,11.41,11.41,0,0,1-3.37-8.13,11.51,11.51,0,0,1,3.38-8.17,11.56,11.56,0,0,1,16.33,0h0a11.47,11.47,0,0,1,3.38,8.16Zm166.39.11-17.2,17.2h-79.56V245h67.19a7.46,7.46,0,0,0,7.46-7.46V196.33a7.46,7.46,0,0,0-7.46-7.46,7.46,7.46,0,0,0-7.46,7.46v33.73h-59.73V95.67h59.73v33.65a7.46,7.46,0,0,0,7.46,7.46,7.46,7.46,0,0,0,7.46-7.46V88.21a7.46,7.46,0,0,0-7.46-7.46h-67.19V58.63h79.56l17.2,17.21Z" transform="translate(394.78 28.11)"/><path class="cls-3" d="M-125.65,155.38a7.46,7.46,0,0,0-7.46,7.46v0a7.45,7.45,0,0,0,7.46,7.45,7.47,7.47,0,0,0,7.46-7.47,7.46,7.46,0,0,0-7.46-7.46Z" transform="translate(394.78 28.11)"/><g id="Layer_2" data-name="Layer 2"><path class="cls-4" d="M-31.6,419.82a5,5,0,0,0-5,5V637.11a34.66,34.66,0,0,0-24.45-10.17H-85.54V400.4h24.45a5,5,0,0,0,5-5,5,5,0,0,0-5-5H-90.57a5,5,0,0,0-5,5V452.9H-214.34c.06-1.06.1-2.11.1-3.17a59.39,59.39,0,0,0-59.39-59.39A59.39,59.39,0,0,0-333,449.73c0,1.07,0,2.12.1,3.17h-56.83a5,5,0,0,0-5,5v233a5,5,0,0,0,5,5H-61.09a34.56,34.56,0,0,0,34.52-34.52V424.85A5,5,0,0,0-31.6,419.82ZM-124.31,545l15.18,15.18-9.22,9.22a5,5,0,0,0-1.48,3.56v14l-6.62,6.62a5,5,0,0,0-1.47,3.56v8.12l-12.51,12.51-8.68-8.69V587.57a5.08,5.08,0,0,0-1.48-3.55l-18.5-18.51a5,5,0,0,0-3.56-1.47h-13.64l-9.38-9.38V541.38l16.06-16.06,10-3.94,6.18,6.17a5,5,0,0,0,3.56,1.48h21.7a5.13,5.13,0,0,0,1.77-.32l22.63-8.51a5,5,0,0,0,3.26-4.71v-15.4a5,5,0,0,0-1.48-3.56l-4.79-4.8h21.18v42.61L-97.94,532a5,5,0,0,0-5-1.26l-19.25,5.86a5,5,0,0,0-3.35,6.28,5,5,0,0,0,1.26,2.1Zm28.7-82v18.69h-128A59.39,59.39,0,0,0-215.77,463Zm-178-62.57a49.31,49.31,0,0,1,49.33,49.3,49.3,49.3,0,0,1-25.43,43.16,5,5,0,0,0-2.42,3.08,236.51,236.51,0,0,1-21.48,49.43A270.65,270.65,0,0,1-290.84,509c-1.6-4.29-3.06-8.65-4.27-13.08a5,5,0,0,0-2.42-3.08,49.33,49.33,0,0,1-19.25-67A49.32,49.32,0,0,1-273.63,400.4Zm-15.24,173.36a5,5,0,0,0-3.79-1.73h-2.42L-302,560.49l2.32-13.5a5.05,5.05,0,0,0-2.3-5.12l-23.23-14.52a5.12,5.12,0,0,0-2.91-.76l-11.4.55-4.37-12.28a4.91,4.91,0,0,0-1.19-1.87l-10.87-10.88V491.73h40.38a60.44,60.44,0,0,0,11.3,8.85c.62,2.14,1.3,4.27,2,6.38l-12.14,1.58a5,5,0,0,0-4.36,5.63,4.57,4.57,0,0,0,.33,1.27l2.64,6.48a5.11,5.11,0,0,0,1.91,2.3L-297.33,535a5.11,5.11,0,0,0,3.83.7l3-.66c4.83,9.8,9.28,17.44,11.36,20.91,1.15,1.9,2.22,3.83,4.6,4.29a5.21,5.21,0,0,0,5.39-2.66c.69-1.1,2.83-4.63,5.71-9.83l16.09-2.44,11.72,15-.18,20.89-26.28,3.08a5,5,0,0,0-3.37,1.89l-14.14,18a4.92,4.92,0,0,0-1,2.3l-3.93,23.83h-2.07l-4.1-29.5,3-23.06a5,5,0,0,0-1.21-4Zm-6.67-49.59-10.09-6.59,6.95-.9C-297.68,519.22-296.62,521.71-295.54,524.17ZM-61.09,685.91H-384.71V463h53.21a59.39,59.39,0,0,0,7.83,18.69H-361a5,5,0,0,0-5,5V662.18a5,5,0,0,0,5,5h107.87a5,5,0,0,0,5-5,5,5,0,0,0-5-5H-355.95V516.35l2.95,2.95,5.25,14.75a5.13,5.13,0,0,0,5,3.35l13.56-.66,19,11.88-2.07,12a5.08,5.08,0,0,0,.65,3.45l9.35,15.58a5,5,0,0,0,3.85,2.43l-2.37,18.06a5.09,5.09,0,0,0,0,1.35L-296,636a5,5,0,0,0,5,4.34h10.73a5,5,0,0,0,5-4.22l4.41-26.77,12.05-15.3,28.62-3.35a5,5,0,0,0,4.45-5l.24-27.1a5.06,5.06,0,0,0-1.07-3.15l-14.62-18.7a5,5,0,0,0-4.73-1.87l-11.66,1.76A220.47,220.47,0,0,0-243,500.58a60,60,0,0,0,11.29-8.86H-131l10.44,10.44V512l-18.51,7h-18.7l-7-7a5,5,0,0,0-5.41-1.12l-14,5.53a5,5,0,0,0-1.73,1.12l-18.28,18.29a5,5,0,0,0-1.48,3.56v17.44a5,5,0,0,0,1.48,3.56l12.33,12.33a5,5,0,0,0,3.56,1.47h13.66l15.54,15.57v21.51a5,5,0,0,0,1.47,3.56L-144,628.45a5,5,0,0,0,7.11,0h0l17.55-17.55a5,5,0,0,0,1.47-3.56v-8.11l6.62-6.62a5,5,0,0,0,1.47-3.56V575l11.32-11.32a5,5,0,0,0,0-7.11h0l-12.82-12.8,8.35-2.54.37.38a24,24,0,0,0,6.93,4.78V632a5,5,0,0,0,5,5H-65.4v20.14h-85.94a5,5,0,0,0-5,5,5,5,0,0,0,5,5h91a5,5,0,0,0,5-5V637.72a24.45,24.45,0,0,1,17.87,29.6,24.45,24.45,0,0,1-23.63,18.59ZM-273.63,477.75a28,28,0,0,0,28-28,28,28,0,0,0-28-28,28,28,0,0,0-28,28h0A28.06,28.06,0,0,0-273.63,477.75Zm0-46a17.94,17.94,0,0,1,18,18,18,18,0,0,1-18,18,18,18,0,0,1-18-18h0a18,18,0,0,1,18-18Zm84.17,230.42a5,5,0,0,1-5,5H-210a5,5,0,0,1-5-5,5,5,0,0,1,5-5h15.47a5,5,0,0,1,5,5Z" transform="translate(394.78 28.11)"/></g><path class="cls-5" d="M391.19,229.06,378,226.42a10.91,10.91,0,0,1-8.58-8.58L367,205.71a38.52,38.52,0,0,0,11.88-14.38h3.75a21.92,21.92,0,0,0,21.89-21.89,21.6,21.6,0,0,0-4.46-13.1l2-6a47.85,47.85,0,0,0-45.4-63H342.12a42.21,42.21,0,0,0-34,17.08l-4,1a26.28,26.28,0,0,0-8.46,3.81H98V251.53h53.19L143,284.37H87v10.95H426.39V272a43.9,43.9,0,0,0-35.2-42.93ZM230.54,251.53l8.21,32.84H181.62l8.21-32.84Zm11.29,0h25.5A43.56,43.56,0,0,0,262.19,272v12.38H250ZM273.13,272a32.92,32.92,0,0,1,26.4-32.2l4.62-.93,20.69,45.51H273.13ZM324,231.09l10.19,5.09-14.1,11.28-5-11a21.74,21.74,0,0,0,8.9-5.4Zm21.81,20.44h-3.05l-2.16-6.46,3.69-2.95,3.68,2.95Zm-12.62,5.92-2.3,13.78-6.13-13.49,6.73-5.38Zm10.26,5h1.67l3.65,21.89h-9Zm11.93-5,1.7-5.09,6.73,5.38-6.13,13.49Zm18.09-21-5,11-14.1-11.28,10.19-5.09a21.74,21.74,0,0,0,8.9,5.4ZM358.66,220c.11.54.3,1.06.45,1.59L344.29,229l-14.83-7.41c.15-.53.33-1.05.44-1.6l1.79-8.93a37.56,37.56,0,0,0,25.19,0Zm13-45.08a27.37,27.37,0,1,1-54.73,0V153.68a16.4,16.4,0,0,1,12.36-15.91,16.43,16.43,0,0,0,15,9.77h21.89a5.48,5.48,0,0,1,5.47,5.47Zm11,5.48h-.44a38.21,38.21,0,0,0,.44-5.48V158.48a10.95,10.95,0,0,1,0,21.9ZM306.81,116l8-2,1.17-1.76a31.34,31.34,0,0,1,26.13-14h14.51a36.89,36.89,0,0,1,35,48.58l-.78,2.32a21.86,21.86,0,0,0-8.27-1.64h-1a16.38,16.38,0,0,0-15.41-10.95H344.29a5.48,5.48,0,1,1,0-11h5.47V114.7h-5.47a16.46,16.46,0,0,0-15.82,12l-1.77.44a27.28,27.28,0,0,0-19.95,20.41H306a21.84,21.84,0,0,0-7.78,1.49c-1.45-5-3.16-12.19-3.16-17.91A15.54,15.54,0,0,1,306.81,116ZM306,158.48V174.9a38.21,38.21,0,0,0,.44,5.48H306a11,11,0,0,1,0-21.9Zm-197-38.31h177.6a26.42,26.42,0,0,0-2.45,11c0,8.8,3.09,19.63,4.77,24.84a21.66,21.66,0,0,0-4.77,13.47A21.92,21.92,0,0,0,306,191.32h3.75a38.63,38.63,0,0,0,11.88,14.39l-2.43,12.12a10.92,10.92,0,0,1-8.58,8.59l-13.21,2.64a43.57,43.57,0,0,0-21.82,11.52H108.93Zm53.54,131.36h16.08l-8.21,32.84H154.26Zm253,32.84H363.73l20.69-45.51,4.62.93a32.93,32.93,0,0,1,26.4,32.2ZM273.13,142.06H207.45V164H185.56V131.12H119.88V196.8h32.84v32.84h76.63V196.8h43.78Zm-142.3,0h43.78v43.79H130.83Zm87.57,76.63H163.67V196.8h21.89V174.9H218.4Zm43.79-32.84H229.35V164H218.4V153h43.79Zm128.56,188a38.45,38.45,0,0,0,13.74-29.29V339.1a32.87,32.87,0,0,0-32.84-32.84H360.71a32.87,32.87,0,0,0-32.84,32.84v5.48a38.44,38.44,0,0,0,13.73,29.29,49,49,0,0,0-30.19,24.79,49.49,49.49,0,0,0-30.1-24.75A38.25,38.25,0,0,0,295,344.58V339.1a32.87,32.87,0,0,0-32.84-32.84H251.24A32.87,32.87,0,0,0,218.4,339.1v5.48a38.24,38.24,0,0,0,13.71,29.33A49.42,49.42,0,0,0,202,398.7a49.46,49.46,0,0,0-30.12-24.82,38.26,38.26,0,0,0,13.68-29.3V333.63a27.4,27.4,0,0,0-27.37-27.37H119.88a11,11,0,0,0-10.95,10.95v27.37a38.22,38.22,0,0,0,13.72,29.33A49.31,49.31,0,0,0,87,421.2v5.48H426.39V421.2A49.11,49.11,0,0,0,390.75,373.87Zm-13.62,9a10.95,10.95,0,1,1-21.9,0,10.19,10.19,0,0,1,.22-1.58,37.22,37.22,0,0,0,21.46,0A10.19,10.19,0,0,1,377.13,382.89Zm-38.32-38.31V339.1a21.92,21.92,0,0,1,21.9-21.89h10.94a21.92,21.92,0,0,1,21.9,21.89v5.48a27.37,27.37,0,0,1-54.74,0Zm-109.46,0V339.1a21.91,21.91,0,0,1,21.89-21.89h10.95a21.92,21.92,0,0,1,21.89,21.89v5.48a27.37,27.37,0,0,1-54.73,0Zm16.42,38.31h21.89a38.34,38.34,0,0,1,37.87,32.84H207.89a38.34,38.34,0,0,1,37.88-32.84ZM119.88,344.58V317.21h38.31a16.44,16.44,0,0,1,16.42,16.42v10.95a27.37,27.37,0,0,1-54.73,0ZM98.37,415.73a38.39,38.39,0,0,1,37.93-32.84h21.89a38.39,38.39,0,0,1,37.93,32.84Zm219,0a38.17,38.17,0,0,1,27.09-31.3,21.78,21.78,0,0,0,43.47,0,38.2,38.2,0,0,1,27.14,31.29Z" transform="translate(394.78 28.11)"/></svg>