<svg id="Capa_1" data-name="Capa 1" xmlns="http://www.w3.org/2000/svg" xmlns:xlink="http://www.w3.org/1999/xlink" viewBox="0 0 512 512"><defs><style>.cls-1{fill:#F21B3F;}.cls-2{fill:url(#linear-gradient);}</style><linearGradient id="linear-gradient" x1="38.29" y1="441.61" x2="38.29" y2="482.68" gradientTransform="matrix(8, 0, 0, -8, -50, 3956)" gradientUnits="userSpaceOnUse"><stop offset="0" stop-color="#fff"/><stop offset="0.15" stop-color="#fcfeff"/><stop offset="0.28" stop-color="#f1fbfe"/><stop offset="0.4" stop-color="#dff5fd"/><stop offset="0.51" stop-color="#c6edfb"/><stop offset="0.63" stop-color="#a5e2f9"/><stop offset="0.74" stop-color="#7dd6f7"/><stop offset="0.85" stop-color="#4ec7f4"/><stop offset="0.96" stop-color="#18b6f1"/><stop offset="1" stop-color="#00aeef"/></linearGradient></defs><circle class="cls-1" cx="256" cy="256" r="256"/><path class="cls-2" d="M401.61,147.57a19,19,0,0,0,19-19,10.56,10.56,0,0,0-3.1-7.49L394.12,97.68a10.52,10.52,0,0,0-7.49-3.1,19,19,0,0,0-19,19,10.52,10.52,0,0,0,3.1,7.49l-8.64,8.64a18.75,18.75,0,0,0-16.27-2.16,15.86,15.86,0,1,0-21.5,18.74L281.58,189A15.93,15.93,0,0,0,267,179.36l-.36,0c12.31-10.58,16.26-26.75,16.26-37.12V137h-5.3c-24.22,0-39,8.33-47.69,18.79V142.27c0-17.72-12.27-47.69-58.28-47.69h-5.3v5.3c0,16.49,10,47.69,47.69,47.69h5.3v40c-6.77-8.18-17.32-15-33.2-17.62a15.85,15.85,0,0,0-14.49-22.36,15.85,15.85,0,0,0-5.06,30.89c1.63,17.07,12.85,43.29,47.45,43.29h5.3v31.79h-21.2a10.61,10.61,0,0,0-10.6,10.59v10.6a10.61,10.61,0,0,0,10.6,10.6v10.6H166.28v-10.6a10.61,10.61,0,0,0,10.6-10.6v-10.6a10.61,10.61,0,0,0-10.6-10.59h-53a10.6,10.6,0,0,0-10.59,10.59v10.6a10.6,10.6,0,0,0,10.59,10.6v10.6H108a15.91,15.91,0,0,0-15.9,15.89V423.09h10.6V311.82a5.31,5.31,0,0,1,5.3-5.3h5.29V375.4a26.5,26.5,0,1,0,53,0V306.52h31.79V375.4a26.48,26.48,0,0,0,31.85,26c0,.19-.06.36-.06.55v10.59a10.61,10.61,0,0,0,10.6,10.6H388.82a10.61,10.61,0,0,0,10.6-10.6,21.07,21.07,0,0,0-3.76-12l8.44-15.19a131.2,131.2,0,0,0-21.92-156.49L367.38,214a26.34,26.34,0,0,0-6.53-15.08l22.67-22.67a18,18,0,0,0,2-23.17l8.62-8.62a10.53,10.53,0,0,0,7.49,3.11ZM214,137c-28.18,0-34.95-21.25-36.58-31.6,27.45,1.86,39.25,16.92,41.48,31.6ZM113.29,264.13h53v10.6h-53Zm10.6,21.2h31.79v10.6H123.89Zm31.79,90.07a15.9,15.9,0,1,1-31.79,0V306.52h31.79Zm231-270.22L410,128.56a8.41,8.41,0,0,1-8.4,8.41l-23.39-23.39A8.41,8.41,0,0,1,386.63,105.18Zm-56.09,21.19a5.3,5.3,0,1,1-5.3,5.3A5.3,5.3,0,0,1,330.54,126.37Zm-66.69,95.38,3.1-3.11,29.6,29.6-3.1,3.1a7.76,7.76,0,0,1-10.6,0l-19-19a7.47,7.47,0,0,1,0-10.59Zm8.4-26.5A5.3,5.3,0,1,1,267,190,5.31,5.31,0,0,1,272.25,195.25Zm-.51-47.49c-1.63,10.36-8.41,31.6-36.58,31.6h-4.89C232.5,164.67,244.29,149.62,271.74,147.76Zm-100.16,10.4a5.3,5.3,0,1,1-5.3,5.3A5.31,5.31,0,0,1,171.58,158.16Zm42.39,53c-28.18,0-34.95-21.25-36.58-31.6,27.45,1.86,39.25,16.92,41.48,31.6Zm15.89,10.6V190h5.3A54,54,0,0,0,253.43,187a15.67,15.67,0,0,0-2.37,8.24,15.93,15.93,0,0,0,9.67,14.63l-4.37,4.37a18.08,18.08,0,0,0,0,25.58l19,19a18.11,18.11,0,0,0,25.58,0l22.67-22.68a26.26,26.26,0,0,0,17.52,6.78,26.59,26.59,0,0,0,4.67-.47l2.16,1.61a76,76,0,0,1,30.26,60.53,75.23,75.23,0,0,1-9.12,35.92A37,37,0,0,0,345.54,328a15.85,15.85,0,0,0-15-10.89H251.06v-10.6h21.19V295.93H251.06v-10.6a10.6,10.6,0,0,0,10.59-10.6v-10.6a10.6,10.6,0,0,0-10.59-10.59h-21.2ZM357,216.45a15.9,15.9,0,1,1-15.9-15.9A15.91,15.91,0,0,1,357,216.45ZM341.13,391.3a26.5,26.5,0,1,1,26.5-26.49A26.52,26.52,0,0,1,341.13,391.3Zm-25.91-53H251.06V327.72h79.48a5.09,5.09,0,0,1,2.71.86A37.1,37.1,0,0,0,315.22,338.31ZM251.06,375.4V348.91h56.61a36.86,36.86,0,0,0,7.55,42.39h-69.6A26.19,26.19,0,0,0,251.06,375.4Zm-53-111.27h53v10.6h-53Zm10.6,21.2h31.79v10.6H208.67Zm0,90.07V306.52h31.79V375.4a15.9,15.9,0,1,1-31.79,0Zm31.79,37.09V401.9H378.22a10.62,10.62,0,0,1,10.61,10.59ZM410,321.59a121,121,0,0,1-15.17,58.57l-7.41,13.33a21,21,0,0,0-9.21-2.19H367a36.94,36.94,0,0,0,8.37-40.61,86.05,86.05,0,0,0-18.54-113A26.63,26.63,0,0,0,365.4,227l9.29,9.29A119.82,119.82,0,0,1,410,321.59ZM376,168.76,352.29,192.5a26.34,26.34,0,0,0-35.1,35.1L304,240.75l-29.59-29.6,72-72a7.76,7.76,0,0,1,10.6,0l19,19a7.51,7.51,0,0,1,0,10.6Zm2.19-23.39-8.4-8.4,8.4-8.41,8.41,8.41Zm-37.09,65.78a5.3,5.3,0,1,1-5.3,5.3A5.3,5.3,0,0,1,341.13,211.15Zm0,137.76a15.9,15.9,0,1,0,15.9,15.9A15.91,15.91,0,0,0,341.13,348.91Zm0,21.2a5.3,5.3,0,1,1,5.3-5.3A5.31,5.31,0,0,1,341.13,370.11ZM245.76,126.37a15.9,15.9,0,1,0-15.9-15.89A15.91,15.91,0,0,0,245.76,126.37Zm0-21.19a5.3,5.3,0,1,1-5.3,5.3A5.31,5.31,0,0,1,245.76,105.18ZM161,242.94A15.9,15.9,0,1,0,145.09,227,15.91,15.91,0,0,0,161,242.94Zm0-21.19a5.3,5.3,0,1,1-5.3,5.29A5.3,5.3,0,0,1,161,221.75Zm-47.69-74.18a21.2,21.2,0,1,0-21.19-21.2A21.22,21.22,0,0,0,113.29,147.57Zm0-31.8a10.6,10.6,0,1,1-10.59,10.6A10.61,10.61,0,0,1,113.29,115.77ZM102.7,200.55a21.2,21.2,0,1,0,21.19-21.19A21.22,21.22,0,0,0,102.7,200.55Zm31.79,0a10.6,10.6,0,1,1-10.6-10.6A10.61,10.61,0,0,1,134.49,200.55Z" transform="translate(-0.36 -2.84)"/></svg>