<?xml version="1.0" encoding="utf-8"?>
<!-- Generator: Adobe Illustrator 24.2.3, SVG Export Plug-In . SVG Version: 6.00 Build 0)  -->
<svg version="1.1" id="_x31_58d9566-b2be-4f0f-bcdd-c9ed3d10c246"
	 xmlns="http://www.w3.org/2000/svg" xmlns:xlink="http://www.w3.org/1999/xlink" x="0px" y="0px" viewBox="0 0 974 714.5"
	 style="enable-background:new 0 0 974 714.5;" xml:space="preserve">
<style type="text/css">
	.st0{fill:#F0F0F0;}
	.st1{fill:#E0E0E0;}
	.st2{fill:#37474F;}
	.st3{fill:#263238;}
	.st4{fill:#27DEBF;}
	.st5{fill:#9ADFFF;stroke:#FFFFFF;stroke-width:1.5058;stroke-miterlimit:10;}
	.st6{fill:#455A64;}
	.st7{fill:#FFFFFF;}
	.st8{fill:#FFA8A7;}
	.st9{fill:#F28F8F;}
	.st10{fill:#E6E6E6;}
	.st11{fill:#9ADFFF;}
	.st12{opacity:0.25;}
	.st13{opacity:0.2;}
	.st14{opacity:0.1;}
	.st15{fill:#F5F5F5;}
	.st16{fill:#FAFAFA;}
	.st17{opacity:0.15;}
	.st18{clip-path:url(#XMLID_3_);}
	.st19{opacity:0.4;}
	.st20{opacity:0.7;fill:#FFFFFF;}
	.st21{opacity:0.5;fill:#FFFFFF;}
	.st22{fill:none;stroke:#FFFFFF;stroke-width:1.5852;stroke-linecap:round;stroke-linejoin:round;stroke-miterlimit:10;}
	.st23{opacity:0.7;fill:#9ADFFF;}
	.st24{opacity:0.15;fill:#9ADFFF;}
	.st25{opacity:0.5;fill:#9ADFFF;}
	.st26{opacity:0.5;}
</style>
<ellipse id="Floor_1_" class="st0" cx="518.7" cy="502.2" rx="361" ry="208.4"/>
<ellipse id="Shadow_2_" class="st1" cx="734.4" cy="498.7" rx="65.6" ry="37.9"/>
<polygon id="Shadow_11_" class="st1" points="315.4,525.5 609,695.1 743.6,617.4 449.9,447.8 "/>
<path id="Shadow_18_" class="st1" d="M263.2,559l-60.8-35.1c-1.8-1-1.8-2.7,0-3.8l213.7-123.4c1.8-1,4.7-1,6.5,0l60.8,35.1
	c1.8,1,1.8,2.7,0,3.8L269.7,559C267.9,560,265,560,263.2,559z"/>
<g id="Device_3_">
	<g id="Device_10_">
		<g id="XMLID_15215_">
			<path id="XMLID_15219_" class="st2" d="M455.3,23.9L274.9,128c-3.6,2.1-6.6,7.2-6.6,11.4v406.7c0,4.2,2.9,5.9,6.6,3.8
				l180.4-104.1c3.6-2.1,6.6-7.2,6.6-11.4V27.7C461.8,23.5,458.9,21.8,455.3,23.9z M452.4,396.9c0,3.6-2.5,5.9-5.6,7.6l-164,94.7
				c-3.1,1.8-5.6,0.3-5.6-3.2V177.4c0-3.6,2.5-7.9,5.6-9.7l164-94.7c3.1-1.8,5.6-0.3,5.6,3.2V396.9z"/>
		</g>
		<g id="XMLID_15212_">
			<path id="XMLID_15214_" class="st3" d="M274.1,550.3c-3.6,1.7-8.9,1.5-12.3-0.4l-7.5-4.3c-3.6-2.1-6.6-7.2-6.6-11.4V127.5
				c0-1.6,0.4-3.3,1.1-4.9c0.2-0.5,0.5-1.1,0.8-1.6c0,0,0,0,0,0l20.6,11.9h0c-0.4,0.8-0.8,1.6-1.1,2.4c-0.5,1.4-0.8,2.8-0.8,4.1
				v406.7C268.4,549.9,270.9,551.7,274.1,550.3z"/>
		</g>
		<path id="XMLID_15211_" class="st4" d="M366.7,462.1c5.7-3.3,10.4-0.6,10.4,6c0,6.6-4.6,14.6-10.4,17.9c-5.7,3.3-10.4,0.6-10.4-6
			S361,465.4,366.7,462.1z"/>
		<g id="XMLID_15208_">
			<path id="XMLID_15210_" d="M365.1,84.7c2.4-1.4,4.4-0.3,4.4,2.5c0,2.8-2,6.2-4.4,7.6c-2.4,1.4-4.4,0.3-4.4-2.5
				C360.7,89.5,362.7,86.1,365.1,84.7z"/>
			<path id="XMLID_15209_" d="M348.1,111.5l33.9-19.6c2-1.2,3.7-0.3,3.7,1.9c0,2.2-1.6,4.9-3.7,6.1l-33.9,19.6
				c-2,1.2-3.7,0.3-3.7-1.9C344.5,115.4,346.1,112.6,348.1,111.5z"/>
		</g>
		<path id="XMLID_15207_" class="st5" d="M452.4,396.6c0,3.6-2.5,5.9-5.6,7.6l-164,94.7c-3.1,1.8-5.6,0.3-5.6-3.2V177
			c0-3.6,2.5-7.9,5.6-9.7l164-94.7c3.1-1.8,5.6-0.3,5.6,3.2V396.6z"/>
		<g id="XMLID_15204_">
			<path id="XMLID_15206_" class="st6" d="M461.8,26.6c-0.5-3.4-3.2-4.6-6.5-2.7L274.9,128c-1.8,1-3.4,2.8-4.6,4.9L249.7,121
				c1.2-2.1,2.8-3.8,4.6-4.9L434.6,12c3.6-2.1,9.5-2.1,13.1,0l7.5,4.3C458.6,18.2,461.4,22.7,461.8,26.6z"/>
		</g>
	</g>
	<g>
		<path class="st7" d="M326.1,220.1c1.9-1.1,3.6-1.6,5.1-1.7c1.5,0,2.9,0.4,4,1.3c1.1,0.9,2,2.2,2.7,4c0.6,1.8,1,3.9,1.1,6.4
			c0,0.9,0,1.7,0,2.4c0,0.7,0,1.4,0,2.1s0,1.4,0,2.1c0,0.7,0,1.5,0,2.3c-0.1,2.6-0.4,5.2-1.1,7.7c-0.6,2.5-1.5,4.8-2.6,7
			c-1.1,2.2-2.4,4.2-3.9,5.9c-1.5,1.7-3.2,3.2-5.1,4.2l-11,6.4c-0.3,0.2-0.6,0.2-0.8-0.1c-0.2-0.2-0.3-0.5-0.3-1v-40.6
			c0-0.5,0.1-0.9,0.3-1.4c0.2-0.5,0.5-0.8,0.8-1L326.1,220.1z M331.4,234.3c-0.2-4.7-2-6.1-5.6-4l-4.2,2.4v23.9l4.4-2.5
			c3.4-2,5.2-5.4,5.3-10.3c0-0.9,0-1.7,0-2.5c0-0.8,0-1.5,0-2.3c0-0.7,0-1.5,0-2.2C331.4,236,331.4,235.2,331.4,234.3z"/>
		<path class="st7" d="M358,201.7c0.5-0.3,1-0.3,1.2,0c0.3,0.3,0.5,0.6,0.6,1l8.9,34.5c0.1,0.4,0.2,0.6,0.2,0.9
			c0,0.4-0.1,0.8-0.3,1.1c-0.2,0.4-0.4,0.6-0.6,0.8l-5.1,3c-0.5,0.3-0.9,0.4-1.2,0.1c-0.2-0.2-0.4-0.5-0.4-0.8l-1.1-4.6l-10.9,6.3
			l-1.1,5.9c-0.1,0.4-0.2,0.8-0.4,1.3c-0.2,0.5-0.6,0.9-1.2,1.2l-5.1,3c-0.2,0.1-0.5,0.1-0.6,0c-0.2-0.2-0.3-0.4-0.3-0.8
			c0-0.2,0.1-0.6,0.2-1l8.9-44.7c0.1-0.5,0.3-1.1,0.6-1.7c0.3-0.6,0.7-1.1,1.2-1.4L358,201.7z M351.4,233l6.6-3.8l-3.3-13.2
			L351.4,233z"/>
		<path class="st7" d="M390.4,183c0.3-0.2,0.6-0.2,0.8,0.1c0.2,0.2,0.3,0.5,0.3,1v6.7c0,0.5-0.1,0.9-0.3,1.4c-0.2,0.5-0.5,0.8-0.8,1
			l-7.2,4.1v32.3c0,0.5-0.1,0.9-0.3,1.4c-0.2,0.5-0.5,0.8-0.8,1l-5.3,3.1c-0.3,0.2-0.6,0.2-0.8-0.1c-0.2-0.2-0.3-0.5-0.3-1v-32.3
			l-7.2,4.1c-0.3,0.2-0.6,0.2-0.8-0.1c-0.2-0.2-0.3-0.5-0.3-1V198c0-0.5,0.1-0.9,0.3-1.4c0.2-0.5,0.5-0.8,0.8-1L390.4,183z"/>
		<path class="st7" d="M407.4,173.2c0.5-0.3,1-0.3,1.2,0c0.3,0.3,0.5,0.6,0.6,1l8.9,34.5c0.1,0.4,0.2,0.6,0.2,0.9
			c0,0.4-0.1,0.8-0.3,1.1c-0.2,0.4-0.4,0.6-0.6,0.8l-5.1,3c-0.5,0.3-0.9,0.4-1.2,0.1c-0.2-0.2-0.4-0.5-0.4-0.8l-1.1-4.6l-10.9,6.3
			l-1.1,5.9c-0.1,0.4-0.2,0.8-0.4,1.3c-0.2,0.5-0.6,0.9-1.2,1.2l-5.1,3c-0.2,0.1-0.5,0.1-0.6,0c-0.2-0.2-0.3-0.4-0.3-0.8
			c0-0.2,0.1-0.6,0.2-1l8.9-44.7c0.1-0.5,0.3-1.1,0.6-1.7c0.3-0.6,0.7-1.1,1.2-1.4L407.4,173.2z M400.8,204.5l6.6-3.8l-3.3-13.2
			L400.8,204.5z"/>
	</g>
</g>
<g id="Character_4_">
	<g id="XMLID_819_">
		<g id="XMLID_820_">
			<path id="XMLID_821_" class="st8" d="M725.6,178.7c-9.6,0.4-12.8,2.3-17.8,8.2c-4.9,5.8-28.5,49.5-28.5,49.5s4.4,12.4,14.1,11.4
				l18.1-29.2L725.6,178.7z"/>
		</g>
	</g>
	<path id="XMLID_2128_" class="st1" d="M726.8,178.7c0,0-6.9-0.9-11.8,0.9c-4.9,1.8-7.3,5.3-10.7,10.5c-2.6,4-11.8,20.5-11.8,20.5
		S697,223,709.7,223L726.8,178.7z"/>
	<g id="Character_22_">
		<g id="XMLID_801_">
			<path id="XMLID_810_" class="st3" d="M759.6,489.6v-2.1c-0.8,2.4-4.6,12.9-10.4,18.1c-4.6,4.2-10.8,9-12.4,13.6
				c-1.6,4.8,8.7,6.5,12.9,5.7c5-0.9,11.4-3.7,14.9-8c2.5-3,4-6.6,5.8-9c1.8-2.4,5.8-5,6.7-7.8c0.5-1.5-0.1-4.8-0.8-7.6
				c-0.7-2.6-1.4-5.4-2.3-5.1c0,0.3,0,1.6,0,1.6c-1.1,1.2-4,2.3-7.2,2.4C764.7,491.6,759.6,491.2,759.6,489.6z"/>
			<path id="XMLID_809_" class="st8" d="M745.1,509.3c1.4-1.3,2.8-2.5,4.1-3.7c4-3.7,7.1-9.9,8.8-14.1c1-2.4,1.5-5,1.5-7.6v-8.3
				h14.5V489v0v0v0.4l-0.1,0c-0.7,3-7.3,11-11.1,16.2c-2.5,3.5-7.3,8-13.1,8.7C744.3,515.1,741.6,513.4,745.1,509.3z"/>
			<path id="XMLID_806_" class="st3" d="M708.4,475.3v-2.1c-0.8,2.4-4.6,12.9-10.4,18.1c-4.6,4.2-10.8,9-12.4,13.6
				c-1.6,4.8,8.7,6.5,12.9,5.7c5-0.9,11.4-3.7,14.9-8c2.5-3,4-6.6,5.8-9c1.8-2.4,5.8-5,6.7-7.8c0.5-1.5-0.1-4.8-0.8-7.6
				c-0.7-2.6-1.4-5.4-2.3-5.1c0,0.3,0,1.6,0,1.6c-1.1,1.2-4,2.3-7.2,2.4C713.6,477.3,708.4,476.9,708.4,475.3z"/>
			<path id="XMLID_804_" class="st8" d="M693.9,495c1.4-1.3,2.8-2.5,4.1-3.7c4-3.7,7.1-9.9,8.8-14.1c1-2.4,1.5-5,1.5-7.6v-8.3h14.5
				v13.4l0,0v0v0.4l-0.1,0c-0.7,3-7.3,11-11.1,16.2c-2.5,3.5-7.3,8-13.1,8.7C693.2,500.9,690.4,499.1,693.9,495z"/>
			<path id="XMLID_803_" class="st6" d="M771.2,264.3c11.2,24.5-0.4,111-0.4,111c0.3,4,4.9,11.8,6.6,29.3c2,20.7-3.1,72.7-3.1,72.7
				s-6.7,4.4-14.6,0.6c0,0-13.8-78.3-16.4-98.9c-2.3-18-6.6-57.5-6.6-57.5l-7,57.4c0,0,3.2,10.1,3.9,17.7
				c1.2,12.1-10.6,68.5-10.6,68.5s-5,1.8-14.5,0.4c0,0-4.2-74.8-5.2-89.4c-1.8-24.5-0.7-101,3.8-115.5L771.2,264.3z"/>
			<path id="XMLID_802_" class="st2" d="M736.6,321.5l-3.6-22.8c0,0-15.4-3.2-22.4-9.8c0,0,7.3,9.1,18.2,12.1l4.1,17.5l-2.8,56.5
				L736.6,321.5z"/>
		</g>
		<path id="XMLID_800_" class="st0" d="M751.4,179.1L751.4,179.1c4.3,0.3,5.7,0.2,8.8,0.5c6.2,0.6,7.7,9.7,10.2,15
			c2.7,5.8,2.8,12.5,0.7,18.6l-10,29c0,0,4.7,11.4,10.2,22.1c-25.2,14.1-56.6,6.7-64.2-3.6c-0.3-2.2,1.6-19.2,2.8-30.3
			c-4.4-11.1-5.6-18.2-3.7-25.5c3.5-13.7,15.9-26.2,19.5-26.2L751.4,179.1z"/>
		<g id="XMLID_1995_">
			<path class="st6" d="M772.9,123.9l-5.2-0.5c0.6-0.4,1.2-0.9,1.6-1.6c1.1-2.1,0.4-4.7-1.7-5.9l-3.4,6.1
				c-5.6-9.5-16.1-15.7-27.9-15.1l-2.7,0.1c-16.8,0.9-29.6,15.2-28.7,32c0.9,17.3,1.9,36.7,1.9,36.7l31.3-1.7
				c17.7-0.9,31.4-16.1,30.4-33.8l-0.2-4.6c-0.2-2.9-0.7-5.7-1.7-8.4c0.5,0.2,1,0.4,1.5,0.4C770.5,128.1,772.6,126.3,772.9,123.9z"
				/>
			<g id="XMLID_677_">
				<path id="XMLID_797_" class="st8" d="M710.5,141.2c-0.2,3.5-0.1,5.4,0.3,10c1.2,15.6,6.5,19.2,9.1,20.1c2.6,1,7.5,0,12.2-1
					l0,9.2c0,0-5.7,8.1-5,12.4c0.6,4.3,9.8,4.8,15.7,0.3c5.9-4.5,8.3-12.2,8.3-12.2l0-21.5c0,0,3.4,4.1,8.5,0.4
					c5.1-3.8,4.8-12.4,1.6-15.4c-3.2-2.9-9.9-1.7-10.9,2.7c0,0-11-0.9-12.4-19C727.7,140.4,711.2,130.8,710.5,141.2z"/>
			</g>
			<path id="XMLID_1993_" class="st6" d="M750.2,144.9l0.4,7.7l0,0c-2.9,0.2-5.4-2.1-5.5-5l-0.5-8.6L750.2,144.9z"/>
			<g id="XMLID_465_">
				<path id="XMLID_474_" class="st3" d="M730.1,145.8c0,1.1,0.9,2,2,2c1.1,0,2-0.9,2-2.1c0-1.1-0.9-2-2-2
					C730.9,143.8,730.1,144.7,730.1,145.8z"/>
			</g>
			<g id="XMLID_456_">
				<path id="XMLID_458_" class="st9" d="M729.9,159.6l-5.3,2c0.5,1.5,2.1,2.3,3.6,1.7C729.7,162.8,730.5,161.2,729.9,159.6z"/>
			</g>
			<g id="XMLID_451_">
				<path id="XMLID_455_" class="st6" d="M732.2,137l4.6,1.5c0.5-1.3-0.2-2.6-1.5-3C734.1,135,732.7,135.7,732.2,137z"/>
			</g>
			<g id="XMLID_357_">
				<path id="XMLID_363_" class="st3" d="M713.2,146.7c0,1.1,0.9,2,2,2c1.1,0,2-0.9,2-2.1c0-1.1-0.9-2-2-2
					C714.1,144.6,713.2,145.5,713.2,146.7z"/>
			</g>
			<g id="XMLID_355_">
				<polygon id="XMLID_356_" class="st9" points="724.7,145 725,156.8 718.7,155.2 				"/>
			</g>
			<g id="XMLID_1996_">
				<path id="XMLID_347_" class="st9" d="M732,170.3c5-0.9,15.2-4.4,16.5-8.6c0,0-0.4,2.6-3.3,5.4c-2.9,2.8-13.2,6.3-13.2,6.3
					L732,170.3z"/>
			</g>
		</g>
		<path id="XMLID_1994_" class="st10" d="M744.9,267c8.3-2,9.8-5.1,7.7-13.3c-0.1-0.3-0.2-0.6-0.3-0.8c-1.6-3.9-8.1-1.6-8.1-1.6
			s2.6-3.3,5.6-7.5c3-4.2,4.3-11.2,4.7-16c0.4-4.9,1.2-14.6,1.2-14.6s6.4-3.9,3.9-10.9l9.9-6.1c0,0,0.7,0.5,1.9,1.3
			c1.6,5.1,1.3,10.6-0.4,15.7l-10,29c0,0,5.9,10.4,10.2,22.1c-18.6,10.4-40.5,9.1-53.8,3.6C727.9,269.5,737.6,268.8,744.9,267z"/>
		<path id="XMLID_328_" class="st3" d="M752,143.4l-11.4,0.6c-0.8-2.8-3.4-4.9-6.5-4.7l-1,0.1c-2.6,0.1-4.8,1.9-5.7,4.2
			c-0.9-0.9-2.3-1.4-3.8-1.4c-1.3,0-2.4,0.4-3.2,1.2c-1.2-1.9-3.3-3.1-5.7-3l-1,0.1c-3.5,0.2-6.2,3.2-6,6.7c0.2,3.5,3.2,6.2,6.7,6
			l1-0.1c3.5-0.2,6.2-3.2,6-6.7c0-0.7-0.2-1.4-0.5-2c0.6-0.7,1.6-1.1,2.7-1.1c1.5,0,2.8,0.6,3.4,1.5l0.1,0c-0.1,0.4-0.1,0.9-0.1,1.3
			c0.2,3.5,3.2,6.2,6.7,6l1-0.1c3.5-0.2,6.2-3.2,6-6.7c0-0.1,0-0.2,0-0.2l10.2-0.5C751.4,143.9,751.8,143.6,752,143.4z M715.4,151.9
			l-1,0.1c-2.9,0.2-5.4-2.1-5.6-5c-0.2-2.9,2.1-5.4,5-5.6l1-0.1c2.9-0.2,5.4,2.1,5.6,5C720.6,149.3,718.3,151.8,715.4,151.9z
			 M734.8,150.9l-1,0.1c-2.9,0.2-5.4-2.1-5.6-5c-0.2-2.9,2.1-5.4,5-5.6l1-0.1c2.9-0.2,5.4,2.1,5.6,5
			C739.9,148.3,737.7,150.7,734.8,150.9z"/>
	</g>
	<g id="XMLID_3993_">
		<g id="XMLID_4063_">
			<polygon id="XMLID_4065_" class="st11" points="658.6,226.9 709.4,240.6 723,298.2 674.8,283.9 			"/>
			<polygon id="XMLID_4064_" class="st12" points="658.4,227.1 709.3,240.5 723.3,298 674.9,284 			"/>
			<path class="st13" d="M692.7,274.6c0.3,3.1,2.5,6.7,8.9,9.8c6.4,3,18.7,1.3,18.7,1.3l-1.7-7.1L692.7,274.6z"/>
		</g>
		<g id="XMLID_4061_" class="st13">
			<path id="XMLID_4062_" d="M681.4,267.8c-0.5,1.3-2.8,5.7-9.4,6.2l-0.5-1.8L681.4,267.8z"/>
		</g>
		<g id="XMLID_4055_" class="st14">
			<path id="XMLID_4056_" d="M673.7,236.2c0,0-0.2-0.9-0.4-1.9c-0.2-1.1,2.8-1.1,6.7-0.1l7.5,1.9c3.9,1,7.3,2.7,7.5,3.8l0.4,1.9
				L673.7,236.2z"/>
		</g>
		<g id="XMLID_4000_">
			<path id="XMLID_4001_" class="st2" d="M669.8,228.9c-0.1-0.7,1.1-0.8,2.7-0.4l3,0.8c0,0-0.9-4.2,5.7-2.7c6.6,1.5,8,6.2,8,6.2
				s1.4,0.4,3.2,0.9c1.8,0.5,3.3,1.4,3.5,2.1l0.4,1.2l-26.2-6.9C670.1,230.2,669.9,229.6,669.8,228.9z"/>
		</g>
		<g id="XMLID_3998_">
			<path id="XMLID_3999_" class="st2" d="M673.4,231c2.4,0.6,3.4,0.9,3.8,2.5c0.4,1.9,0.6,3.3,0.6,3.3l11.6,3.1c0,0-0.6-2.4-0.7-3.3
				c-0.2-0.9,0.2-1.5,2.1-1l0.2-0.7l-18.2-4.6L673.4,231z"/>
		</g>
		<g id="XMLID_3996_">
			<path id="XMLID_3997_" class="st2" d="M673,236.4c0,0-0.2-0.9-0.4-1.9c-0.2-1.1,2.8-1.1,6.7-0.1l7.5,1.9c3.9,1,7.3,2.7,7.5,3.8
				l0.4,1.9L673,236.4z"/>
		</g>
		<g id="XMLID_3994_">
			<path id="XMLID_3995_" class="st8" d="M663.7,245.5c0,0,1.9,6.5,2.3,8.1c0.4,1.6,6.1,4.3,9.9,5.4c3.7,1,7.8,2.2,6.1,7.5
				c-1.6,4.8-7.8,5.9-10.9,5.8c-3.1-0.1-7.4-3.1-9.1-8c-2.2-6.2-1-12.7-1.9-16.3C659.3,244.4,661.9,243.4,663.7,245.5z"/>
		</g>
	</g>
	<g>
		<path class="st8" d="M759,179.5c6.6,0.4,13.4,4,14.5,11.9c1,7.9,7.5,49.6,4.9,54.3c-5.8,10.9-44.2,31.5-48,33.3
			c-3.8,1.8-10.2,4.7-17.7,4.8c-6,0.1-14-0.1-18-5.5c-3.6-4.8-5.6-13.7,2.5-12.1c8.1,1.5,18.5,0.8,18.5,0.8l-0.9-3.9
			c0,0,2.1-0.2,6.2,1c4,1.2,7.7-2.3,14.8-6.7c9.2-5.7,23.1-17.7,23.1-17.7l-5.7-34.8C753.1,204.8,753,189.8,759,179.5z"/>
		<path class="st1" d="M757.8,179.5c0,0,3.5-0.8,7.4,0.7c3.9,1.5,7.3,3.4,8.9,11.2c1.6,7.8,4.8,36.4,4.8,36.4s-8.4,6.1-22.2,3.2
			l-4.9-25.9C751.8,205,748,186.9,757.8,179.5z"/>
	</g>
</g>
<g>
	<g>
		<polygon class="st6" points="287.7,317.4 448.7,224.4 448.7,246.7 287.7,339.7 		"/>
		<polygon class="st3" points="294.2,321.1 294.2,328.5 442.3,243 442.3,235.6 		"/>
		<polygon class="st2" points="287.7,317.4 281.3,313.6 442.3,220.7 448.7,224.4 		"/>
		<polygon class="st3" points="281.3,313.6 287.7,317.4 287.7,339.7 281.3,335.9 		"/>
	</g>
	<g id="XMLID_297_">
		<polygon id="XMLID_459_" class="st2" points="751.3,607.4 609.7,689.1 609.7,685.5 751.3,603.7 		"/>
		<path id="XMLID_15053_" class="st15" d="M474.4,383.9l-31.2,18L424.1,413c-0.6,0.3-1.2,0.7-1.8,1c-7.1,4.4-12.2,12.3-12.2,21.9
			l0,89.7c0,8.7-4.2,16-10.3,20.6c-4.4,3.3-9.9,5.2-15.5,5.2c-4.3,0-8.7-1.1-12.8-3.5c-23.9-13.8-38.6-39.3-38.6-66.9v-93
			c0-13.8-3.7-27.1-10.4-38.6c-6.7-11.6-16.3-21.4-28.3-28.3l141.7-81.8l0,0c12,6.9,21.6,16.8,28.3,28.3
			c6.7,11.6,10.4,24.8,10.4,38.6v40.5C474.5,358.3,474.4,383.9,474.4,383.9z"/>
		<path class="st6" d="M526,637.2c-23.9-13.8-38.6-39.3-38.6-66.9l0-89.7c0-10.5-2.1-20.7-6.1-30c-1.3-3-2.7-5.8-4.3-8.6
			c-6.7-11.5-16.3-21.4-28.3-28.3l0,0c-17.2-9.9-38.6,2.5-38.6,22.3l0,9.1l0-9.2l0,89.7l0-18.7v18.6c0,19.8-21.5,32.2-38.6,22.3
			c-23.9-13.8-38.6-39.3-38.6-66.9v-93c0-13.8-3.7-27.1-10.4-38.6c-6.7-11.6-16.3-21.4-28.3-28.3v3.7c21.9,13.4,35.5,37.4,35.5,63.2
			v93c0,28.6,15.4,55.3,40.2,69.7c9.1,5.2,19.9,5.2,28.9,0c0.6-0.3,1.1-0.6,1.6-1l0,0c8-5.4,12.8-14.2,12.8-24l0-89.7
			c0-8.2,4.2-15.5,11.3-19.6c7.1-4.1,15.5-4.1,22.6,0c14.3,8.2,25.2,20.9,31.4,35.7c3.7,8.9,5.7,18.5,5.7,28.4l0,20.8l0,68.9
			c0,28.6,15.4,55.3,40.2,69.7l85.3,49.2v-3.6L526,637.2z"/>
		<path id="XMLID_420_" class="st16" d="M751.3,603.7l-141.7,81.7L526,637.2c-23.9-13.8-38.6-39.3-38.6-66.9l0-89.7
			c0-10.5-2.1-20.7-6.1-30c-1.3-3-2.7-5.8-4.3-8.6c-6.7-11.5-16.3-21.4-28.3-28.3c-8.2-4.7-17.3-4.4-24.6-0.6l19.2-11.1l38.6-22.3
			l82.6-47.7l0.2-0.1c7.5-4.3,17.1-4.9,25.7,0c12,6.9,21.6,16.7,28.3,28.3c6.7,11.6,10.4,24.8,10.4,38.6l0,89.7
			c0,27.6,14.7,53.1,38.6,66.9L751.3,603.7z"/>
		<path class="st1" d="M484.2,480.5c0-9.9-2-19.5-5.7-28.4c-6.2-14.8-17.1-27.5-31.4-35.7c-7.1-4.1-15.5-4.1-22.6,0
			c-7.1,4.1-11.3,11.4-11.3,19.6l0,89.7c0,9.8-4.7,18.6-12.8,24l0,0c-0.5,0.4-1.1,0.7-1.6,1l85.4-49.3L484.2,480.5z"/>
		<path class="st17" d="M484.2,480.5c0-9.9-2-19.5-5.7-28.4c-6.2-14.8-17.1-27.5-31.4-35.7c-7.1-4.1-15.5-4.1-22.6,0
			c-7.1,4.1-11.3,11.4-11.3,19.6l0,89.7c0,9.8-4.7,18.6-12.8,24l0,0c-0.5,0.4-1.1,0.7-1.6,1l85.4-49.3L484.2,480.5z"/>
	</g>
</g>
<g>
	<defs>
		<path id="XMLID_300_" d="M474.4,383.9l-31.2,18L424.1,413c-0.6,0.3-1.2,0.7-1.8,1c-7.1,4.4-12.2,12.3-12.2,21.9l0,89.7
			c0,8.7-4.2,16-10.3,20.6c-4.4,3.3-9.9,5.2-15.5,5.2c-4.3,0-8.7-1.1-12.8-3.5c-23.9-13.8-38.6-39.3-38.6-66.9v-93
			c0-13.8-3.7-27.1-10.4-38.6c-6.7-11.6-16.3-21.4-28.3-28.3l141.7-81.8l0,0c12,6.9,21.6,16.8,28.3,28.3
			c6.7,11.6,10.4,24.8,10.4,38.6v40.5C474.5,358.3,474.4,383.9,474.4,383.9z"/>
	</defs>
	<clipPath id="XMLID_3_">
		<use xlink:href="#XMLID_300_"  style="overflow:visible;"/>
	</clipPath>
	<g class="st18">
		<path class="st11" d="M319.3,321.5c3,2.5,8.2,3.1,12,0.9l101.1-58.4c3.8-2.2,4.7-6.3,1.7-8.8c-3-2.6-8.6-2.6-12.4-0.4l-101.1,58.4
			C316.8,315.4,316.3,319,319.3,321.5z"/>
		<g>
			<path class="st19" d="M400.8,299.4c-0.4,0-0.8-0.2-1-0.6c-0.3-0.5-0.1-1.2,0.4-1.5l47.3-27.3c0.5-0.3,1.2-0.1,1.5,0.4
				c0.3,0.5,0.1,1.2-0.4,1.5l-47.3,27.3C401.2,299.4,401,299.4,400.8,299.4z"/>
		</g>
		<g>
			<path class="st19" d="M404.5,305.5c-0.4,0-0.8-0.2-1-0.6c-0.3-0.5-0.1-1.2,0.4-1.5l47.3-27.3c0.5-0.3,1.2-0.1,1.5,0.4
				c0.3,0.5,0.1,1.2-0.4,1.5L405,305.4C404.8,305.5,404.7,305.5,404.5,305.5z"/>
		</g>
		<g>
			<path class="st19" d="M407.5,311.9c-0.4,0-0.8-0.2-1-0.6c-0.3-0.5-0.1-1.2,0.4-1.5l47.3-27.3c0.5-0.3,1.2-0.1,1.5,0.4
				c0.3,0.5,0.1,1.2-0.4,1.5l-47.3,27.3C407.9,311.8,407.7,311.9,407.5,311.9z"/>
		</g>
		<g>
			<path class="st19" d="M410,318.5c-0.4,0-0.8-0.2-1-0.6c-0.3-0.5-0.1-1.2,0.4-1.5l47.3-27.3c0.5-0.3,1.2-0.1,1.5,0.4
				c0.3,0.5,0.1,1.2-0.4,1.5l-47.3,27.3C410.4,318.4,410.2,318.5,410,318.5z"/>
		</g>
		<g>
			<path class="st19" d="M411.8,324.9c-0.4,0-0.8-0.2-1-0.6c-0.3-0.5-0.1-1.2,0.4-1.5l47.3-27.3c0.5-0.3,1.2-0.1,1.5,0.4
				c0.3,0.5,0.1,1.2-0.4,1.5l-47.3,27.3C412.2,324.9,412,324.9,411.8,324.9z"/>
		</g>
		<g>
			<path class="st19" d="M413,331.9c-0.4,0-0.8-0.2-1-0.6c-0.3-0.5-0.1-1.2,0.4-1.5l47.3-27.3c0.5-0.3,1.2-0.1,1.5,0.4
				c0.3,0.5,0.1,1.2-0.4,1.5l-47.3,27.3C413.4,331.8,413.2,331.9,413,331.9z"/>
		</g>
		<g>
			<path class="st19" d="M413.7,339.3c-0.4,0-0.8-0.2-1-0.6c-0.3-0.5-0.1-1.2,0.4-1.5l47.3-27.3c0.5-0.3,1.2-0.1,1.5,0.4
				c0.3,0.5,0.1,1.2-0.4,1.5l-47.3,27.3C414,339.2,413.9,339.3,413.7,339.3z"/>
		</g>
		<g>
			<path class="st19" d="M346.3,392.1c-0.3,0-0.5-0.1-0.7-0.4c-0.2-0.4-0.1-0.9,0.3-1.1l114.7-66.2c0.4-0.2,0.9-0.1,1.1,0.3
				c0.2,0.4,0.1,0.9-0.3,1.1L346.7,392C346.5,392.1,346.4,392.1,346.3,392.1z"/>
			<path class="st19" d="M346.3,399.2c-0.3,0-0.5-0.1-0.7-0.4c-0.2-0.4-0.1-0.9,0.3-1.1l114.7-66.2c0.4-0.2,0.9-0.1,1.1,0.3
				c0.2,0.4,0.1,0.9-0.3,1.1l-114.7,66.2C346.5,399.2,346.4,399.2,346.3,399.2z"/>
			<path class="st19" d="M346.3,406.3c-0.3,0-0.5-0.1-0.7-0.4c-0.2-0.4-0.1-0.9,0.3-1.1l114.7-66.2c0.4-0.2,0.9-0.1,1.1,0.3
				c0.2,0.4,0.1,0.9-0.3,1.1l-114.7,66.2C346.5,406.2,346.4,406.3,346.3,406.3z"/>
			<path class="st19" d="M346.3,413.3c-0.3,0-0.5-0.1-0.7-0.4c-0.2-0.4-0.1-0.9,0.3-1.1l114.7-66.2c0.4-0.2,0.9-0.1,1.1,0.3
				c0.2,0.4,0.1,0.9-0.3,1.1l-114.7,66.2C346.5,413.3,346.4,413.3,346.3,413.3z"/>
		</g>
		<g>
			<g>
				<g>
					<path class="st19" d="M346.3,381.8c-0.3,0-0.5-0.1-0.7-0.4c-0.2-0.4-0.1-0.9,0.3-1.1l60.7-35.1c0.4-0.2,0.9-0.1,1.1,0.3
						c0.2,0.4,0.1,0.9-0.3,1.1l-60.7,35.1C346.5,381.8,346.4,381.8,346.3,381.8z"/>
				</g>
			</g>
			<g>
				<path class="st11" d="M344.6,341.2c2.4,4.8,4.4,9.6,5.6,14.3c1.4,4.4,2.2,9.7,2.6,15.7c0.1,1.1,0.9,1.5,1.9,1l3.4-1.9
					c0.9-0.5,1.7-1.9,1.6-3c-0.4-5.5-1.3-10.9-2.8-16.2c-1.6-5.2-3.4-10-5.4-13.9c-0.5-1-1.7-1.3-2.7-0.7l-3.3,1.9
					C344.4,339,344.1,340.2,344.6,341.2z"/>
			</g>
			<g>
				<path class="st11" d="M354.6,327.2c3.1,4.8,5.8,10.5,8.1,17.3c1.9,5.4,3.1,11.7,3.6,19c0.1,1.1,0.9,1.5,1.8,1l3.4-1.9
					c0.9-0.5,1.7-1.9,1.6-3c-0.5-6.4-1.7-12.7-3.7-18.9c-2.1-6.4-4.8-12.1-8.1-17.2c-0.6-0.9-1.9-1.2-2.8-0.7l-3.4,1.9
					C354.3,325.1,354,326.2,354.6,327.2z"/>
			</g>
			<path class="st4" d="M376.2,336.7"/>
			<path class="st11" d="M381.2,333.8l-3.3,1.9c-0.9,0.5-1.4,1.8-1.1,2.9c1.5,5,2.6,10.7,3,17.1c0.1,1.1,0.9,1.5,1.8,1l3.4-1.9
				c0.9-0.5,1.7-1.9,1.6-3c-0.4-5.8-1.5-11.5-3.1-17C383.2,333.6,382.2,333.2,381.2,333.8z"/>
			<path class="st11" d="M394.7,320.3c-0.4-1-1.5-1.4-2.5-0.9l-3.3,1.9c-1,0.5-1.4,1.8-1,2.8c0.6,1.5,1.2,3.1,1.7,4.7
				c1.9,5.4,3.1,11.7,3.6,19c0.1,1.1,0.9,1.5,1.8,1l3.4-1.9c0.9-0.5,1.7-1.9,1.6-3c-0.5-6.4-1.7-12.7-3.7-18.9
				C395.9,323.4,395.3,321.8,394.7,320.3z"/>
			<path class="st19" d="M348.6,368.2c-0.2-0.3-0.5-0.4-0.8-0.2l-1.4,0.8c-0.3-1.9-0.7-3.9-1.1-5.8l1.9-1.1c0.3-0.2,0.4-0.5,0.2-0.8
				c-0.2-0.3-0.5-0.4-0.8-0.2l-1.6,0.9c-0.5-1.9-1-3.8-1.6-5.7l1.8-1c0.3-0.2,0.4-0.5,0.2-0.8c-0.2-0.3-0.5-0.4-0.8-0.2l-1.6,0.9
				c-0.6-1.8-1.3-3.6-2.1-5.3c0,0,0-0.1-0.1-0.1l1.8-1c0.3-0.2,0.4-0.5,0.2-0.8c-0.2-0.3-0.5-0.4-0.8-0.2l-1.7,1
				c-0.8-1.8-1.7-3.5-2.6-5.3l1.8-1c0.3-0.2,0.4-0.5,0.2-0.8c-0.2-0.3-0.5-0.4-0.8-0.2l-1.8,1c-1-1.7-2-3.3-3.1-5l2-1.2
				c0.3-0.2,0.4-0.5,0.2-0.8c-0.2-0.3-0.5-0.4-0.8-0.2l-2.1,1.2c-1.2-1.7-2.5-3.4-3.8-5.1c-0.2-0.2-0.5-0.3-0.8-0.1
				c-0.2,0.2-0.3,0.5-0.1,0.8c1.3,1.6,2.5,3.3,3.7,5l-1.9,1.1c-0.3,0.2-0.4,0.5-0.2,0.8c0.1,0.2,0.3,0.3,0.5,0.3
				c0.1,0,0.2,0,0.3-0.1l2-1.2c1.1,1.7,2.1,3.3,3.1,5l-2.2,1.3c-0.3,0.2-0.4,0.5-0.2,0.8c0.1,0.2,0.3,0.3,0.5,0.3
				c0.1,0,0.2,0,0.3-0.1l2.2-1.3c1,1.7,1.8,3.5,2.6,5.3l-2.3,1.3c-0.3,0.2-0.4,0.5-0.2,0.8c0.1,0.2,0.3,0.3,0.5,0.3
				c0.1,0,0.2,0,0.3-0.1l2.2-1.3c0,0,0,0,0,0c0.8,1.8,1.5,3.6,2.1,5.5l-2.4,1.4c-0.3,0.2-0.4,0.5-0.2,0.8c0.1,0.2,0.3,0.3,0.5,0.3
				c0.1,0,0.2,0,0.3-0.1l2.2-1.3c0.6,1.9,1.1,3.8,1.6,5.7l-2.3,1.4c-0.3,0.2-0.4,0.5-0.2,0.8c0.1,0.2,0.3,0.3,0.5,0.3
				c0.1,0,0.2,0,0.3-0.1l2.1-1.2c0.4,1.9,0.8,3.8,1.1,5.8l-2.5,1.5c-0.3,0.2-0.4,0.5-0.2,0.8c0.1,0.2,0.3,0.3,0.5,0.3
				c0.1,0,0.2,0,0.3-0.1l2.2-1.3c0.3,2.4,0.6,4.8,0.7,7.2c0,0.3,0.3,0.5,0.6,0.5c0,0,0,0,0,0c0.3,0,0.5-0.3,0.5-0.6
				c-0.1-2.6-0.4-5.2-0.8-7.8l1.8-1C348.7,368.8,348.8,368.5,348.6,368.2z"/>
		</g>
		<g>
			<g class="st17">
				<g>
					<path class="st4" d="M354.4,478.3c-0.5-4.2-0.6-8.5-0.5-12.8c0.5-1.6,7.3-25.1,19.9-32.4c0.9-0.5,1.7-0.9,2.5-1
						c0.4-0.1,0.7-0.1,1-0.1c3.3,0,4.8,4.6,6.3,9.1c0.6,1.9,1.2,3.8,2,5.4c0.9,1.8,2.3,4.2,5.1,4.2c1.1,0,2.2-0.3,3.4-1.1
						c6-3.4,7.8-12.8,9.6-22.7c0.8-4.5,1.7-9.1,3-13.1c1.8-5.8,4.2-9.3,7.5-11.2c1.1-0.6,2-0.9,2.8-0.9c3.5,0,4.8,6.2,6.1,12.3
						c0.7,3.3,1.4,6.7,2.5,9.3c1.3,2.9,3,4.3,5.1,4.3c1.1,0,2.3-0.4,3.6-1.1c7.4-4.3,9.7-11.5,11.8-18.6c1.8-6,3.6-11.6,8.5-14.4
						c1.3-0.8,2.5-1.1,3.6-1.1c0.6,0,1.1,0.1,1.6,0.3c0.2,1.9,0.2,3.3,0.2,3.4l0.1,14.2c0.1,2.7,0.3,4.9,0.6,6.7L354.4,478.3z"/>
				</g>
				<g>
					<path d="M461.7,417.2c-0.3-2.1-0.5-4.5-0.6-7.1l-0.1-14.2c0,0,0-1.7-0.3-3.9c-0.7-0.3-1.5-0.5-2.3-0.5l0,0
						c-1.2,0-2.5,0.4-4,1.3c-10.9,6.4-6.8,25.2-20.3,33c-1.2,0.7-2.3,1-3.2,1c-2,0-3.4-1.5-4.4-3.9c-3.2-7.2-3.1-22-9.4-22
						c-0.9,0-2,0.3-3.2,1c-3.9,2.3-6.2,6.5-7.8,11.7c-4,12.7-3.8,30.5-12.2,35.3c-1.2,0.7-2.2,1-3.1,1c-2,0-3.3-1.5-4.4-3.8
						c-2.6-5.5-3.5-15-9-15c-0.4,0-0.8,0-1.2,0.1c-0.8,0.2-1.7,0.5-2.7,1.1c-13.4,7.8-20.3,33-20.3,33c-0.2,4.8,0.1,9.6,0.7,14.2
						l1.6-0.9c-0.1-0.4-0.2-0.8-0.2-1.7c-0.4-3.8-0.5-7.6-0.4-11.3c0.6-2.2,7.4-24.8,19.5-31.9c0.8-0.5,1.6-0.8,2.3-0.9
						c0.3-0.1,0.6-0.1,0.8-0.1c2.8,0,4.2,4.4,5.5,8.6c0.6,1.9,1.2,3.9,2,5.5c0.5,1.2,2.2,4.7,5.8,4.7c1.2,0,2.5-0.4,3.8-1.2
						c6.4-3.6,8.1-13.1,10-23.2c0.8-4.4,1.7-9,2.9-13c1.8-5.6,4-9,7.1-10.8c0.9-0.5,1.7-0.8,2.4-0.8c2.9,0,4.2,6.2,5.3,11.7
						c0.7,3.3,1.4,6.8,2.6,9.4c1.4,3.2,3.4,4.8,5.9,4.8c1.3,0,2.6-0.4,4-1.2c7.7-4.4,10.1-12.2,12.2-19c1.8-5.8,3.5-11.3,8.1-14
						c1.2-0.7,2.3-1,3.2-1l0,0c0.3,0,0.6,0,0.9,0.1c0.2,1.6,0.2,2.7,0.2,2.8l0.1,14.3c0.1,2.5,0.3,4.5,0.5,6.2
						c0.1,0.8,0.2,1.3,0.3,1.7L461.7,417.2"/>
				</g>
			</g>
			<g class="st19">
				<path class="st11" d="M353.1,458.2v7.2c-0.1,4.9,0.1,9.6,0.6,14.2l108-62.3c-0.3-2.1-0.5-4.5-0.6-7.1l-0.1-14.2
					c0,0,0-21.2-13.5-13.4c-14.2,8.2-10.2,34.2-20.2,40c-10.2,5.9-6.7-17.3-20.2-9.6c-13.5,7.8-6.7,25.1-20.2,32.9
					c-13.5,7.8-6.7-31.5-20.2-23.7C353,429.9,353,449.2,353.1,458.2z"/>
			</g>
			<g>
				<path class="st19" d="M348.1,490.5c-0.2,0-0.4-0.1-0.5-0.3c-0.2-0.3-0.1-0.6,0.2-0.8l114.8-65.7c0.3-0.2,0.6-0.1,0.8,0.2
					c0.2,0.3,0.1,0.6-0.2,0.8l-114.8,65.8C348.3,490.5,348.2,490.5,348.1,490.5z"/>
			</g>
			<g>
				<g>
					<path class="st7" d="M366.5,425.9c-0.3,0-0.6-0.3-0.6-0.6l0-1.1c0-0.3,0.3-0.6,0.6-0.6s0.6,0.3,0.6,0.6l0,1.1
						C367.1,425.6,366.8,425.9,366.5,425.9z"/>
				</g>
				<g>
					<path class="st7" d="M366.8,469.1c-0.3,0-0.5-0.2-0.6-0.5c-0.1-0.7-0.1-1.4-0.2-2.2c0-0.3,0.2-0.6,0.5-0.6
						c0.4,0,0.6,0.2,0.6,0.5c0,0.7,0.1,1.4,0.2,2.1C367.4,468.8,367.2,469,366.8,469.1C366.9,469.1,366.9,469.1,366.8,469.1z
						 M366.6,464.8c-0.3,0-0.6-0.2-0.6-0.6c0-0.6,0-1.3,0-2.2c0-0.3,0.2-0.6,0.6-0.6c0.3-0.1,0.6,0.2,0.6,0.6c0,0.8,0,1.5,0,2.2
						C367.1,464.5,366.9,464.8,366.6,464.8C366.6,464.8,366.6,464.8,366.6,464.8z M366.5,460.4c-0.3,0-0.6-0.2-0.6-0.6l0-2.2
						c0-0.3,0.2-0.6,0.6-0.6h0c0.3,0,0.6,0.3,0.6,0.6l0,2.2C367.1,460.2,366.8,460.4,366.5,460.4
						C366.5,460.4,366.5,460.4,366.5,460.4z M366.5,456.1c-0.3,0-0.6-0.3-0.6-0.6l0-2.2c0-0.3,0.3-0.6,0.6-0.6h0
						c0.3,0,0.6,0.3,0.6,0.6l0,2.2C367.1,455.9,366.8,456.1,366.5,456.1L366.5,456.1z M366.5,451.8c-0.3,0-0.6-0.3-0.6-0.6l0-2.2
						c0-0.3,0.3-0.6,0.6-0.6s0.6,0.3,0.6,0.6l0,2.2C367.1,451.6,366.8,451.8,366.5,451.8z M366.5,447.5c-0.3,0-0.6-0.3-0.6-0.6v-2.2
						c0-0.3,0.3-0.6,0.6-0.6c0.3,0,0.6,0.3,0.6,0.6v2.2C367.1,447.2,366.8,447.5,366.5,447.5z M366.5,443.2c-0.3,0-0.6-0.3-0.6-0.6
						v-2.2c0-0.3,0.3-0.6,0.6-0.6c0.3,0,0.6,0.3,0.6,0.6v2.2C367.1,442.9,366.8,443.2,366.5,443.2z M366.5,438.8L366.5,438.8
						c-0.3,0-0.6-0.3-0.6-0.6l0-2.2c0-0.3,0.3-0.6,0.6-0.6s0.6,0.3,0.6,0.6l0,2.2C367.1,438.6,366.8,438.8,366.5,438.8z
						 M366.5,434.5L366.5,434.5c-0.3,0-0.6-0.3-0.6-0.6l0-2.2c0-0.3,0.3-0.6,0.6-0.6c0.3,0,0.6,0.3,0.6,0.6l0,2.2
						C367.1,434.3,366.8,434.5,366.5,434.5z M366.5,430.2c-0.3,0-0.6-0.3-0.6-0.6l0-2.2c0-0.3,0.3-0.6,0.6-0.6c0,0,0,0,0,0
						c0.3,0,0.6,0.2,0.6,0.6l0,2.2C367.1,430,366.8,430.2,366.5,430.2z"/>
				</g>
				<g>
					<path class="st7" d="M367.2,472.3c-0.3,0-0.5-0.2-0.6-0.5c0-0.4-0.1-0.7-0.1-1.1c0-0.3,0.2-0.6,0.5-0.6c0.3,0,0.6,0.2,0.6,0.5
						c0,0.4,0.1,0.7,0.1,1.1C367.8,472,367.6,472.3,367.2,472.3C367.2,472.3,367.2,472.3,367.2,472.3z"/>
				</g>
			</g>
			<g>
				<g>
					<path class="st7" d="M447.5,384.1c-0.3,0-0.6-0.3-0.6-0.6l0-1.1c0-0.3,0.3-0.6,0.6-0.6h0c0.3,0,0.6,0.3,0.6,0.6l0,1.1
						C448,383.9,447.8,384.1,447.5,384.1z"/>
				</g>
				<g>
					<path class="st7" d="M447.8,427.3c-0.3,0-0.5-0.2-0.6-0.5c-0.1-0.7-0.1-1.4-0.2-2.2c0-0.3,0.2-0.6,0.5-0.6
						c0.3,0,0.6,0.2,0.6,0.5c0,0.7,0.1,1.4,0.2,2.1C448.4,427,448.2,427.3,447.8,427.3C447.8,427.3,447.8,427.3,447.8,427.3z
						 M447.5,423c-0.3,0-0.6-0.2-0.6-0.6c0-0.6,0-1.3,0-2.2c0-0.3,0.2-0.6,0.6-0.6c0,0,0,0,0,0c0.3,0,0.6,0.2,0.6,0.6
						c0,0.8,0,1.5,0,2.2C448.1,422.8,447.9,423,447.5,423C447.5,423,447.5,423,447.5,423z M447.5,418.7c-0.3,0-0.6-0.2-0.6-0.6
						l0-2.2c0-0.3,0.2-0.6,0.6-0.6h0c0.3,0,0.6,0.3,0.6,0.6l0,2.2C448.1,418.4,447.8,418.7,447.5,418.7
						C447.5,418.7,447.5,418.7,447.5,418.7z M447.5,414.4c-0.3,0-0.6-0.3-0.6-0.6l0-2.2c0-0.3,0.3-0.6,0.6-0.6h0
						c0.3,0,0.6,0.3,0.6,0.6l0,2.2C448,414.1,447.8,414.4,447.5,414.4L447.5,414.4z M447.5,410c-0.3,0-0.6-0.3-0.6-0.6l0-2.2
						c0-0.3,0.3-0.6,0.6-0.6c0.3,0,0.6,0.3,0.6,0.6l0,2.2C448,409.8,447.8,410,447.5,410z M447.5,405.7c-0.3,0-0.6-0.3-0.6-0.6V403
						c0-0.3,0.3-0.6,0.6-0.6c0.3,0,0.6,0.3,0.6,0.6v2.2C448,405.5,447.8,405.7,447.5,405.7z M447.5,401.4c-0.3,0-0.6-0.3-0.6-0.6
						v-2.2c0-0.3,0.3-0.6,0.6-0.6c0.3,0,0.6,0.3,0.6,0.6v2.2C448,401.2,447.8,401.4,447.5,401.4z M447.5,397.1L447.5,397.1
						c-0.3,0-0.6-0.3-0.6-0.6l0-2.2c0-0.3,0.3-0.6,0.6-0.6c0.3,0,0.6,0.3,0.6,0.6l0,2.2C448,396.8,447.8,397.1,447.5,397.1z
						 M447.5,392.8L447.5,392.8c-0.3,0-0.6-0.3-0.6-0.6l0-2.2c0-0.3,0.3-0.6,0.6-0.6c0.3,0,0.6,0.3,0.6,0.6l0,2.2
						C448,392.5,447.8,392.8,447.5,392.8z M447.5,388.5L447.5,388.5c-0.3,0-0.6-0.3-0.6-0.6l0-2.2c0-0.3,0.3-0.6,0.6-0.6
						s0.6,0.3,0.6,0.6l0,2.2C448,388.2,447.8,388.5,447.5,388.5z"/>
				</g>
				<g>
					<path class="st7" d="M448.2,430.6c-0.3,0-0.5-0.2-0.6-0.5c0-0.4-0.1-0.7-0.1-1.1c0-0.3,0.2-0.6,0.5-0.6c0.3,0,0.6,0.2,0.6,0.5
						c0,0.4,0.1,0.7,0.1,1.1C448.8,430.2,448.5,430.5,448.2,430.6C448.2,430.6,448.2,430.6,448.2,430.6z"/>
				</g>
			</g>
			<g>
				<g>
					<path class="st7" d="M407,416.5c-0.3,0-0.6-0.3-0.6-0.6v-1.1c0-0.3,0.3-0.6,0.6-0.6s0.6,0.3,0.6,0.6v1.1
						C407.6,416.3,407.3,416.5,407,416.5z"/>
				</g>
				<g>
					<path class="st7" d="M407.3,446c-0.3,0-0.5-0.2-0.6-0.5c-0.1-0.7-0.1-1.4-0.2-2.1c0-0.3,0.2-0.6,0.5-0.6c0.4,0,0.6,0.2,0.6,0.5
						c0,0.7,0.1,1.4,0.2,2.1C407.9,445.7,407.7,446,407.3,446C407.3,446,407.3,446,407.3,446z M407,441.8c-0.3,0-0.6-0.2-0.6-0.6
						l0-2.1c0-0.3,0.2-0.6,0.6-0.6c0,0,0,0,0,0c0.3,0,0.6,0.2,0.6,0.6l0,2.1C407.6,441.5,407.4,441.8,407,441.8
						C407.1,441.8,407,441.8,407,441.8z M407,437.6c-0.3,0-0.6-0.2-0.6-0.6l0-2.1c0-0.3,0.2-0.6,0.6-0.6c0,0,0,0,0,0
						c0.3,0,0.6,0.3,0.6,0.6l0,2.1C407.6,437.3,407.3,437.6,407,437.6C407,437.6,407,437.6,407,437.6z M407,433.4
						c-0.3,0-0.6-0.3-0.6-0.6l0-2.1c0-0.3,0.3-0.6,0.6-0.6h0c0.3,0,0.6,0.3,0.6,0.6l0,2.1C407.6,433.1,407.3,433.4,407,433.4
						L407,433.4z M407,429.2c-0.3,0-0.6-0.3-0.6-0.6v-2.1c0-0.3,0.3-0.6,0.6-0.6s0.6,0.3,0.6,0.6v2.1
						C407.5,428.9,407.3,429.2,407,429.2z M407,424.9L407,424.9c-0.3,0-0.6-0.3-0.6-0.6l0-2.1c0-0.3,0.3-0.6,0.6-0.6
						c0.3,0,0.6,0.3,0.6,0.6l0,2.1C407.5,424.7,407.3,424.9,407,424.9z M407,420.7L407,420.7c-0.3,0-0.6-0.3-0.6-0.6l0-2.1
						c0-0.3,0.3-0.6,0.6-0.6s0.6,0.3,0.6,0.6l0,2.1C407.5,420.5,407.3,420.7,407,420.7z"/>
				</g>
				<g>
					<path class="st7" d="M407.7,449.2c-0.3,0-0.5-0.2-0.6-0.5c0-0.4-0.1-0.7-0.1-1.1c0-0.3,0.2-0.6,0.5-0.6c0.3,0,0.6,0.2,0.6,0.5
						c0,0.4,0.1,0.7,0.1,1.1C408.3,448.9,408.1,449.2,407.7,449.2C407.7,449.2,407.7,449.2,407.7,449.2z"/>
				</g>
			</g>
			<g>
				<path class="st19" d="M366.5,419.9c1.1-0.6,1.9-0.2,1.9,0.9c0,1.1-0.9,2.5-1.9,3.2c-1.1,0.6-1.9,0.2-1.9-0.9
					C364.6,421.9,365.4,420.5,366.5,419.9z"/>
			</g>
			<path class="st19" d="M407,410.5c1.1-0.6,1.9-0.2,1.9,0.9c0,1.1-0.9,2.5-1.9,3.2c-1.1,0.6-1.9,0.2-1.9-0.9
				C405,412.5,405.9,411.1,407,410.5z"/>
			<path class="st19" d="M447.5,380.4c1.1-0.6,1.9-0.2,1.9,0.9c0,1.1-0.9,2.5-1.9,3.2c-1.1,0.6-1.9,0.2-1.9-0.9
				C445.5,382.4,446.4,381,447.5,380.4z"/>
			<path class="st19" d="M348.9,433c0.3-0.2,0.4-0.5,0.2-0.8c-0.2-0.3-0.5-0.4-0.8-0.2l-1.5,0.8V427l2-1.2c0.3-0.2,0.4-0.5,0.2-0.8
				c-0.2-0.3-0.5-0.4-0.8-0.2l-1.5,0.8v-6.1c0-0.3-0.3-0.6-0.6-0.6c-0.3,0-0.6,0.3-0.6,0.6v6.8l-2,1.2c-0.3,0.2-0.4,0.5-0.2,0.8
				c0.1,0.2,0.3,0.3,0.5,0.3c0.1,0,0.2,0,0.3-0.1l1.5-0.9v5.8l-2,1.2c-0.3,0.2-0.4,0.5-0.2,0.8c0.1,0.2,0.3,0.3,0.5,0.3
				c0.1,0,0.2,0,0.3-0.1l1.5-0.9v5.8l-2,1.2c-0.3,0.2-0.4,0.5-0.2,0.8c0.1,0.2,0.3,0.3,0.5,0.3c0.1,0,0.2,0,0.3-0.1l1.5-0.9v5.8
				l-2,1.2c-0.3,0.2-0.4,0.5-0.2,0.8c0.1,0.2,0.3,0.3,0.5,0.3c0.1,0,0.2,0,0.3-0.1l1.5-0.9v5.8l-2,1.2c-0.3,0.2-0.4,0.5-0.2,0.8
				c0.1,0.2,0.3,0.3,0.5,0.3c0.1,0,0.2,0,0.3-0.1l1.5-0.9v5.8l-2,1.2c-0.3,0.2-0.4,0.5-0.2,0.8c0.1,0.2,0.3,0.3,0.5,0.3
				c0.1,0,0.2,0,0.3-0.1l1.5-0.9v5.8l-2,1.2c-0.3,0.2-0.4,0.5-0.2,0.8c0.1,0.2,0.3,0.3,0.5,0.3c0.1,0,0.2,0,0.3-0.1l1.5-0.9
				c0,1.9,0,3.8,0.1,5.8l-2.1,1.2c-0.3,0.2-0.4,0.5-0.2,0.8c0.1,0.2,0.3,0.3,0.5,0.3c0.1,0,0.2,0,0.3-0.1l1.6-0.9
				c0.1,2.1,0.3,4.2,0.6,6.3c0,0.3,0.3,0.5,0.6,0.5c0,0,0,0,0.1,0c0.3,0,0.5-0.3,0.5-0.6c-0.3-2.2-0.5-4.5-0.6-6.8l1.9-1.1
				c0.3-0.2,0.4-0.5,0.2-0.8c-0.2-0.3-0.5-0.4-0.8-0.2l-1.4,0.8c-0.1-1.9-0.1-3.8,0-5.8l2-1.2c0.3-0.2,0.4-0.5,0.2-0.8
				c-0.2-0.3-0.5-0.4-0.8-0.2l-1.5,0.8v-5.8l2-1.2c0.3-0.2,0.4-0.5,0.2-0.8c-0.2-0.3-0.5-0.4-0.8-0.2l-1.5,0.8v-5.8l2-1.2
				c0.3-0.2,0.4-0.5,0.2-0.8c-0.2-0.3-0.5-0.4-0.8-0.2l-1.5,0.8v-5.8l2-1.2c0.3-0.2,0.4-0.5,0.2-0.8c-0.2-0.3-0.5-0.4-0.8-0.2
				l-1.5,0.8v-5.8l2-1.2c0.3-0.2,0.4-0.5,0.2-0.8c-0.2-0.3-0.5-0.4-0.8-0.2l-1.5,0.8v-5.8L348.9,433z"/>
		</g>
		<path class="st11" d="M489.6,467.7L381.7,530c-3.8,2.2-9.3,1.9-12-0.9c-2.7-2.8-1.6-7.1,2.2-9.2l107.8-62.3
			c3.8-2.2,8.8-1.5,11.6,1.3C494,461.7,493.4,465.5,489.6,467.7z"/>
		<g>
			<g>
				<path class="st19" d="M350.1,498c-0.3,0-0.5-0.1-0.7-0.4c-0.2-0.4-0.1-0.9,0.3-1.1l121.5-70.1c0.4-0.2,0.9-0.1,1.1,0.3
					c0.2,0.4,0.1,0.9-0.3,1.1l-121.5,70.1C350.4,498,350.2,498,350.1,498z"/>
			</g>
			<g>
				<path class="st19" d="M352.6,504.6c-0.3,0-0.5-0.1-0.7-0.4c-0.2-0.4-0.1-0.9,0.3-1.1L473.7,433c0.4-0.2,0.9-0.1,1.1,0.3
					c0.2,0.4,0.1,0.9-0.3,1.1L353,504.5C352.9,504.6,352.7,504.6,352.6,504.6z"/>
			</g>
			<g>
				<path class="st19" d="M355.7,510.9c-0.3,0-0.5-0.1-0.7-0.4c-0.2-0.4-0.1-0.9,0.3-1.1l121.5-70.2c0.4-0.2,0.9-0.1,1.1,0.3
					c0.2,0.4,0.1,0.9-0.3,1.1l-121.5,70.2C355.9,510.9,355.8,510.9,355.7,510.9z"/>
			</g>
			<g>
				<path class="st19" d="M359.3,516.9c-0.3,0-0.5-0.1-0.7-0.4c-0.2-0.4-0.1-0.9,0.3-1.1l121.5-70.2c0.4-0.2,0.9-0.1,1.1,0.3
					c0.2,0.4,0.1,0.9-0.3,1.1l-121.5,70.2C359.6,516.8,359.4,516.9,359.3,516.9z"/>
			</g>
		</g>
	</g>
</g>
<path class="st11" d="M465.3,400.7l100-57.7c3.8-2.2,9.8-3.5,13.2-2.1c3.4,1.4,2.7,4.9-1,7.1l-101.1,58.4c-3.8,2.2-9.2,2.4-12.2,0.8
	C461.1,405.5,461.6,402.9,465.3,400.7z"/>
<path class="st19" d="M476.9,416.6c-0.3,0-0.5-0.1-0.7-0.4c-0.2-0.4-0.1-0.9,0.3-1.1l115.2-66.5c0.4-0.2,0.9-0.1,1.1,0.3
	c0.2,0.4,0.1,0.9-0.3,1.1l-115.2,66.5C477.2,416.5,477.1,416.6,476.9,416.6z"/>
<path class="st19" d="M481.7,421.7c-0.3,0-0.5-0.1-0.7-0.4c-0.2-0.4-0.1-0.9,0.3-1.1l115.4-66.6c0.4-0.2,0.9-0.1,1.1,0.3
	c0.2,0.4,0.1,0.9-0.3,1.1l-115.4,66.6C482,421.7,481.8,421.7,481.7,421.7z"/>
<g>
	<path class="st19" d="M500.8,480.6L500.8,480.6c-0.3,0-0.6-0.3-0.6-0.6l0-6.1c0-4.6,0-4.6-0.1-7.7l0-0.5
		c-0.4-7.5-1.8-14.5-4.1-20.8c-2-6-5.4-12-10.4-18.1c-0.2-0.2-0.2-0.6,0.1-0.8c0.2-0.2,0.6-0.2,0.8,0.1c5.1,6.3,8.5,12.3,10.6,18.5
		c2.3,6.5,3.7,13.6,4.2,21.1l0,0.5c0.1,3.1,0.1,3.1,0.1,7.8l0,6.1C501.4,480.4,501.1,480.6,500.8,480.6z"/>
</g>
<path class="st11" d="M498.2,432.5c-0.5-0.9-1.1-1.8-1.7-2.7c-0.6-0.9-0.4-2.1,0.6-2.6l44-25.4c0.9-0.5,2.2-0.3,2.8,0.7
	c0.5,0.9,1,1.8,1.5,2.7c0.5,1,0.1,2.2-0.8,2.8l-43.8,25.3C499.9,433.8,498.7,433.5,498.2,432.5z"/>
<path class="st11" d="M503.9,442.7c0.3,1,0.6,2,0.9,3c0.3,1.1,1.3,1.5,2.2,0.9l104.5-60.3c0.9-0.5,1.5-1.9,1.2-2.9
	c-0.3-1-0.6-2-0.9-3c-0.3-1-1.4-1.4-2.3-0.9L505,439.8C504.1,440.4,503.6,441.6,503.9,442.7z"/>
<path class="st20" d="M503.9,442.7c0.3,1,0.6,2,0.9,3c0.3,1.1,1.3,1.5,2.2,0.9l104.5-60.3c0.9-0.5,1.5-1.9,1.2-2.9
	c-0.3-1-0.6-2-0.9-3c-0.3-1-1.4-1.4-2.3-0.9L505,439.8C504.1,440.4,503.6,441.6,503.9,442.7z"/>
<path class="st11" d="M507,456.6c0.1,1.1,0.2,2.2,0.3,3.2c0.1,1.1,0.9,1.5,1.8,1l70.8-40.8c0.9-0.5,1.7-1.9,1.6-3
	c-0.1-1.1-0.2-2.2-0.3-3.2c-0.1-1.1-1-1.5-2-1l-70.7,40.8C507.5,454.2,506.9,455.5,507,456.6z"/>
<path class="st11" d="M507.6,471l0,3.2c0,1.1,0.8,1.5,1.7,1l30.3-17.5c0.9-0.5,1.7-1.9,1.7-3v-3.2c0-1.1-0.8-1.5-1.7-1L509.3,468
	C508.3,468.6,507.6,469.9,507.6,471z"/>
<path class="st21" d="M507.6,471l0,3.2c0,1.1,0.8,1.5,1.7,1l30.3-17.5c0.9-0.5,1.7-1.9,1.7-3v-3.2c0-1.1-0.8-1.5-1.7-1L509.3,468
	C508.3,468.6,507.6,469.9,507.6,471z"/>
<path class="st19" d="M615.5,420.7c-0.3,0-0.6,0.3-0.6,0.6v2.7l-8.1,4.7v-2c0-0.3-0.3-0.6-0.6-0.6c-0.3,0-0.6,0.3-0.6,0.6v2.7
	l-8.1,4.7v-2c0-0.3-0.3-0.6-0.6-0.6c-0.3,0-0.6,0.3-0.6,0.6v2.7l-8.1,4.7v-2c0-0.3-0.3-0.6-0.6-0.6c-0.3,0-0.6,0.3-0.6,0.6v2.6
	l-8.1,4.7v-1.9c0-0.3-0.3-0.6-0.6-0.6c-0.3,0-0.6,0.3-0.6,0.6v2.6l-8.1,4.7V448c0-0.3-0.3-0.6-0.6-0.6c-0.3,0-0.6,0.3-0.6,0.6v2.5
	l-8.1,4.7v-1.9c0-0.3-0.3-0.6-0.6-0.6c-0.3,0-0.6,0.3-0.6,0.6v2.5l-8.1,4.7v-1.8c0-0.3-0.3-0.6-0.6-0.6s-0.6,0.3-0.6,0.6v2.5
	l-8.1,4.7V464c0-0.3-0.3-0.6-0.6-0.6c-0.3,0-0.6,0.3-0.6,0.6v2.4l-8.1,4.7v-1.7c0-0.3-0.3-0.6-0.6-0.6s-0.6,0.3-0.6,0.6v2.4
	l-8.1,4.7v-1.7c0-0.3-0.3-0.6-0.6-0.6c-0.3,0-0.6,0.3-0.6,0.6v2.4l-8.1,4.7v-1.7c0-0.3-0.3-0.6-0.6-0.6c-0.3,0-0.6,0.3-0.6,0.6v2.3
	l-7,4c-0.3,0.2-0.4,0.5-0.2,0.8c0.1,0.2,0.3,0.3,0.5,0.3c0.1,0,0.2,0,0.3-0.1l6.4-3.7v2.3c0,0.3,0.3,0.6,0.6,0.6
	c0.3,0,0.6-0.3,0.6-0.6V483l8.1-4.7v2.2c0,0.3,0.3,0.6,0.6,0.6c0.3,0,0.6-0.3,0.6-0.6v-2.9l8.1-4.7v2.2c0,0.3,0.3,0.6,0.6,0.6
	s0.6-0.3,0.6-0.6v-2.9l8.1-4.7v2.2c0,0.3,0.3,0.6,0.6,0.6c0.3,0,0.6-0.3,0.6-0.6v-2.8l8.1-4.7v2.1c0,0.3,0.3,0.6,0.6,0.6
	s0.6-0.3,0.6-0.6v-2.8l8.1-4.7v2.1c0,0.3,0.3,0.6,0.6,0.6c0.3,0,0.6-0.3,0.6-0.6v-2.7l8.1-4.7v2.1c0,0.3,0.3,0.6,0.6,0.6
	c0.3,0,0.6-0.3,0.6-0.6v-2.7l8.1-4.7v2c0,0.3,0.3,0.6,0.6,0.6c0.3,0,0.6-0.3,0.6-0.6v-2.7l8.1-4.7v2c0,0.3,0.3,0.6,0.6,0.6
	c0.3,0,0.6-0.3,0.6-0.6v-2.6l8.1-4.7v2c0,0.3,0.3,0.6,0.6,0.6c0.3,0,0.6-0.3,0.6-0.6v-2.6l8.1-4.7v1.9c0,0.3,0.3,0.6,0.6,0.6
	c0.3,0,0.6-0.3,0.6-0.6v-2.6l8.1-4.7v1.9c0,0.3,0.3,0.6,0.6,0.6c0.3,0,0.6-0.3,0.6-0.6v-5.9C616.1,421,615.8,420.7,615.5,420.7z"/>
<g>
	<path class="st11" d="M527,494.8c-1.9,0.4-3.8,1.2-5.9,2.4c-11.2,6.6-20.2,23-20.2,36.7c0,0.4,0,0.7,0,1.1l20.2-9.2L527,494.8z"/>
	<path class="st11" d="M527,494.8l-5.9,30.9l20-11.6c0.1-1.3,0.2-2.5,0.2-3.7C541.3,499,535.3,493,527,494.8z"/>
	<path class="st11" d="M538.5,524.4c1.3-3.4,2.2-7,2.5-10.4l-20,11.6L538.5,524.4z"/>
	<path class="st11" d="M500.9,534.9c0.5,13,9.3,18.4,20.2,12.1c7.5-4.3,14-13.1,17.5-22.5l-17.5,1.2L500.9,534.9z"/>
</g>
<g>
	<path class="st20" d="M527,494.8l-5.9,30.9l20-11.6c0.1-1.3,0.2-2.5,0.2-3.7C541.3,499,535.3,493,527,494.8z"/>
	<path class="st17" d="M538.5,524.4c1.3-3.4,2.2-7,2.5-10.4l-20,11.6L538.5,524.4z"/>
	<path class="st21" d="M500.9,534.9c0.5,13,9.3,18.4,20.2,12.1c7.5-4.3,14-13.1,17.5-22.5l-17.5,1.2L500.9,534.9z"/>
</g>
<g>
	<path class="st22" d="M527,494.8c-1.9,0.4-3.8,1.2-5.9,2.4c-11.2,6.6-20.2,23-20.2,36.7c0,0.4,0,0.7,0,1.1l20.2-9.2L527,494.8z"/>
	<path class="st22" d="M527,494.8l-5.9,30.9l20-11.6c0.1-1.3,0.2-2.5,0.2-3.7C541.3,499,535.3,493,527,494.8z"/>
	<path class="st22" d="M538.5,524.4c1.3-3.4,2.2-7,2.5-10.4l-20,11.6L538.5,524.4z"/>
	<path class="st22" d="M500.9,534.9c0.5,13,9.3,18.4,20.2,12.1c7.5-4.3,14-13.1,17.5-22.5l-17.5,1.2L500.9,534.9z"/>
</g>
<g>
	<path class="st11" d="M586.1,462.1c-6.6,7.9-11.1,19-11.1,28.7c0,4.4,0.9,8.1,2.6,10.7l17.7-22.4L586.1,462.1z"/>
	<path class="st11" d="M604.4,451.5c-2.7-0.1-5.8,0.7-9.1,2.6c-3.3,1.9-6.4,4.7-9.1,8l9.1,17L604.4,451.5z"/>
	<path class="st11" d="M613.6,458c-1.9-4-5.2-6.3-9.2-6.5l-9.1,27.6L613.6,458z"/>
	<path class="st11" d="M613.6,458l-18.4,21.2l-17.7,22.4c3.5,5.6,10.1,7,17.7,2.6c11.2-6.5,20.2-22.9,20.2-36.7
		C615.5,463.7,614.8,460.5,613.6,458z"/>
</g>
<g>
	<path class="st20" d="M604.4,451.5c-2.7-0.1-5.8,0.7-9.1,2.6c-3.3,1.9-6.4,4.7-9.1,8l9.1,17L604.4,451.5z"/>
	<path class="st17" d="M613.6,458c-1.9-4-5.2-6.3-9.2-6.5l-9.1,27.6L613.6,458z"/>
	<path class="st21" d="M613.6,458l-18.4,21.2l-17.7,22.4c3.5,5.6,10.1,7,17.7,2.6c11.2-6.5,20.2-22.9,20.2-36.7
		C615.5,463.7,614.8,460.5,613.6,458z"/>
</g>
<g>
	<path class="st22" d="M586.1,462.1c-6.6,7.9-11.1,19-11.1,28.7c0,4.4,0.9,8.1,2.6,10.7l17.7-22.4L586.1,462.1z"/>
	<path class="st22" d="M604.4,451.5c-2.7-0.1-5.8,0.7-9.1,2.6c-3.3,1.9-6.4,4.7-9.1,8l9.1,17L604.4,451.5z"/>
	<path class="st22" d="M613.6,458c-1.9-4-5.2-6.3-9.2-6.5l-9.1,27.6L613.6,458z"/>
	<path class="st22" d="M613.6,458l-18.4,21.2l-17.7,22.4c3.5,5.6,10.1,7,17.7,2.6c11.2-6.5,20.2-22.9,20.2-36.7
		C615.5,463.7,614.8,460.5,613.6,458z"/>
</g>
<g>
	<path class="st11" d="M549.8,480.4l3.3-1.9c0.9-0.5,1.7-0.1,1.7,1l0,3.2c0,1.1-0.8,2.4-1.7,3l-3.3,1.9c-0.9,0.5-1.7,0.1-1.7-1
		l0-3.2C548,482.3,548.8,481,549.8,480.4z"/>
</g>
<g>
	<path class="st11" d="M549.8,494.7l3.3-1.9c0.9-0.5,1.7-0.1,1.7,1l0,3.2c0,1.1-0.8,2.4-1.7,3l-3.3,1.9c-0.9,0.5-1.7,0.1-1.7-1
		l0-3.2C548,496.6,548.8,495.2,549.8,494.7z"/>
	<path class="st23" d="M549.8,494.7l3.3-1.9c0.9-0.5,1.7-0.1,1.7,1l0,3.2c0,1.1-0.8,2.4-1.7,3l-3.3,1.9c-0.9,0.5-1.7,0.1-1.7-1
		l0-3.2C548,496.6,548.8,495.2,549.8,494.7z"/>
</g>
<g>
	<path class="st11" d="M549.8,509l3.3-1.9c0.9-0.5,1.7-0.1,1.7,1l0,3.2c0,1.1-0.8,2.4-1.7,3l-3.3,1.9c-0.9,0.5-1.7,0.1-1.7-1l0-3.2
		C548,510.9,548.8,509.5,549.8,509z"/>
	<path class="st24" d="M549.8,509l3.3-1.9c0.9-0.5,1.7-0.1,1.7,1l0,3.2c0,1.1-0.8,2.4-1.7,3l-3.3,1.9c-0.9,0.5-1.7,0.1-1.7-1l0-3.2
		C548,510.9,548.8,509.5,549.8,509z"/>
</g>
<g>
	<path class="st11" d="M549.8,523.3l3.3-1.9c0.9-0.5,1.7-0.1,1.7,1l0,3.2c0,1.1-0.8,2.4-1.7,3l-3.3,1.9c-0.9,0.5-1.7,0.1-1.7-1
		l0-3.2C548,525.1,548.8,523.8,549.8,523.3z"/>
	<path class="st25" d="M549.8,523.3l3.3-1.9c0.9-0.5,1.7-0.1,1.7,1l0,3.2c0,1.1-0.8,2.4-1.7,3l-3.3,1.9c-0.9,0.5-1.7,0.1-1.7-1
		l0-3.2C548,525.1,548.8,523.8,549.8,523.3z"/>
</g>
<g>
	<path class="st19" d="M558.2,480.1c-0.4,0-0.8-0.2-1-0.6c-0.3-0.5-0.1-1.2,0.4-1.5l10.1-5.8c0.5-0.3,1.2-0.1,1.5,0.4
		c0.3,0.5,0.1,1.2-0.4,1.5l-10.1,5.8C558.6,480,558.4,480.1,558.2,480.1z"/>
</g>
<g>
	<path class="st19" d="M558,494.5c-0.4,0-0.8-0.2-1-0.6c-0.3-0.5-0.1-1.2,0.4-1.5l10.1-5.8c0.5-0.3,1.2-0.1,1.5,0.4
		c0.3,0.5,0.1,1.2-0.4,1.5l-10.1,5.8C558.4,494.5,558.2,494.5,558,494.5z"/>
</g>
<g>
	<path class="st19" d="M557.9,508.9c-0.4,0-0.8-0.2-1-0.6c-0.3-0.5-0.1-1.2,0.4-1.5l10.1-5.8c0.5-0.3,1.2-0.1,1.5,0.4
		c0.3,0.5,0.1,1.2-0.4,1.5l-10.1,5.8C558.3,508.9,558.1,508.9,557.9,508.9z"/>
</g>
<g>
	<path class="st19" d="M557.7,523.4c-0.4,0-0.8-0.2-1-0.6c-0.3-0.5-0.1-1.2,0.4-1.5l10.1-5.8c0.5-0.3,1.2-0.1,1.5,0.4
		c0.3,0.5,0.1,1.2-0.4,1.5l-10.1,5.8C558.1,523.3,557.9,523.4,557.7,523.4z"/>
</g>
<g>
	<g>
		<path class="st19" d="M502.1,574.1c-0.4,0-0.8-0.2-1-0.6c-0.3-0.5-0.1-1.2,0.4-1.5l47.2-27.3c0.5-0.3,1.2-0.1,1.5,0.4
			c0.3,0.5,0.1,1.2-0.4,1.5L502.7,574C502.5,574.1,502.3,574.1,502.1,574.1z"/>
	</g>
	<g>
		<path class="st19" d="M503.6,581.1c-0.4,0-0.8-0.2-1-0.6c-0.3-0.5-0.1-1.2,0.4-1.5l47.2-27.3c0.5-0.3,1.2-0.1,1.5,0.4
			c0.3,0.5,0.1,1.2-0.4,1.5l-47.2,27.3C504,581,503.8,581.1,503.6,581.1z"/>
	</g>
	<g>
		<path class="st19" d="M505.8,587.9c-0.4,0-0.8-0.2-1-0.6c-0.3-0.5-0.1-1.2,0.4-1.5l47.2-27.3c0.5-0.3,1.2-0.1,1.5,0.4
			c0.3,0.5,0.1,1.2-0.4,1.5l-47.2,27.3C506.2,587.8,506,587.9,505.8,587.9z"/>
	</g>
</g>
<g>
	<g>
		<path class="st19" d="M576.2,531.3c-0.4,0-0.8-0.2-1-0.6c-0.3-0.5-0.1-1.2,0.4-1.5l47.2-27.3c0.5-0.3,1.2-0.1,1.5,0.4
			c0.3,0.5,0.1,1.2-0.4,1.5l-47.2,27.3C576.6,531.3,576.4,531.3,576.2,531.3z"/>
	</g>
	<g>
		<path class="st19" d="M577.7,538.3c-0.4,0-0.8-0.2-1-0.6c-0.3-0.5-0.1-1.2,0.4-1.5l47.2-27.3c0.5-0.3,1.2-0.1,1.5,0.4
			c0.3,0.5,0.1,1.2-0.4,1.5l-47.2,27.3C578.1,538.3,577.9,538.3,577.7,538.3z"/>
	</g>
	<g>
		<path class="st19" d="M579.9,545.1c-0.4,0-0.8-0.2-1-0.6c-0.3-0.5-0.1-1.2,0.4-1.5l47.2-27.3c0.5-0.3,1.2-0.1,1.5,0.4
			c0.3,0.5,0.1,1.2-0.4,1.5l-47.2,27.3C580.3,545,580.1,545.1,579.9,545.1z"/>
	</g>
</g>
<path class="st11" d="M517.3,595.5l107.7-62.1c3.8-2.2,8.5-1.2,10.8,1.9c2.3,3.2,1.4,7.3-2.4,9.5l-107.7,62.1
	c-3.8,2.2-9,1.6-11.3-1.5C512,602.2,513.5,597.7,517.3,595.5z"/>
<g>
	<g>
		<path class="st19" d="M536.5,626c-0.4,0-0.8-0.2-1-0.6c-0.3-0.5-0.1-1.2,0.4-1.5l47.2-27.2c0.5-0.3,1.2-0.1,1.5,0.4
			c0.3,0.5,0.1,1.2-0.4,1.5l-47.2,27.2C536.9,625.9,536.7,626,536.5,626z"/>
	</g>
	<g>
		<path class="st19" d="M530.6,621.8c-0.4,0-0.8-0.2-1-0.6c-0.3-0.5-0.1-1.2,0.4-1.5l47.2-27.2c0.5-0.3,1.2-0.1,1.5,0.4
			c0.3,0.5,0.1,1.2-0.4,1.5l-47.2,27.2C531,621.7,530.8,621.8,530.6,621.8z"/>
	</g>
	<g>
		<path class="st19" d="M542.7,629.6c-0.4,0-0.8-0.2-1-0.6c-0.3-0.5-0.1-1.2,0.4-1.5l47.2-27.2c0.5-0.3,1.2-0.1,1.5,0.4
			c0.3,0.5,0.1,1.2-0.4,1.5l-47.2,27.2C543.1,629.6,542.9,629.6,542.7,629.6z"/>
	</g>
</g>
<g>
	<g>
		<path class="st19" d="M603.9,587.1c-0.4,0-0.8-0.2-1-0.6c-0.3-0.5-0.1-1.2,0.4-1.5l47.2-27.2c0.5-0.3,1.2-0.1,1.5,0.4
			c0.3,0.5,0.1,1.2-0.4,1.5l-47.2,27.2C604.3,587,604.1,587.1,603.9,587.1z"/>
	</g>
	<g>
		<path class="st19" d="M598,582.9c-0.4,0-0.8-0.2-1-0.6c-0.3-0.5-0.1-1.2,0.4-1.5l47.2-27.2c0.5-0.3,1.2-0.1,1.5,0.4
			c0.3,0.5,0.1,1.2-0.4,1.5l-47.2,27.2C598.4,582.8,598.2,582.9,598,582.9z"/>
	</g>
	<g>
		<path class="st19" d="M610.1,590.7c-0.4,0-0.8-0.2-1-0.6c-0.3-0.5-0.1-1.2,0.4-1.5l47.2-27.2c0.5-0.3,1.2-0.1,1.5,0.4
			c0.3,0.5,0.1,1.2-0.4,1.5l-47.2,27.2C610.5,590.7,610.3,590.7,610.1,590.7z"/>
	</g>
</g>
<g>
	<path class="st11" d="M610.9,624.7c-10.3-5.9-27.6-5.5-38.8,1c-11.2,6.4-11.9,16.5-1.7,22.4c10.3,5.9,27.6,5.5,38.8-1
		C620.4,640.7,621.1,630.6,610.9,624.7z M603.9,644c-8,4.6-20.4,4.9-27.7,0.7c-7.3-4.2-6.8-11.4,1.2-16c8-4.6,20.4-4.9,27.7-0.7
		C612.4,632.3,611.9,639.4,603.9,644z"/>
	<path class="st11" d="M582.7,631.8c4.8-2.8,12.2-2.9,16.6-0.4c4.4,2.5,4.1,6.8-0.7,9.6c-4.8,2.8-12.2,2.9-16.6,0.4
		C577.6,638.8,577.9,634.6,582.7,631.8z"/>
</g>
<path class="st26" d="M582.7,631.8c4.8-2.8,12.2-2.9,16.6-0.4c4.4,2.5,4.1,6.8-0.7,9.6c-4.8,2.8-12.2,2.9-16.6,0.4
	C577.6,638.8,577.9,634.6,582.7,631.8z"/>
<path class="st17" d="M610.9,624.7c-10.3-5.9-27.6-5.5-38.8,1c-11.2,6.4-11.9,16.5-1.7,22.4c10.3,5.9,27.6,5.5,38.8-1
	C620.4,640.7,621.1,630.6,610.9,624.7z M603.9,644c-8,4.6-20.4,4.9-27.7,0.7c-7.3-4.2-6.8-11.4,1.2-16c8-4.6,20.4-4.9,27.7-0.7
	C612.4,632.3,611.9,639.4,603.9,644z"/>
<g>
	<path class="st11" d="M580.9,621.7l2.3,4.2c4.5-1,9.4-1.1,13.7-0.3l3.2-4.3C594.1,620.1,587.2,620.3,580.9,621.7z"/>
	<path class="st20" d="M580.9,621.7l2.3,4.2c4.5-1,9.4-1.1,13.7-0.3l3.2-4.3C594.1,620.1,587.2,620.3,580.9,621.7z"/>
</g>
<g>
	<path class="st19" d="M592,619.7C592,619.7,592,619.7,592,619.7c-0.7,0-1.2-0.6-1.1-1.2l0.3-5.2l20.8-12c0.5-0.3,1.2-0.1,1.5,0.4
		c0.3,0.5,0.1,1.2-0.4,1.5l-19.7,11.4l-0.2,3.9C593.1,619.2,592.6,619.7,592,619.7z"/>
</g>
<g>
	<path class="st11" d="M671.5,589.7c-10.3-5.9-27.6-5.5-38.8,1c-11.2,6.4-11.9,16.5-1.7,22.4c10.3,5.9,27.6,5.5,38.8-1
		C681.1,605.6,681.8,595.6,671.5,589.7z M664.6,609c-8,4.6-20.4,4.9-27.7,0.7c-7.3-4.2-6.8-11.4,1.2-16c8-4.6,20.4-4.9,27.7-0.7
		C673.1,597.3,672.6,604.4,664.6,609z"/>
	<path class="st11" d="M643.4,596.8c4.8-2.8,12.2-2.9,16.6-0.4c4.4,2.5,4.1,6.8-0.7,9.6c-4.8,2.8-12.2,2.9-16.6,0.4
		C638.2,603.8,638.6,599.5,643.4,596.8z"/>
</g>
<path class="st26" d="M643.4,596.8c4.8-2.8,12.2-2.9,16.6-0.4c4.4,2.5,4.1,6.8-0.7,9.6c-4.8,2.8-12.2,2.9-16.6,0.4
	C638.2,603.8,638.6,599.5,643.4,596.8z"/>
<path class="st17" d="M671.5,589.7c-10.3-5.9-27.6-5.5-38.8,1c-11.2,6.4-11.9,16.5-1.7,22.4c10.3,5.9,27.6,5.5,38.8-1
	C681.1,605.6,681.8,595.6,671.5,589.7z M664.6,609c-8,4.6-20.4,4.9-27.7,0.7c-7.3-4.2-6.8-11.4,1.2-16c8-4.6,20.4-4.9,27.7-0.7
	C673.1,597.3,672.6,604.4,664.6,609z"/>
<g>
	<path class="st20" d="M671.5,589.7c-8.7-5-22.4-5.5-33.2-1.6l3.7,3.8c7.7-2.8,17.5-2.4,23.7,1.1c1.1,0.7,2.1,1.4,2.8,2.2l6.9-2.5
		C674.4,591.6,673.1,590.6,671.5,589.7z"/>
</g>
<g>
	<path class="st19" d="M652.9,584.5C652.9,584.5,652.8,584.5,652.9,584.5c-0.7,0-1.2-0.6-1.1-1.2l0.3-5.2l20.8-12
		c0.5-0.3,1.2-0.1,1.5,0.4c0.3,0.5,0.1,1.2-0.4,1.5l-19.7,11.4l-0.2,4C654,584.1,653.5,584.5,652.9,584.5z"/>
</g>
<g>
	<g>
		<path class="st19" d="M598.4,661.8c-0.4,0-0.8-0.2-1-0.6c-0.3-0.5-0.1-1.2,0.4-1.5l114.7-66.2c0.5-0.3,1.2-0.1,1.5,0.4
			c0.3,0.5,0.1,1.2-0.4,1.5L599,661.6C598.8,661.7,598.6,661.8,598.4,661.8z"/>
	</g>
	<g>
		<path class="st19" d="M604.6,665.4c-0.4,0-0.8-0.2-1-0.6c-0.3-0.5-0.1-1.2,0.4-1.5l114.7-66.2c0.5-0.3,1.2-0.1,1.5,0.4
			c0.3,0.5,0.1,1.2-0.4,1.5l-114.7,66.2C605,665.3,604.8,665.4,604.6,665.4z"/>
	</g>
	<g>
		<path class="st19" d="M610.8,668.9c-0.4,0-0.8-0.2-1-0.6c-0.3-0.5-0.1-1.2,0.4-1.5l114.7-66.2c0.5-0.3,1.2-0.1,1.5,0.4
			c0.3,0.5,0.1,1.2-0.4,1.5l-114.7,66.2C611.2,668.9,611,668.9,610.8,668.9z"/>
	</g>
</g>
</svg>
