<?xml version="1.0" encoding="utf-8"?>
<!-- Generator: Adobe Illustrator 24.2.3, SVG Export Plug-In . SVG Version: 6.00 Build 0)  -->
<svg version="1.1" id="baed4b18-14ee-447f-bd84-b0265ca0ad8a"
	 xmlns="http://www.w3.org/2000/svg" xmlns:xlink="http://www.w3.org/1999/xlink" x="0px" y="0px" viewBox="0 0 1049.6 678.6"
	 style="enable-background:new 0 0 1049.6 678.6;" xml:space="preserve">
<style type="text/css">
	.st0{fill:#FFFFFF;}
	.st1{fill:#EBF3FA;}
	.st2{fill:#233862;}
	.st3{fill:#2A4E96;}
	.st4{fill:#AEC3FF;}
	.st5{fill:#FFB27D;}
	.st6{fill:#ED7D2B;}
	.st7{fill:#F99746;}
	.st8{fill:#E2915A;}
	.st9{fill:#DB6516;}
	.st10{fill:#9DB0F4;}
	.st11{fill:#163560;}
	.st12{fill:#ED975D;}
	.st13{fill:#2B478B;}
	.st14{fill:#6BB7BF;}
	.st15{fill:#86D1CD;}
	.st16{fill:#F1A34F;}
	.st17{fill:#DB7714;}
	.st18{fill:#5685D8;}
	.st19{fill:#739AF0;}
	.st20{fill:#A9453D;}
	.st21{fill:#2E3552;}
</style>
<rect x="-1249.1" y="1505.3" class="st0" width="1192.7" height="745.4"/>
<g>
	<g>
		<path class="st1" d="M-1105.1,2179.2l317.6-1.7l84.7,0l28,0l84.8,0l387.5-0.1c0,0,88.6-114.7-6-223.7
			c-98.2-113-145.9-21-176.1-180c-76-400.3-826.9-167.3-630,173.3C-943.6,2069.6-1154.1,2004.4-1105.1,2179.2z"/>
		<g>
			<path class="st2" d="M-737.7,2159.9c0,0,1.2,14-1.7,15.4l-37.8-0.1c0,0,0-4.4,6.1-5.3c6.1-1,16.7-4.5,18.5-12.4
				C-750.8,2149.5-737.7,2159.9-737.7,2159.9z"/>
			<path class="st2" d="M-629.3,2154.5c0,0,1.1,19.4-1.8,20.8l-37.8-0.1c0,0,0-4.4,6.1-5.3c6.1-1,16.7-4.5,18.5-12.4
				C-642.5,2149.5-629.3,2154.5-629.3,2154.5z"/>
			<path class="st3" d="M-628.1,2156.9c0,0-7.5,3.9-10.7,4.6c-3.6,0.8-10.3,0.3-10.3,0.3c-12.8-34.4-52.7-174.4-52.7-174.4
				c-1.7,38.7-8.7,77.3-16,108.3c-0.2,0.8-0.4,1.7-0.6,2.5v0c-0.2,0.7-0.4,1.5-0.5,2.2c0,0,0,0.1,0,0.1
				c-8.8,36.6-17.6,61.6-17.6,61.6s-2.3,2.9-8.6,1.6c-7.3-1.5-9.7-4.7-9.7-4.7c4.7-149.1,7.3-233.2,7.3-233.2s63-34.1,80.2-4.9
				C-650.2,1949.8-628.1,2156.9-628.1,2156.9z"/>
			<path class="st4" d="M-653.5,1940.8c-8.2-29.2-9.5-57-9.5-79.9c0.1-32.7,3-55.7-6.8-59.6c0,0-30.4-8.8-51.3-12.7
				c-3.3-1.8-7-3.8-9.8-4.9c-6.6-2.7-32.4-40.1-36.7-49.1s-11.6-48-11.6-48l-10,3.2c0,0-3,43.8-1.6,55.3c1.4,11.4,33.3,60.6,36,64.9
				l0,0c11.4,41.5,0,109,5.2,124.1c2.7,7.7,52.2,21.9,79.3,20.2c1.3-0.1,2.6-0.2,3.9-0.4c0,0,0,0,0,0c6.4-0.9,11.1-2.9,12.8-6.5
				C-652.9,1945.4-652.8,1943.3-653.5,1940.8z"/>
			<path class="st5" d="M-779.2,1686.5c0,0,5.7-16.5,1.5-17c-4.1-0.5-14.6-0.4-15.8,2.4c-1.3,2.8,4.3,17.8,4.3,17.8L-779.2,1686.5z"
				/>
			<g>
				<g>
					<g>
						<path class="st6" d="M-887.2,1727.6l-33.5-20.2c1.5-2.5,3.8-4.1,6.4-4.7c2.6-0.6,5.4-0.3,7.9,1.2c2.2,1.3,5,0.6,6.3-1.6
							l9.1-15l7.8,4.7l-9.1,15c-0.7,1.1-0.8,2.3-0.5,3.5c0.3,1.1,1,2.2,2.1,2.8c2.5,1.5,4.1,3.8,4.7,6.4
							C-885.4,1722.3-885.7,1725.1-887.2,1727.6z"/>
						<path class="st7" d="M-887.2,1727.6l-22.3-13.5c-5.2-4.3-2.6-8-0.1-8.6c2.6-0.6,5.4-0.3,7.9,1.2c2.2,1.3,5,0.6,6.3-1.6l9.1-15
							l3.1,1.9l-9.1,15c-0.7,1.1-0.8,2.3-0.5,3.5c0.3,1.1,1,2.2,2.1,2.8c2.5,1.5,4.1,3.8,4.7,6.4
							C-885.4,1722.3-885.7,1725.1-887.2,1727.6z"/>
						<path class="st7" d="M-789.3,1630l-27.1,34.2c-9.4,15.6-25.7,23-41.3,23.7c0,0,0,0,0,0c-5.3,0.2-10.6-0.4-15.4-1.7
							c-4-1.1-8.6,1.1-11.2,5.3l-0.5,0.9c-1.6,2.6-2.9,4.8-2.9,4.8l-5.7-3.5c0,0,1.3-2.2,2.9-4.8c2.8-4.6,2.6-10.2-0.4-13.7
							c-13-14.6-17.9-38.7-5.5-59.3l18.3-39.4L-789.3,1630z"/>
						<g>
							<path class="st6" d="M-902.6,1643.4c2.2-12.8-4-19.8-10.5-27.2c-5.2-5.9-10.7-12-11.8-21.1c-1.3-10.1,3.4-20.4,11.7-25.6
								c6.3-4,13.2-4.1,19.1-0.4c8.3,5.3,11.4,15.6,8.9,29.8c-1.8,10.2-5.7,18.7-5.9,19.1l-5.2-2.4c0.1-0.3,14.5-31.8-0.9-41.6
								c-5.3-3.4-10.4-1.2-12.9,0.4c-6.3,4-10,12.2-9,20c0.9,7.3,5.5,12.5,10.4,18c6.8,7.7,14.6,16.4,11.9,31.9L-902.6,1643.4z"/>
						</g>
						<g>
							<path class="st7" d="M-838,1682.5c10.3-7.9,19.4-5.7,28.9-3.3c7.7,1.9,15.6,3.9,24.2,0.7c9.5-3.5,16.5-12.5,17.2-22.2
								c0.6-7.4-2.5-13.6-8.5-17.1c-8.6-4.9-19.1-2.8-30.5,6c-8.2,6.3-13.9,13.7-14.2,14.1l4.6,3.5c0.2-0.3,21.4-27.6,37.3-18.5
								c5.5,3.1,5.9,8.6,5.7,11.6c-0.6,7.5-6.2,14.6-13.5,17.3c-6.9,2.6-13.7,0.9-20.8-0.9c-10-2.5-21.3-5.3-33.8,4.3L-838,1682.5z"
								/>
						</g>
						<path class="st6" d="M-857.7,1687.8c-5.3,0.2-10.6-0.4-15.4-1.7c-4-1.1-8.6,1.1-11.2,5.3l-0.5,0.9c-2,1-3.5,2.3-4.2,4
							l-4.4-2.7c0,0,1.3-2.2,2.9-4.8c2.8-4.6,2.6-10.2-0.4-13.7c-13-14.6-17.9-38.7-5.5-59.3l18.3-39.4l14.7,8.9
							C-863.3,1585.2-922.9,1665.9-857.7,1687.8z"/>
						<path class="st7" d="M-884.1,1700.5l-14.6-8.8c-2-1.2-2.6-3.8-1.4-5.8l0,0c1.2-2,3.8-2.6,5.8-1.4l14.6,8.8
							c2,1.2,2.6,3.8,1.4,5.8l0,0C-879.5,1701-882.1,1701.7-884.1,1700.5z"/>
					</g>
					<g>
						<path class="st0" d="M-879.6,1651.4l1.6-2.6c7.4,4,8.4,3.5,11.4-1.5l15.3-25.4c2.2-3.6,1.1-4.6-1.6-6.7l-1.9-1.6l1.4-2.3
							c5.8,2.6,12.7,4.9,17.7,5.9l-21.6,35.8c-3.1,5.2-3.1,6.1,3.8,10.7l-1.6,2.6L-879.6,1651.4z"/>
					</g>
				</g>
			</g>
			<path class="st5" d="M-793.5,1671.9c0,0-0.5,5.7,1.3,6.7c1.8,1.1,2.5-6.7,2.5-6.7s0.1,6.4,1.5,6.8c1.4,0.4,2.2-7.4,2.2-7.4
				s0.1,6.2,1.1,6c0.9-0.2,1.6-6,1.6-6s0.4,4.5,1.7,3.7c1.3-0.8,2.5-5.6,2.5-5.6L-793.5,1671.9z"/>
			<path class="st5" d="M-779.2,1686.5c0,0,3.9-3,4.7-5.8c0.9-2.8,3.4-7.5,2-8c-1.3-0.6-5.2,5.5-5.2,5.5L-779.2,1686.5z"/>
			<path class="st5" d="M-712,1784l-0.5,2.5c0,0-2.3,7.8,7.3,10.9c9.5,3.1,17.6,4.5,18.5-1.6c0.1-4.9-0.1-12.6,0.6-16.5
				c0.3-1.5,0.7-3,1.3-4.7l-18.8-4.1l-5.7-0.2L-712,1784z"/>
			<path class="st8" d="M-709.4,1770.3l-1.8,9.2c17.9,4.7,25.7-3.2,26.3-4.9l-18.8-4.1L-709.4,1770.3z"/>
			<path class="st5" d="M-682,1770.8c-5.5,11.3-20.8,6.6-27.2,4c-1.8-0.7-2.9-1.3-2.9-1.3c-1.9-1.2-2.2-4.8-1.5-9.3
				c1.3-8.9,6.2-21.1,8.6-23.9c3.5-4.2,9.1-8.3,23.5-0.2C-667.1,1748.1-674.9,1756.3-682,1770.8z"/>
			<path class="st2" d="M-706.6,1727.6c0,0,6.9,1.4,16,0.1c7.3-1,14.6,4.4,16.9,6.6c0-0.4,0-1.1-0.2-1.8c0,0,1,1.2,0.8,2.4
				c0.1,0.1,0.1,0.2,0.1,0.2c0,0,1.4,0.1,2.2,0.8c0,0-0.6-0.3-0.9,0.1c0,0-0.1,0.1-0.1,0.1c8.8,7.8,5.2,24.1,0.9,26.9
				c-5.2,3.4-14.1,12.6-14.1,12.6s0.3-3.4,2.1-7.1c1.8-3.7-1.6-4.7-5.4-7.7c-3.8-3,1.2-7-1.7-11.1c-2.9-4.1-17.2-6.2-16.3-8.4
				C-711,1737.9-706.8,1728.1-706.6,1727.6z"/>
			<path class="st0" d="M-704.3,1766.6c0,0-0.9,1.4-4.6-0.3c0,0-3.1-1.4-2.4-3C-711.4,1763.4-707.8,1763.3-704.3,1766.6z"/>
			<path class="st6" d="M-708.5,1804.7c0,0-8.6,57-72.8,96.5l-6,17.4h23.2c0,0,57.5-48.2,61.4-112.3L-708.5,1804.7z"/>
			<polygon class="st9" points="-708.5,1804.7 -708.5,1796.1 -697.9,1799.1 -702.8,1806.4 			"/>
			<path class="st10" d="M-712,1784l-6.2,5.3c0,0-1.7,7.4,2.5,15.4l12.5-7.1C-703.2,1797.6-710.6,1794-712,1784z"/>
			<path class="st10" d="M-703.2,1797.6c0,0,1.2,6.7,4.5,10c0,0,14.1-2.5,18-9.2l-5.9-9.2C-686.7,1789.2-688.1,1795.5-703.2,1797.6z
				"/>
			<path class="st5" d="M-618.9,1945.3c0,0,0,12.8-1.1,15.3c-1.2,2.5-6.4,10.8-8.9,12.6c-2.4,1.8,0.5-10.2-0.2-12.4
				c-0.8-2.2-1.7,4.3-2.8,4.6c-1.1,0.3-1.4-5.5-1.7-7.6s4.8-7.8,6.3-12.4C-625.9,1940.7-618.9,1945.3-618.9,1945.3z"/>
			<path class="st4" d="M-669.9,1801.2c0,0,12.4,3.4,20.8,21.8c8.8,19.3,32.3,62.3,33.2,68.2c0.9,5.9-1.6,61.3-1.6,61.3
				s-10.3,0.4-13.5-4.5c0,0-3.6-48.6-5.2-51.3c-1.6-2.6-42.1-51-38.7-63.2C-671.5,1821.4-669.9,1801.2-669.9,1801.2z"/>
			<path class="st10" d="M-653.7,1947.2c-3.1,2.6-7.2,4.9-12.8,6.5c0,0,0,0,0,0c-1.4,0.4-2.7,0.5-3.9,0.4
				c-22.6-2.3-19.2-90.3-8.2-96.8c11.6-6.9,15.7,3.6,15.7,3.6c-0.1,23,1.3,50.7,9.5,79.9C-652.8,1943.3-652.9,1945.4-653.7,1947.2z"
				/>
			<path class="st2" d="M-718.8,2100.3c0.1-0.7,0.3-1.4,0.5-2.2C-718.4,2098.9-718.6,2099.6-718.8,2100.3z"/>
			<path class="st2" d="M-717.7,2095.6c6.9-32.8-0.5-120.6,2.8-122.3c3.4-1.7,13.2,14,13.2,14
				C-703.4,2026-710.4,2064.6-717.7,2095.6z"/>
		</g>
		<g>
			<polygon class="st5" points="-887.1,2162.6 -889.1,2148.2 -880.7,2141.2 -878,2160.3 			"/>
			<path class="st2" d="M-859.2,2175.4h-34.2c0,0-0.8-5.2,1-9.2c1.7-3.8,4.4-6.1,4.6-9c2.2,2.2,4.8,3.7,9.8,3c0.6,1,3.9,6.2,5.9,7.7
				C-869.9,2169.5-859.9,2169-859.2,2175.4z"/>
			<path class="st7" d="M-866.1,1968.4c-2.2,18-4.1,34.9-5.6,50.8c-8,84.2-6.4,135.7-6.4,135.7s-0.6,1.5-5.5,1.5
				c-2.8,0-5.5-0.6-5.5-0.6s-17.8-55-16.4-86.3c0.2-3.8,0.6-7.2,1.4-10.1c4.3-16-15.8-77.2,6-100.1
				C-876.3,1936.5-865.1,1960.1-866.1,1968.4z"/>
			<path class="st6" d="M-866.1,1968.4c-2.2,18-4.1,34.9-5.6,50.8l-33.9,50.4c0.2-3.8,0.6-7.2,1.4-10.1c4.3-16-15.8-77.2,6-100.1
				C-876.3,1936.5-865.1,1960.1-866.1,1968.4z"/>
			<path class="st5" d="M-839.2,1796.8c0,0-0.8-4.1-1.8-7.2c-0.4-1.4,2.5-10.5,4.4-11.6c2-1.1,7.1,5,5.7,9.7c-0.7,2.4-2,10.3-2,10.3
				L-839.2,1796.8z"/>
			<path class="st5" d="M-839.2,1796.8c0,0-1.1-2.4-2-2.8c-1-0.4-2-4.3-2.7-5.8c0,0,0.7-1,1.9,0.3c0.7,0.8,2.4,3.1,2.4,3.1
				L-839.2,1796.8z"/>
			<path class="st5" d="M-980.3,1810.6c-0.2,0.4-0.5,1.2-0.8,1.9c0-0.2,0-0.4,0-0.6c0-1.4-5.4-9.3-7.6-9.8c-2.2-0.5-5.4,6.9-2.6,11
				c1.4,2.1,4.9,9.3,4.9,9.3l5.8-3c0,0,0.3-2.6,1.1-3.2c0.8-0.7,0.7-4.7,0.9-6.4C-978.6,1809.8-979.6,1809-980.3,1810.6z"/>
			<path class="st5" d="M-944.4,2158.3c-0.5-4.6-0.6-16.7-0.6-16.7s12.4-4,11.9-1.2c-2.2,13.3-1.6,19.9-1.6,19.9l-5,3L-944.4,2158.3
				z"/>
			<path class="st7" d="M-876.4,1967.5c0,0-47.7,130.9-57.1,187.6c0,0-2.2,1.5-6.2,1c-4.6-0.6-5.9-3.8-5.9-3.8s-8.6-68,8.5-91.7
				c11.8-16.2-5.1-87.5,22.4-93.2C-887.3,1961.8-876.4,1967.5-876.4,1967.5z"/>
			<path class="st11" d="M-884.9,1841.7C-884.9,1841.7-884.9,1841.7-884.9,1841.7c0-0.1,0-0.1,0-0.2c-0.3-1.2-0.6-2.3-0.9-3.4
				c0,0,0,0,0,0c-1-3.4-2.2-6.7-3.5-9.6c-0.7-1.7-1.5-3.2-2.3-4.6c-0.1-0.2-0.2-0.4-0.3-0.6l0,0c-1.8-3.1-3.7-5.2-5.5-5.9
				c-3.1-1.2-6.6-0.9-9-0.4c0.5-0.7,1.7-1.1,1.7-1.1c-1.5,0-4.6,2-4.6,2c-22-4.9-20.7,26.2-19.2,33.2c1.5,7.1-5.6,10.5-15.6,17.7
				c-19.1,13.8-18.7,28.4-18.7,28.4c0.2,0.1,0.4,0.2,0.6,0.3c0.8-1.9,2.4-5.5,4.1-6.2c0,0.2-1.4,4.8-1.8,7.4
				c2.9,1.6,6.9,4.1,11.3,6.9c0,0,0,0,0,0c5.8,3.7,12.3,8,17.4,11.5c-0.2-1.4-0.5-3.4-0.1-4.6l1.6,5.1l0.2,0.7
				c3.3,2.2,5.9,4,7.2,4.9c0.1,0.1,0.3,0.2,0.4,0.2c0.4,0.3,0.6,0.4,0.6,0.4c-0.4-1.8,1.5-6.5,4.7-12.4c0.2-0.4,0.5-0.8,0.7-1.3
				c1-1.9,2.2-3.8,3.5-5.9c0.5-0.7,0.9-1.5,1.4-2.2c0,0,0,0,0,0c0.4-0.6,0.8-1.2,1.2-1.8l0,0c0.9-1.4,1.9-2.9,2.9-4.4
				c2.6-3.8,5.3-7.5,7.9-11c3.9-5,7.7-9.4,10.9-12.2c0.1-0.2,0.2-0.4,0.3-0.7c0.5-1.2,0.9-2.4,1.2-3.8c0.1-0.4,0.2-0.8,0.2-1.2
				c0.8-4.2,0.8-8.3,0.8-9.3c0.3,4,0.2,7.1-0.1,9.4c-0.1,0.5-0.1,1-0.2,1.4l0,0c-0.2,1-0.4,1.8-0.6,2.5c0.5-0.6,1-1.4,1.4-2.1
				c0.3-0.5,0.5-1,0.7-1.6C-882,1860.7-882.7,1850.9-884.9,1841.7z"/>
			<path class="st5" d="M-889,1873.2c0.1,0-6.2,4.5-11.4,3.9c-5-0.6-9-6.3-8.9-6.3c2-0.7,2.1-3.6,0.3-15.5l0.9,0l15.8,0.8
				c0,0,0.4,4.9,1,9.5C-890.7,1869.3-889.9,1872.9-889,1873.2z"/>
			<path class="st12" d="M-892.3,1856c0,0,0.4,4.9,1,9.5c-8.6,1-14.4-6.1-16.9-10.2L-892.3,1856z"/>
			<path class="st11" d="M-910,1853.8c0,0-5.6-6.5-7.6-12.4c-1.4-4.2-1.6-20.7,14.9-20.8c0,0,4.8-0.2,9.6,2.1
				c3.9,1.9,9.7,6.2,6.1,21.1l-0.8,5L-910,1853.8z"/>
			<path class="st0" d="M-864.1,1965c0,0-20.6,12.2-46.5,5.9c-0.3-0.1-21.3-3.4-21.3-3.4c0.4-1,3.1-17.2,3.4-18.1
				c4.6-11.8,13-76.1,20-79.3c1.8,1.9,6.9,3.3,11.3,2.9c5-0.4,6.7-2.6,6.3-5c5.6,2.6,9.9,5.1,9.9,5.1
				C-875.9,1880.8-864.1,1965-864.1,1965z"/>
			<path class="st5" d="M-888.8,1859.9c0,0-20.3,3.4-22.2-9.3c-1.9-12.7-5.8-20.8,7.1-23.5c12.9-2.7,16.1,1.8,17.8,5.9
				C-884.5,1837.1-883.6,1858.7-888.8,1859.9z"/>
			<path class="st11" d="M-894.7,1825.4c0,0-3.4,15.7-11.6,19.2c-8.2,3.5-12.3,1.7-12.3,1.7s5.8-6.2,5.8-15.5
				C-912.8,1830.9-900,1819-894.7,1825.4z"/>
			<path class="st11" d="M-895.9,1826.9c0,0,4.7,2.7,6.2,5.8c1.5,3.1,2.9,9.7,4.8,9.1c0,0,2.7-10.7-2.9-15.8
				C-893.7,1820.7-895.9,1826.9-895.9,1826.9z"/>
			<path class="st13" d="M-832.7,1797.1c-0.8-0.3-2-1-3.6-1.1c-1.4-0.1-3.2,0.3-3.2,0.3s-5.7,35.6-6.2,37.5
				c-0.4,1.9-24.6,29.1-31.1,29c-5.9-0.1-12.8,4.4-14.1,5.3c0,0,13.7,29,14.4,34.4c0.7,5.9,7.8,97,7.8,97s-0.4,4.2,7.5,2
				c7.9-2.3,9.9-4.2,9.9-4.2s-7.3-71.7-8.8-94.1c-0.2-3-0.7-5.8-1.4-8.3c-0.7-2.5-0.1-5.1,1.4-7.2c10-13.7,25.8-36,26.7-40.8
				C-832.1,1840.1-832.7,1797.1-832.7,1797.1z"/>
			<path class="st2" d="M-915.9,2175.4h-34.2c0,0-0.8-5.2,1-9.2c1.7-3.8,4.4-6.1,4.6-9c2.2,2.2,4.8,3.7,9.8,3c0.6,1,3.9,6.2,5.9,7.7
				C-926.6,2169.5-916.6,2169-915.9,2175.4z"/>
			<path class="st13" d="M-892.4,1905.3c-1.2-7.1-15.9-35.6-15.9-35.6s-9.3-2.8-15.4-0.6c-6.1,2.2-37.8-15.7-38.8-17.3
				c-1-1.6-18-33.3-18-33.3s-1.4-0.8-3.7,0.4c-2.2,1.2-2.2,3.4-2.2,3.4s13.1,39.8,16.6,46c2.1,3.7,19.8,16.6,33.5,26.3
				c2.6,1.8,4,5,3.6,8.2c-1.8,13.6-2.3,21.3-4.4,44.6c-1.8,19.4-2.4,56.9-2.4,56.9s15.3,5.3,25.9,6c10.6,0.7,12.9-10.4,12.9-10.4
				S-891.2,1912.6-892.4,1905.3z"/>
			<path class="st0" d="M-895.5,1853.6c0,0,2.5,1.4,5.4,1c2-0.3,2.4-2.7,2.4-2.7s-1.4-0.4-3.6,0
				C-893.4,1852.4-895.5,1853.6-895.5,1853.6z"/>
		</g>
		<g>
			<path class="st11" d="M-499.9,1851c0,0,6.3,10.4-5.6,16.9c0,0,9.1,3.3,12.3,2c0,0-0.8,0.8-1.4,1.1c0,0,8.6,2.7,12.8,1.2
				c4.3-1.5,13.5-43-11.8-45.2c0,0-19.9-7.1-24.2,15.1c-4.2,22.3-11.9,20.1-11.9,20.1s1.9,1.6,2.9,1.9c0,0,1.7-0.1,2.2-0.8
				c0,0-0.6,1.1-1.1,1.4c0,0,8.1,3.1,13,1.3S-500,1855.8-499.9,1851z"/>
			<path class="st2" d="M-525.3,2178.5h32.3c0,0,0.8-4.9-0.9-8.6c-1.6-3.6-4.1-5.8-4.4-8.5c-2,2.1-4.6,3.5-9.2,2.8
				c-0.6,0.9-3.7,5.9-5.6,7.3C-515.2,2172.9-524.6,2172.4-525.3,2178.5z"/>
			<path class="st13" d="M-498.6,2166.2c0,0-2.8,0.9-5.6,1.1c-5.1,0.5-5.8-1.1-5.8-1.1s-5.1-45-21.4-130.9
				c-2.4-12.4-3.3-19.3-4.1-30.3c-0.3-3.3-0.5-7-0.8-11.3c-0.7-11.6,1-31.1,9.7-36.2c4-2.3,9.3-1.7,16.6,4c0.6,0.4,1.2,0.9,1.7,1.4
				c21.2,18.3,12.5,70.9,13.4,95.7c0.1,4.1,0.5,7.4,1.4,9.7c1.1,3,3.4,7.1,4,10.9C-485.2,2111.4-498.6,2166.2-498.6,2166.2z"/>
			<path class="st2" d="M-495,2058.7l-40.6-53.7c-0.3-3.3-0.5-7-0.8-11.3c-0.7-11.6,1-31.1,9.7-36.2l16.6,4c0.6,0.4,1.2,0.9,1.7,1.4
				C-487.2,1981.3-495.9,2034-495,2058.7z"/>
			<path class="st2" d="M-380.2,2110.6l-13.4-29.3c0,0-4.8,1.3-7.5,4.4c-2.6,3-4.5,2.4-10.3-1.7c2.2,3.4,2.5,5.4,3.9,9.9
				c1.1,0.1,7.2,6.1,13.5,7.7C-391.5,2102.3-386,2112.5-380.2,2110.6z"/>
			<path class="st13" d="M-521,1970.4c0,0,28.9,100.5,39.5,107c10.6,6.5,66.3,15.4,77.6,20.2c0,0,1.4-2,0.6-6.2
				c-0.2-0.9-1.8-4.3-1.8-4.3s-34.6-26-57.4-28.6c-5.6-0.7,11.5-86.9-26.7-90.4C-524,1965-521,1970.4-521,1970.4z"/>
			<path class="st5" d="M-562.3,1805.5c0,0,0.8-3.9,1.7-6.8c0.4-1.3-2.3-9.9-4.2-11c-1.9-1.1-6.7,4.7-5.4,9.2
				c0.7,2.3,1.9,9.7,1.9,9.7L-562.3,1805.5z"/>
			<path class="st5" d="M-562.3,1805.5c0,0,1-2.2,1.9-2.6c0.9-0.4,1.9-4,2.6-5.5c0,0-0.7-1-1.8,0.3c-0.7,0.7-2.2,2.9-2.2,2.9
				L-562.3,1805.5z"/>
			<path class="st5" d="M-429.1,1818.6c0.2,0.4,0.5,1.1,0.7,1.8c0-0.2,0-0.4,0-0.6c0-1.4,5.1-8.8,7.2-9.3c2.1-0.5,5.1,6.5,2.4,10.3
				c-1.3,2-4.6,8.7-4.6,8.7l-5.4-2.8c0,0-0.3-2.4-1.1-3.1c-0.8-0.6-0.6-4.4-0.9-6C-430.7,1817.8-429.8,1817.1-429.1,1818.6z"/>
			<path class="st5" d="M-515.2,1877.6c-0.1,0,5.8,4.3,10.8,3.7c4.7-0.6,8.5-6,8.4-6c-1.9-0.7-2-3.4-0.3-14.6l-0.9,0l-14.9,0.7
				c0,0-0.3,4.6-1,8.9C-513.6,1873.9-514.3,1877.3-515.2,1877.6z"/>
			<path class="st12" d="M-512.1,1861.4c0,0-0.3,4.6-1,8.9c8.2,1,13.5-5.8,15.9-9.6L-512.1,1861.4z"/>
			<path class="st11" d="M-495.4,1859.3c0,0,5.3-6.1,7.1-11.7c1.3-4,1.5-19.5-14.1-19.6c0,0-4.5-0.2-9.1,2
				c-3.7,1.7-9.2,5.9-5.8,19.9l0.7,4.7L-495.4,1859.3z"/>
			<path class="st5" d="M-534,1966.6c0,0,14.6,9.2,39,3.3c0.3-0.1,13.9-2.2,13.9-2.2c-0.3-0.9-14.6-24.5-15-25.4
				c-4.3-11.2,5.7-64.5-0.9-67.5c-1.7,1.8-6.5,3.1-10.6,2.7c-4.8-0.4-6.3-2.5-6-4.7c-5.3,2.5-9.3,4.8-9.3,4.8
				C-527.6,1884.8-534,1966.6-534,1966.6z"/>
			<path class="st5" d="M-515.4,1865.1c0,0,19.2,3.2,21-8.8c1.8-12,5.5-19.6-6.7-22.1c-12.2-2.5-15.2,1.7-16.8,5.5
				C-519.5,1843.5-520.4,1863.9-515.4,1865.1z"/>
			<path class="st11" d="M-509.9,1832.6c0,0,3.2,14.8,10.9,18.1c7.8,3.3,11.6,1.6,11.6,1.6s-5.5-5.8-5.5-14.6
				C-492.8,1837.7-504.9,1826.5-509.9,1832.6z"/>
			<path class="st11" d="M-508.7,1833.9c0,0-4.4,2.5-5.8,5.5c-1.4,2.9-2.8,9.1-4.6,8.6c0,0-2.5-10.1,2.7-14.9
				C-510.8,1828.1-508.7,1833.9-508.7,1833.9z"/>
			<path class="st7" d="M-424.6,1829.7c0,0-12.4,37.6-15.6,43.4c-2,3.5-24.2,17.4-37.2,26.5c-0.1,0.1-0.3,0.3-0.5,0.6c0,0,0,0,0,0
				c-3.2,5-13.2,35.8-10.9,41.4c10.1,23.3,17,32.3,19.5,38.8c1.3,3.3-0.4,6.9-3.7,8.1c-4.1,1.5-10.2,3.3-17.4,4.6
				c-1.4,0.2-2.8,0.4-4.2,0.6c-19.9,2.5-33.3-2.1-40.1-5.6c-3.2-1.6-5.2-5-5-8.6c0.4-7.4,4.1-14.7,5.8-32.4
				c1.3-13.4-10.3-33.9-9.8-41c0.2-2.8,2.4-6.2,3.6-8.4c0,0,0,0,0,0c2.1-3.9,3.3-7.4,1.9-9.3c-9.4-13-29.9-30.9-30.7-35.3
				c-1.2-6.6-0.7-47.1-0.7-47.1c0.8-0.3,1.9-0.9,3.4-1.1c1.3-0.1,3,0.3,3,0.3s5.4,33.6,5.8,35.4c0.4,1.8,23.2,27.4,29.3,27.3
				c5.5-0.1,13.4,4.2,14.6,5c0,0-5,8.8-6.2,20.7c-0.9,8.3,4.7,4.6,8.2-1.1c4.7-7.7,14.3-18.7,14.3-18.7s7.8-2,13.5,0.1
				c5.8,2.1,35.7-14.8,36.6-16.3c1-1.6,17-31.4,17-31.4s1.3-0.8,3.5,0.3C-424.6,1827.5-424.6,1829.7-424.6,1829.7z"/>
			<path class="st0" d="M-509.9,1858.6c0,0-0.8,1.7-1.9,1.7c-1.1,0-3.9-0.2-4.1-0.5c-0.2-0.3-0.7-2-0.7-2
				S-511.9,1857.5-509.9,1858.6z"/>
			<path class="st6" d="M-473,1988.4c-4.1,1.5-10.2,3.3-17.4,4.6c-6.9-9.4-18.4-21.3-15.5-43.2c3.1-22.6,25.3-46.4,28-49.7
				c-3.2,5-13.2,35.8-10.9,41.4c10.1,23.3,17,32.3,19.5,38.8C-468,1983.6-469.7,1987.3-473,1988.4z"/>
			<path class="st6" d="M-540.2,1897.6c2.1-3.9,3.3-7.4,1.9-9.3c-9.4-13-29.9-30.9-30.7-35.3c2,4.9,26.7,19.3,33.7,25.6
				C-528.4,1884.7-539.9,1897.3-540.2,1897.6z"/>
		</g>
		<g>
			<path class="st14" d="M-954.9,1718.8c0,0,4.6,6.3,4.1,13.6c-0.4,5.4-5.2,10.8-5.5,11l7.6,4c0,0,5.6-9.9,3.7-18.3
				c-0.6-2.5-3.3-6.6-5.2-8.4C-952.4,1718.7-954.9,1718.8-954.9,1718.8z"/>
			<path class="st15" d="M-970.4,1719.4l-4.8-10.6c0,0,22.3,0.8,29.7,18.9C-945.4,1727.8-961,1716.7-970.4,1719.4z"/>
		</g>
		<g>
			<path class="st14" d="M-1054.7,1988.5c0,0-5.3-4-6.7-10c-1-4.5,1.5-10,1.7-10.3l-7.1-1.4c0,0-2.1,9.5,1.5,15.8
				c1.1,1.9,4.3,4.6,6.3,5.6C-1056.7,1989.2-1054.7,1988.5-1054.7,1988.5z"/>
			<path class="st15" d="M-1042.3,1984.2l6.5,7.4c0,0-18.3,4.9-28.8-8.1C-1064.6,1983.5-1049.2,1988.7-1042.3,1984.2z"/>
		</g>
		<g>
			<path class="st16" d="M-238.5,2023.1c0,0-0.5-7,12.6-10.3c5.9-1.5,18.9,1.2,10.7,14c-8.6,13.4-16.3,8.5-16.3,8.5
				s18-14.1,10.8-20.5c-7.9-7.1-11,7-11,7S-235,2021.6-238.5,2023.1z"/>
			<path class="st17" d="M-233.9,2036.1c0,0-4.9-2.7-3-8.5l7,1.2c0,0-2.7,6.4,3.9,7.1C-225.9,2035.9-232.3,2037.5-233.9,2036.1z"/>
		</g>
		<g>
			<path class="st18" d="M-693.1,1662c0,0,7.3-10.5,18.5-3.1l6.8-6.5c0,0-6.4-4.8-21.1,3.8C-698.4,1662-693.1,1662-693.1,1662z"/>
			<path class="st19" d="M-700.3,1672.4c0,0-1.4-12.1,18.8-19.6c0,0-7.3,3.5-9.6,15.6L-700.3,1672.4z"/>
		</g>
		<path class="st7" d="M-618.9,1608.2c0,0,6-3.8,6.6-8.3c0,0,5.8,0.3,7.1,2.2c0,0-2.7,7.6-5.8,9
			C-611.1,1611.1-618.2,1611.5-618.9,1608.2z"/>
		<path class="st7" d="M-811.5,2039.3c0,0-6.4-4-7.1-8.9c0,0-6.2,0.3-7.6,2.4c0,0,2.9,8.1,6.2,9.6
			C-819.9,2042.3-812.3,2042.9-811.5,2039.3z"/>
		<path class="st15" d="M-549.5,1727.3c0,0,6.4-4,7.1-8.9c0,0,6.2,0.3,7.6,2.4c0,0-2.9,8.1-6.2,9.6
			C-541.1,1730.3-548.7,1730.8-549.5,1727.3z"/>
		<g>
			<path class="st5" d="M-424.8,1912.9c0,0-3.7-4.5-5.7-5.1c-2-0.6-5.8-3.6-6.4-2.4c-0.5,1.2,2.6,3.1,2.4,4.5
				c-0.2,1.4-9.8,3.7-9.8,5.2c0.1,1.5,2.3,5.1,6,4.7c3.7-0.4,13.1-2.6,15-1.7C-421.3,1919-424.8,1912.9-424.8,1912.9z"/>
			<path class="st4" d="M-324.9,1891c-5.5,7.3-11.9,13.1-18.4,17.7c-20.9,14.5-43.6,16.7-43.6,16.7c-5.4-1.7-22.1-3.6-32-5.1h0
				c-4.3-0.7-7.3-1.3-7.5-1.9l0.2-8.6c0,0,36.2-1.9,42.2-4.7c9.4-8.1,17.8-18.7,23.2-27c4.6-7,9.7-12.1,18.2-15.1
				C-330.3,1858.6-308,1868.2-324.9,1891z"/>
			<path class="st10" d="M-341.5,1903.3l-1.8,5.4c-20.9,14.5-43.6,16.7-43.6,16.7c-4.4,0-22.1-3.6-32-5.1c0.4,0,26.8,2.1,32.7,1.5
				c5.9-0.6,33.3-24.4,33.3-24.4L-341.5,1903.3z"/>
			<path class="st2" d="M-365.2,2175.4h40c2.9-1.9-0.8-20.9-0.8-20.9s-10.9-4.1-12.8,4.3c-1.9,8.4-13.9,11.1-20.3,12.1
				C-363.4,2171.6-364.7,2174-365.2,2175.4z"/>
			<path class="st2" d="M-305.9,2175.4h40c2.9-1.9-0.8-20.9-0.8-20.9s-10.9-4.1-12.8,4.3c-1.9,8.4-13.9,11.1-20.3,12.1
				C-304,2171.6-305.4,2174-305.9,2175.4z"/>
			<path class="st13" d="M-354.4,1981.6c0,0,1.8,22.4,3.9,49.4c2.9,36.6,10.6,127.4,10.6,127.4s5.1,4.3,16.3,2
				c0,0,9.6-31.3,12.4-67.1c0-0.6,0.1-1.2,0.1-1.8c2.7-36.4,6.8-113,6.8-113L-354.4,1981.6z"/>
			<path class="st2" d="M-355,1973.9c0,0,2.4,30.2,4.5,57.1l39.4,62.3c0-0.6,0.1-1.2,0.1-1.8c2.7-36.4,6.8-113,6.8-113L-355,1973.9z
				"/>
			<path class="st13" d="M-343.5,1973.9c0,0,28.6,71.1,37.7,98c6.5,19.2,24.8,86.5,24.8,86.5s8,2.4,14.7-2.3c0,0,6.8-68.8-7-88.2
				c-7.3-10.3-1.8-107-31.5-107.8C-334.4,1959.4-343.5,1973.9-343.5,1973.9z"/>
			<path class="st5" d="M-330.8,1869.1c4.4,2.3,8.6,2.4,12.3,1.7c3.4-0.7,6.3-2.2,8.3-3.5c2.1-1.4,3.4-2.5,3.4-2.5s-0.1-0.2-0.4-0.6
				c-1.3-2.2-5.2-10.1-3.5-22.8c0-0.2-1.2,0.1-3.1,0.5c-5.7,1.3-17.1,4.6-17.6,4.7c0,0,0,0,0,0s-0.1,2.7-0.6,7.5
				c0,0.4-0.1,0.9-0.1,1.3c-0.1,0.6-0.1,1.2-0.2,1.8C-332.8,1862-330.8,1869.1-330.8,1869.1z"/>
			<path class="st12" d="M-332,1853.9c8.5,1.9,21.1-10.5,21.1-10.5c-0.9-0.7-1.9-1.2-2.9-1.6c-5.7,1.3-17.1,4.6-17.6,4.7
				c0,0,0,0,0,0S-331.5,1849.1-332,1853.9z"/>
			<path class="st5" d="M-334.8,1845.8c0,0,3.5,1.2,7.9,1.8c6.5,0.9,15,0.4,17.7-7.5c4.5-13.2,10.3-21.1-3-26.5
				c-7.1-2.9-11.7-3-14.7-1.9c-2.7,1-4.3,2.9-5.5,4.7C-335,1820.5-340.2,1843.5-334.8,1845.8z"/>
			<path class="st20" d="M-342.9,1817.5c7.7,5.5,18.3,0.1,21.6,1.6c3.3,1.5,3.9,7,4,8.8c0.1,1.8,0.3,3.2,4.8,2.2
				c0.7-0.2,1.3-0.1,1.6,0.1c1.9,1.1-0.5,6.5-1.2,7.6c0,0-1,3.8,1.3,5.7c0.3,0.2,4.8,2.2,15.6-14.4c1.7-2.6,3.3-8.5,0.7-14.1
				c-2.6-5.6-13.6-11.1-22.9-14c-3.5-1.1-6.1-1-8.1-0.3c-3.4,1.2-5.2,4.4-7,7.6C-335.6,1813.6-342.9,1817.5-342.9,1817.5z"/>
			<path class="st4" d="M-293.4,1978.9c0,0-3.7,0.8-8.4,1.6c-4.6,0.8-10.2,1.5-14.1,1.5c-20.1-0.2-36.8-6.1-36.8-6.1
				c-3.8,0-5.5-5.8-6.1-14c-0.4-5.5-0.3-12.1,0-18.6c0.1-2.1,0.2-4.2,0.3-6.3c0.3-4.1,0.6-8.1,0.9-11.6c0.3-3.3,0.5-6.2,0.6-8.4
				c0,0-0.5-15.6-0.3-29.3c0.2-9.9,5.7-18.8,7.1-20.3c4-4.2,15.6-6.9,18-7.3c0.2,0,0.3,0,0.3,0c9.6,5.4,22.4-1.9,22.4-1.9
				c0.3,0,0.6,0.1,0.9,0.2c0.9-0.2,10.6,1.2,12.9,2.5c5.6,3,8.8,36.7,8.8,36.7c0.9,22.8-0.2,59.4,1.6,73.4
				C-284.9,1975.4-289.4,1977.9-293.4,1978.9z"/>
			<path class="st10" d="M-308.8,1858.4c0,0-14.2,14.7-24.4,11.7c0,0-1.4-2,3.2-2.6C-325.4,1866.8-320.5,1867-308.8,1858.4z"/>
			<path class="st0" d="M-334.9,1837.3c0,0-0.3,1.7,3.7,3.1c0,0,3.3,1.1,3.9-0.6C-327.3,1839.7-329.9,1837.2-334.9,1837.3z"/>
			<path class="st10" d="M-301,1914c0,0-20.7,34.6-32.4,40.7c-7.9,4.1-19.1,6.3-25.4,7.3c-0.4-5.5-0.3-12.1,0-18.6
				c8.4-1,21.2-2.6,21.2-2.6L-301,1914z"/>
			<path class="st10" d="M-328.3,1896.6l-11,39.8c0,0-13,0.8-19.2,0.6c0.3-4.1,0.3-4.3,0.6-7.8
				C-358,1929.2-343.1,1921.5-328.3,1896.6z"/>
			<path class="st5" d="M-394.7,1939.3c0,0-3.7-4.5-5.7-5.1c-2-0.6-5.9-3.6-6.4-2.4c-0.5,1.2,2.6,3.1,2.4,4.5
				c-0.2,1.4-9.8,3.7-9.8,5.2c0.1,1.5,2.3,5.1,6,4.7c3.7-0.4,13.1-2.6,15-1.7C-391.2,1945.5-394.7,1939.3-394.7,1939.3z"/>
			<path class="st4" d="M-286,1884.1c0,0,0.7,21.1-47.4,63.4l-9.7-17.3c-1.8-1,31.1-71.6,40.5-71.1
				C-284.3,1860.2-286,1884.1-286,1884.1z"/>
			<path class="st4" d="M-337.3,1928.1c0,0-54.7,6.2-56.7,7.3c-2,1.1-6.4,5.3-4.9,10.6c0,0,28.3,3.6,43.9,3.5
				c13.4-0.1,22.1-2.2,22.1-2.2L-337.3,1928.1z"/>
		</g>
		<path class="st21" d="M-140.7,2178.5h-1027c-0.7,0-1.3-0.6-1.3-1.3v-0.7c0-0.7,0.6-1.3,1.3-1.3h1027c0.7,0,1.3,0.6,1.3,1.3v0.7
			C-139.4,2177.9-140,2178.5-140.7,2178.5z"/>
	</g>
</g>
<g>
	<g>
		<path class="st1" d="M72.4,658.1l317.6-1.7l84.7,0l28,0l84.8,0l387.5-0.1c0,0,88.6-114.7-6-223.7c-98.2-113-145.9-21-176.1-180
			C717-147.7-33.9,85.3,163,425.9C234,548.5,23.4,483.3,72.4,658.1z"/>
		<g>
			<path class="st2" d="M439.8,638.8c0,0,1.2,14-1.7,15.4l-37.8-0.1c0,0,0-4.4,6.1-5.3c6.1-1,16.7-4.5,18.5-12.4
				C426.7,628.4,439.8,638.8,439.8,638.8z"/>
			<path class="st2" d="M548.2,633.4c0,0,1.1,19.4-1.8,20.8l-37.8-0.1c0,0,0-4.4,6.1-5.3c6.1-1,16.7-4.5,18.5-12.4
				C535,628.4,548.2,633.4,548.2,633.4z"/>
			<path class="st3" d="M549.5,635.7c0,0-7.5,3.9-10.7,4.6c-3.6,0.8-10.3,0.3-10.3,0.3c-12.8-34.4-52.7-174.4-52.7-174.4
				c-1.7,38.7-8.7,77.3-16,108.3c-0.2,0.8-0.4,1.7-0.6,2.5v0c-0.2,0.7-0.4,1.5-0.5,2.2c0,0,0,0.1,0,0.1
				c-8.8,36.6-17.6,61.6-17.6,61.6s-2.3,2.9-8.6,1.6c-7.3-1.5-9.7-4.7-9.7-4.7c4.7-149.1,7.3-233.2,7.3-233.2s63-34.1,80.2-4.9
				C527.4,428.7,549.5,635.7,549.5,635.7z"/>
			<path class="st4" d="M524.1,419.7c-8.2-29.2-9.5-57-9.5-79.9c0.1-32.7,3-55.7-6.8-59.6c0,0-30.4-8.8-51.3-12.7
				c-3.3-1.8-7-3.8-9.8-4.9c-6.6-2.7-32.4-40.1-36.7-49.1c-4.4-9-11.6-48-11.6-48l-10,3.2c0,0-3,43.8-1.6,55.3
				c1.4,11.4,33.3,60.6,36,64.9l0,0c11.4,41.5,0,109,5.2,124.1c2.7,7.7,52.2,21.9,79.3,20.2c1.3-0.1,2.6-0.2,3.9-0.4c0,0,0,0,0,0
				c6.4-0.9,11.1-2.9,12.8-6.5C524.6,424.3,524.8,422.2,524.1,419.7z"/>
			<path class="st5" d="M398.3,165.4c0,0,5.7-16.5,1.5-17c-4.1-0.5-14.6-0.4-15.8,2.4c-1.3,2.8,4.3,17.8,4.3,17.8L398.3,165.4z"/>
			<g>
				<g>
					<g>
						<path class="st6" d="M290.3,206.5l-33.5-20.2c1.5-2.5,3.8-4.1,6.4-4.7c2.6-0.6,5.4-0.3,7.9,1.2c2.2,1.3,5,0.6,6.3-1.6l9.1-15
							l7.8,4.7l-9.1,15c-0.7,1.1-0.8,2.3-0.5,3.5c0.3,1.1,1,2.2,2.1,2.8c2.5,1.5,4.1,3.8,4.7,6.4C292.2,201.2,291.8,204,290.3,206.5
							z"/>
						<path class="st7" d="M290.3,206.5L268.1,193c-5.2-4.3-2.6-8-0.1-8.6c2.6-0.6,5.4-0.3,7.9,1.2c2.2,1.3,5,0.6,6.3-1.6l9.1-15
							l3.1,1.9l-9.1,15c-0.7,1.1-0.8,2.3-0.5,3.5c0.3,1.1,1,2.2,2.1,2.8c2.5,1.5,4.1,3.8,4.7,6.4C292.2,201.2,291.8,204,290.3,206.5
							z"/>
						<path class="st7" d="M388.3,108.9L361.2,143c-9.4,15.6-25.7,23-41.3,23.7c0,0,0,0,0,0c-5.3,0.2-10.6-0.4-15.4-1.7
							c-4-1.1-8.6,1.1-11.2,5.3l-0.5,0.9c-1.6,2.6-2.9,4.8-2.9,4.8l-5.7-3.5c0,0,1.3-2.2,2.9-4.8c2.8-4.6,2.6-10.2-0.4-13.7
							c-13-14.6-17.9-38.7-5.5-59.3l18.3-39.4L388.3,108.9z"/>
						<g>
							<path class="st6" d="M274.9,122.3c2.2-12.8-4-19.8-10.5-27.2c-5.2-5.9-10.7-12-11.8-21.1c-1.3-10.1,3.4-20.4,11.7-25.6
								c6.3-4,13.2-4.1,19.1-0.4c8.3,5.3,11.4,15.6,8.9,29.8c-1.8,10.2-5.7,18.7-5.9,19.1l-5.2-2.4c0.1-0.3,14.5-31.8-0.9-41.6
								c-5.3-3.4-10.4-1.2-12.9,0.4c-6.3,4-10,12.2-9,20c0.9,7.3,5.5,12.5,10.4,18c6.8,7.7,14.6,16.4,11.9,31.9L274.9,122.3z"/>
						</g>
						<g>
							<path class="st7" d="M339.5,161.4c10.3-7.9,19.4-5.7,28.9-3.3c7.7,1.9,15.6,3.9,24.2,0.7c9.5-3.5,16.5-12.5,17.2-22.2
								c0.6-7.4-2.5-13.6-8.5-17.1c-8.6-4.9-19.1-2.8-30.5,6c-8.2,6.3-13.9,13.7-14.2,14.1l4.6,3.5c0.2-0.3,21.4-27.6,37.3-18.5
								c5.5,3.1,5.9,8.6,5.7,11.6c-0.6,7.5-6.2,14.6-13.5,17.3c-6.9,2.6-13.7,0.9-20.8-0.9c-10-2.5-21.3-5.3-33.8,4.3L339.5,161.4z"
								/>
						</g>
						<path class="st6" d="M319.8,166.7c-5.3,0.2-10.6-0.4-15.4-1.7c-4-1.1-8.6,1.1-11.2,5.3l-0.5,0.9c-2,1-3.5,2.3-4.2,4l-4.4-2.7
							c0,0,1.3-2.2,2.9-4.8c2.8-4.6,2.6-10.2-0.4-13.7c-13-14.6-17.9-38.7-5.5-59.3l18.3-39.4l14.7,8.9
							C314.2,64.1,254.6,144.8,319.8,166.7z"/>
						<path class="st7" d="M293.4,179.4l-14.6-8.8c-2-1.2-2.6-3.8-1.4-5.8l0,0c1.2-2,3.8-2.6,5.8-1.4l14.6,8.8
							c2,1.2,2.6,3.8,1.4,5.8l0,0C298,179.9,295.4,180.6,293.4,179.4z"/>
					</g>
					<g>
						<path class="st0" d="M297.9,130.2l1.6-2.6c7.4,4,8.4,3.5,11.4-1.5l15.3-25.4c2.2-3.6,1.1-4.6-1.6-6.7l-1.9-1.6l1.4-2.3
							c5.8,2.6,12.7,4.9,17.7,5.9l-21.6,35.8c-3.1,5.2-3.1,6.1,3.8,10.7l-1.6,2.6L297.9,130.2z"/>
					</g>
				</g>
			</g>
			<path class="st5" d="M384,150.8c0,0-0.5,5.7,1.3,6.7c1.8,1.1,2.5-6.7,2.5-6.7s0.1,6.4,1.5,6.8c1.4,0.4,2.2-7.4,2.2-7.4
				s0.1,6.2,1.1,6c0.9-0.2,1.6-6,1.6-6s0.4,4.5,1.7,3.7c1.3-0.8,2.5-5.6,2.5-5.6L384,150.8z"/>
			<path class="st5" d="M398.3,165.4c0,0,3.9-3,4.7-5.8c0.9-2.8,3.4-7.5,2-8c-1.3-0.6-5.2,5.5-5.2,5.5L398.3,165.4z"/>
			<path class="st5" d="M465.5,262.9l-0.5,2.5c0,0-2.3,7.8,7.3,10.9c9.5,3.1,17.6,4.5,18.5-1.6c0.1-4.9-0.1-12.6,0.6-16.5
				c0.3-1.5,0.7-3,1.3-4.7l-18.8-4.1l-5.7-0.2L465.5,262.9z"/>
			<path class="st8" d="M468.2,249.2l-1.8,9.2c17.9,4.7,25.7-3.2,26.3-4.9l-18.8-4.1L468.2,249.2z"/>
			<path class="st5" d="M495.5,249.7c-5.5,11.3-20.8,6.6-27.2,4c-1.8-0.7-2.9-1.3-2.9-1.3c-1.9-1.2-2.2-4.8-1.5-9.3
				c1.3-8.9,6.2-21.1,8.6-23.9c3.5-4.2,9.1-8.3,23.5-0.2C510.4,227,502.6,235.2,495.5,249.7z"/>
			<path class="st2" d="M470.9,206.5c0,0,6.9,1.4,16,0.1c7.3-1,14.6,4.4,16.9,6.6c0-0.4,0-1.1-0.2-1.8c0,0,1,1.2,0.8,2.4
				c0.1,0.1,0.1,0.2,0.1,0.2c0,0,1.4,0.1,2.2,0.8c0,0-0.6-0.3-0.9,0.1c0,0-0.1,0.1-0.1,0.1c8.8,7.8,5.2,24.1,0.9,26.9
				c-5.2,3.4-14.1,12.6-14.1,12.6s0.3-3.4,2.1-7.1c1.8-3.7-1.6-4.7-5.4-7.7c-3.8-3,1.2-7-1.7-11.1c-2.9-4.1-17.2-6.2-16.3-8.4
				C466.5,216.8,470.7,207,470.9,206.5z"/>
			<path class="st0" d="M473.2,245.5c0,0-0.9,1.4-4.6-0.3c0,0-3.1-1.4-2.4-3C466.1,242.2,469.7,242.2,473.2,245.5z"/>
			<path class="st6" d="M469,283.6c0,0-8.6,57-72.8,96.5l-6,17.4h23.2c0,0,57.5-48.2,61.4-112.3L469,283.6z"/>
			<polygon class="st9" points="469,283.6 469,275 479.6,278 474.8,285.3 			"/>
			<path class="st10" d="M465.5,262.9l-6.2,5.3c0,0-1.7,7.4,2.5,15.4l12.5-7.1C474.3,276.5,466.9,272.9,465.5,262.9z"/>
			<path class="st10" d="M474.3,276.5c0,0,1.2,6.7,4.5,10c0,0,14.1-2.5,18-9.2l-5.9-9.2C490.9,268.1,489.5,274.4,474.3,276.5z"/>
			<path class="st5" d="M558.6,424.2c0,0,0,12.8-1.1,15.3c-1.2,2.5-6.4,10.8-8.9,12.6c-2.4,1.8,0.5-10.2-0.2-12.4
				c-0.8-2.2-1.7,4.3-2.8,4.6c-1.1,0.3-1.4-5.5-1.7-7.6c-0.3-2.1,4.8-7.8,6.3-12.4C551.6,419.6,558.6,424.2,558.6,424.2z"/>
			<path class="st4" d="M507.6,280.1c0,0,12.4,3.4,20.8,21.8c8.8,19.3,32.3,62.3,33.2,68.2c0.9,5.9-1.6,61.3-1.6,61.3
				s-10.3,0.4-13.5-4.5c0,0-3.6-48.6-5.2-51.3c-1.6-2.6-42.1-51-38.7-63.2C506.1,300.3,507.6,280.1,507.6,280.1z"/>
			<path class="st10" d="M523.8,426.1c-3.1,2.6-7.2,4.9-12.8,6.5c0,0,0,0,0,0c-1.4,0.4-2.7,0.5-3.9,0.4
				c-22.6-2.3-19.2-90.3-8.2-96.8c11.6-6.9,15.7,3.6,15.7,3.6c-0.1,23,1.3,50.7,9.5,79.9C524.8,422.2,524.6,424.3,523.8,426.1z"/>
			<path class="st2" d="M458.7,579.2c0.1-0.7,0.3-1.4,0.5-2.2C459.1,577.8,458.9,578.5,458.7,579.2z"/>
			<path class="st2" d="M459.8,574.5c6.9-32.8-0.5-120.6,2.8-122.3c3.4-1.7,13.2,14,13.2,14C474.1,504.9,467.1,543.5,459.8,574.5z"
				/>
		</g>
		<g>
			<polygon class="st5" points="290.5,641.5 288.5,627.1 296.8,620.1 299.5,639.1 			"/>
			<path class="st2" d="M318.3,654.3h-34.2c0,0-0.8-5.2,1-9.2c1.7-3.8,4.4-6.1,4.6-9c2.2,2.2,4.8,3.7,9.8,3c0.6,1,3.9,6.2,5.9,7.7
				C307.7,648.4,317.6,647.9,318.3,654.3z"/>
			<path class="st7" d="M311.4,447.3c-2.2,18-4.1,34.9-5.6,50.8c-8,84.2-6.4,135.7-6.4,135.7s-0.6,1.5-5.5,1.5
				c-2.8,0-5.5-0.6-5.5-0.6s-17.8-55-16.4-86.3c0.2-3.8,0.6-7.2,1.4-10.1c4.3-16-15.8-77.2,6-100.1
				C301.3,415.4,312.5,439,311.4,447.3z"/>
			<path class="st6" d="M311.4,447.3c-2.2,18-4.1,34.9-5.6,50.8L272,548.4c0.2-3.8,0.6-7.2,1.4-10.1c4.3-16-15.8-77.2,6-100.1
				C301.3,415.4,312.5,439,311.4,447.3z"/>
			<path class="st5" d="M338.4,275.7c0,0-0.8-4.1-1.8-7.2c-0.4-1.4,2.5-10.5,4.4-11.6c2-1.1,7.1,5,5.7,9.7c-0.7,2.4-2,10.3-2,10.3
				L338.4,275.7z"/>
			<path class="st5" d="M338.4,275.7c0,0-1.1-2.4-2-2.8c-1-0.4-2-4.3-2.7-5.8c0,0,0.7-1,1.9,0.3c0.7,0.8,2.4,3.1,2.4,3.1
				L338.4,275.7z"/>
			<path class="st5" d="M197.2,289.5c-0.2,0.4-0.5,1.2-0.8,1.9c0-0.2,0-0.4,0-0.6c0-1.4-5.4-9.3-7.6-9.8c-2.2-0.5-5.4,6.9-2.6,11
				c1.4,2.1,4.9,9.3,4.9,9.3l5.8-3c0,0,0.3-2.6,1.1-3.2c0.8-0.7,0.7-4.7,0.9-6.4C198.9,288.7,198,287.9,197.2,289.5z"/>
			<path class="st5" d="M233.1,637.2c-0.5-4.6-0.6-16.7-0.6-16.7s12.4-4,11.9-1.2c-2.2,13.3-1.6,19.9-1.6,19.9l-5,3L233.1,637.2z"/>
			<path class="st7" d="M301.1,446.4c0,0-47.7,130.9-57.1,187.6c0,0-2.2,1.5-6.2,1c-4.6-0.6-5.9-3.8-5.9-3.8s-8.6-68,8.5-91.7
				c11.8-16.2-5.1-87.5,22.4-93.2C290.2,440.7,301.1,446.4,301.1,446.4z"/>
			<path class="st11" d="M292.6,320.6C292.6,320.6,292.6,320.6,292.6,320.6c0-0.1,0-0.1,0-0.2c-0.3-1.2-0.6-2.3-0.9-3.4c0,0,0,0,0,0
				c-1-3.4-2.2-6.7-3.5-9.6c-0.7-1.7-1.5-3.2-2.3-4.6c-0.1-0.2-0.2-0.4-0.3-0.6l0,0c-1.8-3.1-3.7-5.2-5.5-5.9
				c-3.1-1.2-6.6-0.9-9-0.4c0.5-0.7,1.7-1.1,1.7-1.1c-1.5,0-4.6,2-4.6,2c-22-4.9-20.7,26.2-19.2,33.2c1.5,7.1-5.6,10.5-15.6,17.7
				c-19.1,13.8-18.7,28.4-18.7,28.4c0.2,0.1,0.4,0.2,0.6,0.3c0.8-1.9,2.4-5.5,4.1-6.2c0,0.2-1.4,4.8-1.8,7.4
				c2.9,1.6,6.9,4.1,11.3,6.9c0,0,0,0,0,0c5.8,3.7,12.3,8,17.4,11.5c-0.2-1.4-0.5-3.4-0.1-4.6l1.6,5.1l0.2,0.7
				c3.3,2.2,5.9,4,7.2,4.9c0.1,0.1,0.3,0.2,0.4,0.2c0.4,0.3,0.6,0.4,0.6,0.4c-0.4-1.8,1.5-6.5,4.7-12.4c0.2-0.4,0.5-0.8,0.7-1.3
				c1-1.9,2.2-3.8,3.5-5.9c0.5-0.7,0.9-1.5,1.4-2.2c0,0,0,0,0,0c0.4-0.6,0.8-1.2,1.2-1.8l0,0c0.9-1.4,1.9-2.9,2.9-4.4
				c2.6-3.8,5.3-7.5,7.9-11c3.9-5,7.7-9.4,10.9-12.2c0.1-0.2,0.2-0.4,0.3-0.7c0.5-1.2,0.9-2.4,1.2-3.8c0.1-0.4,0.2-0.8,0.2-1.2
				c0.8-4.2,0.8-8.3,0.8-9.3c0.3,4,0.2,7.1-0.1,9.4c-0.1,0.5-0.1,1-0.2,1.4l0,0c-0.2,1-0.4,1.8-0.6,2.5c0.5-0.6,1-1.4,1.4-2.1
				c0.3-0.5,0.5-1,0.7-1.6C295.6,339.5,294.9,329.7,292.6,320.6z"/>
			<path class="st5" d="M288.5,352.1c0.1,0-6.2,4.5-11.4,3.9c-5-0.6-9-6.3-8.9-6.3c2-0.7,2.1-3.6,0.3-15.5l0.9,0l15.8,0.8
				c0,0,0.4,4.9,1,9.5C286.8,348.2,287.6,351.8,288.5,352.1z"/>
			<path class="st12" d="M285.2,334.9c0,0,0.4,4.9,1,9.5c-8.6,1-14.4-6.1-16.9-10.2L285.2,334.9z"/>
			<path class="st11" d="M267.5,332.7c0,0-5.6-6.5-7.6-12.4c-1.4-4.2-1.6-20.7,14.9-20.8c0,0,4.8-0.2,9.6,2.1
				c3.9,1.9,9.7,6.2,6.1,21.1l-0.8,5L267.5,332.7z"/>
			<path class="st0" d="M313.4,443.9c0,0-20.6,12.2-46.5,5.9c-0.3-0.1-21.3-3.4-21.3-3.4c0.4-1,3.1-17.2,3.4-18.1
				c4.6-11.8,13-76.1,20-79.3c1.8,1.9,6.9,3.3,11.3,2.9c5-0.4,6.7-2.6,6.3-5c5.6,2.6,9.9,5.1,9.9,5.1
				C301.6,359.7,313.4,443.9,313.4,443.9z"/>
			<path class="st5" d="M288.7,338.8c0,0-20.3,3.4-22.2-9.3c-1.9-12.7-5.8-20.8,7.1-23.5c12.9-2.7,16.1,1.8,17.8,5.9
				C293.1,316,294,337.6,288.7,338.8z"/>
			<path class="st11" d="M282.8,304.3c0,0-3.4,15.7-11.6,19.2c-8.2,3.5-12.3,1.7-12.3,1.7s5.8-6.2,5.8-15.5
				C264.8,309.8,277.6,297.9,282.8,304.3z"/>
			<path class="st11" d="M281.6,305.7c0,0,4.7,2.7,6.2,5.8c1.5,3.1,2.9,9.7,4.8,9.1c0,0,2.7-10.7-2.9-15.8
				C283.8,299.6,281.6,305.7,281.6,305.7z"/>
			<path class="st13" d="M344.9,276c-0.8-0.3-2-1-3.6-1.1c-1.4-0.1-3.2,0.3-3.2,0.3s-5.7,35.6-6.2,37.5c-0.4,1.9-24.6,29.1-31.1,29
				c-5.9-0.1-12.8,4.4-14.1,5.3c0,0,13.7,29,14.4,34.4c0.7,5.9,7.8,97,7.8,97s-0.4,4.2,7.5,2c7.9-2.3,9.9-4.2,9.9-4.2
				s-7.3-71.7-8.8-94.1c-0.2-3-0.7-5.8-1.4-8.3c-0.7-2.5-0.1-5.1,1.4-7.2c10-13.7,25.8-36,26.7-40.8C345.5,319,344.9,276,344.9,276z
				"/>
			<path class="st2" d="M261.6,654.3h-34.2c0,0-0.8-5.2,1-9.2c1.7-3.8,4.4-6.1,4.6-9c2.2,2.2,4.8,3.7,9.8,3c0.6,1,3.9,6.2,5.9,7.7
				C250.9,648.4,260.9,647.9,261.6,654.3z"/>
			<path class="st13" d="M285.1,384.2c-1.2-7.1-15.9-35.6-15.9-35.6s-9.3-2.8-15.4-0.6c-6.1,2.2-37.8-15.7-38.8-17.3
				c-1-1.6-18-33.3-18-33.3s-1.4-0.8-3.7,0.4c-2.2,1.2-2.2,3.4-2.2,3.4s13.1,39.8,16.6,46c2.1,3.7,19.8,16.6,33.5,26.3
				c2.6,1.8,4,5,3.6,8.2c-1.8,13.6-2.3,21.3-4.4,44.6c-1.8,19.4-2.4,56.9-2.4,56.9s15.3,5.3,25.9,6c10.6,0.7,12.9-10.4,12.9-10.4
				S286.3,391.5,285.1,384.2z"/>
			<path class="st0" d="M282.1,332.5c0,0,2.5,1.4,5.4,1c2-0.3,2.4-2.7,2.4-2.7s-1.4-0.4-3.6,0C284.1,331.3,282.1,332.5,282.1,332.5z
				"/>
		</g>
		<g>
			<path class="st11" d="M677.6,329.9c0,0,6.3,10.4-5.6,16.9c0,0,9.1,3.3,12.3,2c0,0-0.8,0.8-1.4,1.1c0,0,8.6,2.7,12.8,1.2
				c4.3-1.5,13.5-43-11.8-45.2c0,0-19.9-7.1-24.2,15.1c-4.2,22.3-11.9,20.1-11.9,20.1s1.9,1.6,2.9,1.9c0,0,1.7-0.1,2.2-0.8
				c0,0-0.6,1.1-1.1,1.4c0,0,8.1,3.1,13,1.3S677.5,334.7,677.6,329.9z"/>
			<path class="st2" d="M652.2,657.4h32.3c0,0,0.8-4.9-0.9-8.6c-1.6-3.6-4.1-5.8-4.4-8.5c-2,2.1-4.6,3.5-9.2,2.8
				c-0.6,0.9-3.7,5.9-5.6,7.3C662.3,651.8,652.9,651.3,652.2,657.4z"/>
			<path class="st13" d="M678.9,645.1c0,0-2.8,0.9-5.6,1.1c-5.1,0.5-5.8-1.1-5.8-1.1s-5.1-45-21.4-130.9
				c-2.4-12.4-3.3-19.3-4.1-30.3c-0.3-3.3-0.5-7-0.8-11.3c-0.7-11.6,1-31.1,9.7-36.2c4-2.3,9.3-1.7,16.6,4c0.6,0.4,1.2,0.9,1.7,1.4
				c21.2,18.3,12.5,70.9,13.4,95.7c0.1,4.1,0.5,7.4,1.4,9.7c1.1,3,3.4,7.1,4,10.9C692.3,590.3,678.9,645.1,678.9,645.1z"/>
			<path class="st2" d="M682.5,537.6l-40.6-53.7c-0.3-3.3-0.5-7-0.8-11.3c-0.7-11.6,1-31.1,9.7-36.2l16.6,4c0.6,0.4,1.2,0.9,1.7,1.4
				C690.3,460.2,681.7,512.9,682.5,537.6z"/>
			<path class="st2" d="M797.3,589.5l-13.4-29.3c0,0-4.8,1.3-7.5,4.4c-2.6,3-4.5,2.4-10.3-1.7c2.2,3.4,2.5,5.4,3.9,9.9
				c1.1,0.1,7.2,6.1,13.5,7.7C786,581.2,791.5,591.4,797.3,589.5z"/>
			<path class="st13" d="M656.5,449.3c0,0,28.9,100.5,39.5,107c10.6,6.5,66.3,15.4,77.6,20.2c0,0,1.4-2,0.6-6.2
				c-0.2-0.9-1.8-4.3-1.8-4.3s-34.6-26-57.4-28.6c-5.6-0.7,11.5-86.9-26.7-90.4C653.5,443.9,656.5,449.3,656.5,449.3z"/>
			<path class="st5" d="M615.3,284.4c0,0,0.8-3.9,1.7-6.8c0.4-1.3-2.3-9.9-4.2-11c-1.9-1.1-6.7,4.7-5.4,9.2c0.7,2.3,1.9,9.7,1.9,9.7
				L615.3,284.4z"/>
			<path class="st5" d="M615.3,284.4c0,0,1-2.2,1.9-2.6c0.9-0.4,1.9-4,2.6-5.5c0,0-0.7-1-1.8,0.3c-0.7,0.7-2.2,2.9-2.2,2.9
				L615.3,284.4z"/>
			<path class="st5" d="M748.5,297.5c0.2,0.4,0.5,1.1,0.7,1.8c0-0.2,0-0.4,0-0.6c0-1.4,5.1-8.8,7.2-9.3c2.1-0.5,5.1,6.5,2.4,10.3
				c-1.3,2-4.6,8.7-4.6,8.7l-5.4-2.8c0,0-0.3-2.4-1.1-3.1c-0.8-0.6-0.6-4.4-0.9-6C746.8,296.7,747.7,296,748.5,297.5z"/>
			<path class="st5" d="M662.3,356.5c-0.1,0,5.8,4.3,10.8,3.7c4.7-0.6,8.5-6,8.4-6c-1.9-0.7-2-3.4-0.3-14.6l-0.9,0l-14.9,0.7
				c0,0-0.3,4.6-1,8.9C663.9,352.8,663.2,356.2,662.3,356.5z"/>
			<path class="st12" d="M665.4,340.3c0,0-0.3,4.6-1,8.9c8.2,1,13.5-5.8,15.9-9.6L665.4,340.3z"/>
			<path class="st11" d="M682.1,338.2c0,0,5.3-6.1,7.1-11.7c1.3-4,1.5-19.5-14.1-19.6c0,0-4.5-0.2-9.1,2c-3.7,1.7-9.2,5.9-5.8,19.9
				l0.7,4.7L682.1,338.2z"/>
			<path class="st5" d="M643.6,445.5c0,0,14.6,9.2,39,3.3c0.3-0.1,13.9-2.2,13.9-2.2c-0.3-0.9-14.6-24.5-15-25.4
				c-4.3-11.2,5.7-64.5-0.9-67.5c-1.7,1.8-6.5,3.1-10.6,2.7c-4.8-0.4-6.3-2.5-6-4.7c-5.3,2.5-9.3,4.8-9.3,4.8
				C649.9,363.7,643.6,445.5,643.6,445.5z"/>
			<path class="st5" d="M662.1,344c0,0,19.2,3.2,21-8.8c1.8-12,5.5-19.6-6.7-22.1c-12.2-2.5-15.2,1.7-16.8,5.5
				C658,322.4,657.2,342.8,662.1,344z"/>
			<path class="st11" d="M667.7,311.5c0,0,3.2,14.8,10.9,18.1c7.8,3.3,11.6,1.6,11.6,1.6s-5.5-5.8-5.5-14.6
				C684.7,316.6,672.6,305.4,667.7,311.5z"/>
			<path class="st11" d="M668.8,312.8c0,0-4.4,2.5-5.8,5.5c-1.4,2.9-2.8,9.1-4.6,8.6c0,0-2.5-10.1,2.7-14.9
				C666.7,307,668.8,312.8,668.8,312.8z"/>
			<path class="st7" d="M752.9,308.6c0,0-12.4,37.6-15.6,43.4c-2,3.5-24.2,17.4-37.2,26.5c-0.1,0.1-0.3,0.3-0.5,0.6c0,0,0,0,0,0
				c-3.2,5-13.2,35.8-10.9,41.4c10.1,23.3,17,32.3,19.5,38.8c1.3,3.3-0.4,6.9-3.7,8.1c-4.1,1.5-10.2,3.3-17.4,4.6
				c-1.4,0.2-2.8,0.4-4.2,0.6c-19.9,2.5-33.3-2.1-40.1-5.6c-3.2-1.6-5.2-5-5-8.6c0.4-7.4,4.1-14.7,5.8-32.4
				c1.3-13.4-10.3-33.9-9.8-41c0.2-2.8,2.4-6.2,3.6-8.4c0,0,0,0,0,0c2.1-3.9,3.3-7.4,1.9-9.3c-9.4-13-29.9-30.9-30.7-35.3
				c-1.2-6.6-0.7-47.1-0.7-47.1c0.8-0.3,1.9-0.9,3.4-1.1c1.3-0.1,3,0.3,3,0.3s5.4,33.6,5.8,35.4c0.4,1.8,23.2,27.4,29.3,27.3
				c5.5-0.1,13.4,4.2,14.6,5c0,0-5,8.8-6.2,20.7c-0.9,8.3,4.7,4.6,8.2-1.1c4.7-7.7,14.3-18.7,14.3-18.7s7.8-2,13.5,0.1
				c5.8,2.1,35.7-14.8,36.6-16.3c1-1.6,17-31.4,17-31.4s1.3-0.8,3.5,0.3C752.9,306.4,752.9,308.6,752.9,308.6z"/>
			<path class="st0" d="M667.7,337.5c0,0-0.8,1.7-1.9,1.7c-1.1,0-3.9-0.2-4.1-0.5c-0.2-0.3-0.7-2-0.7-2S665.6,336.4,667.7,337.5z"/>
			<path class="st6" d="M704.6,467.3c-4.1,1.5-10.2,3.3-17.4,4.6c-6.9-9.4-18.4-21.3-15.5-43.2c3.1-22.6,25.3-46.4,28-49.7
				c-3.2,5-13.2,35.8-10.9,41.4c10.1,23.3,17,32.3,19.5,38.8C709.5,462.5,707.9,466.2,704.6,467.3z"/>
			<path class="st6" d="M637.3,376.5c2.1-3.9,3.3-7.4,1.9-9.3c-9.4-13-29.9-30.9-30.7-35.3c2,4.9,26.7,19.3,33.7,25.6
				C649.1,363.6,637.6,376.2,637.3,376.5z"/>
		</g>
		<g>
			<path class="st14" d="M222.6,197.7c0,0,4.6,6.3,4.1,13.6c-0.4,5.4-5.2,10.8-5.5,11l7.6,4c0,0,5.6-9.9,3.7-18.3
				c-0.6-2.5-3.3-6.6-5.2-8.4C225.1,197.6,222.6,197.7,222.6,197.7z"/>
			<path class="st15" d="M207.2,198.3l-4.8-10.6c0,0,22.3,0.8,29.7,18.9C232.1,206.7,216.5,195.6,207.2,198.3z"/>
		</g>
		<g>
			<path class="st14" d="M122.8,467.4c0,0-5.3-4-6.7-10c-1-4.5,1.5-10,1.7-10.3l-7.1-1.4c0,0-2.1,9.5,1.5,15.8
				c1.1,1.9,4.3,4.6,6.3,5.6C120.8,468.1,122.8,467.4,122.8,467.4z"/>
			<path class="st15" d="M135.2,463.1l6.5,7.4c0,0-18.3,4.9-28.8-8.1C112.9,462.4,128.3,467.6,135.2,463.1z"/>
		</g>
		<g>
			<path class="st16" d="M939,502c0,0-0.5-7,12.6-10.3c5.9-1.5,18.9,1.2,10.7,14c-8.6,13.4-16.3,8.5-16.3,8.5s18-14.1,10.8-20.5
				c-7.9-7.1-11,7-11,7S942.6,500.5,939,502z"/>
			<path class="st17" d="M943.6,515c0,0-4.9-2.7-3-8.5l7,1.2c0,0-2.7,6.4,3.9,7.1C951.6,514.8,945.2,516.3,943.6,515z"/>
		</g>
		<g>
			<path class="st18" d="M484.5,140.9c0,0,7.3-10.5,18.5-3.1l6.8-6.5c0,0-6.4-4.8-21.1,3.8C479.1,140.9,484.5,140.9,484.5,140.9z"/>
			<path class="st19" d="M477.2,151.3c0,0-1.4-12.1,18.8-19.6c0,0-7.3,3.5-9.6,15.6L477.2,151.3z"/>
		</g>
		<path class="st7" d="M558.6,87.1c0,0,6-3.8,6.6-8.3c0,0,5.8,0.3,7.1,2.2c0,0-2.7,7.6-5.8,9C566.4,90,559.4,90.4,558.6,87.1z"/>
		<path class="st7" d="M366.1,518.2c0,0-6.4-4-7.1-8.9c0,0-6.2,0.3-7.6,2.4c0,0,2.9,8.1,6.2,9.6
			C357.7,521.2,365.2,521.7,366.1,518.2z"/>
		<path class="st15" d="M628,206.2c0,0,6.4-4,7.1-8.9c0,0,6.2,0.3,7.6,2.4c0,0-2.9,8.1-6.2,9.6C636.5,209.2,628.9,209.7,628,206.2z"
			/>
		<g>
			<path class="st5" d="M752.8,391.8c0,0-3.7-4.5-5.7-5.1c-2-0.6-5.8-3.6-6.4-2.4c-0.5,1.2,2.6,3.1,2.4,4.5
				c-0.2,1.4-9.8,3.7-9.8,5.2c0.1,1.5,2.3,5.1,6,4.7c3.7-0.4,13.1-2.6,15-1.7C756.2,397.9,752.8,391.8,752.8,391.8z"/>
			<path class="st4" d="M852.6,369.9c-5.5,7.3-11.9,13.1-18.4,17.7c-20.9,14.5-43.6,16.7-43.6,16.7c-5.4-1.7-22.1-3.6-32-5.1h0
				c-4.3-0.7-7.3-1.3-7.5-1.9l0.2-8.6c0,0,36.2-1.9,42.2-4.7c9.4-8.1,17.8-18.7,23.2-27c4.6-7,9.7-12.1,18.2-15.1
				C847.2,337.5,869.5,347.1,852.6,369.9z"/>
			<path class="st10" d="M836,382.2l-1.8,5.4c-20.9,14.5-43.6,16.7-43.6,16.7c-4.4,0-22.1-3.6-32-5.1c0.4,0,26.8,2.1,32.7,1.5
				c5.9-0.6,33.3-24.4,33.3-24.4L836,382.2z"/>
			<path class="st2" d="M812.4,654.3h40c2.9-1.9-0.8-20.9-0.8-20.9s-10.9-4.1-12.8,4.3c-1.9,8.4-13.9,11.1-20.3,12.1
				C814.2,650.5,812.8,652.9,812.4,654.3z"/>
			<path class="st2" d="M871.7,654.3h40c2.9-1.9-0.8-20.9-0.8-20.9s-10.9-4.1-12.8,4.3c-1.9,8.4-13.9,11.1-20.3,12.1
				C873.5,650.5,872.1,652.9,871.7,654.3z"/>
			<path class="st13" d="M823.1,460.5c0,0,1.8,22.4,3.9,49.4c2.9,36.6,10.6,127.4,10.6,127.4s5.1,4.3,16.3,2c0,0,9.6-31.3,12.4-67.1
				c0-0.6,0.1-1.2,0.1-1.8c2.7-36.4,6.8-113,6.8-113L823.1,460.5z"/>
			<path class="st2" d="M822.5,452.8c0,0,2.4,30.2,4.5,57.1l39.4,62.3c0-0.6,0.1-1.2,0.1-1.8c2.7-36.4,6.8-113,6.8-113L822.5,452.8z
				"/>
			<path class="st13" d="M834,452.8c0,0,28.6,71.1,37.7,98c6.5,19.2,24.8,86.5,24.8,86.5s8,2.4,14.7-2.3c0,0,6.8-68.8-7-88.2
				c-7.3-10.3-1.8-107-31.5-107.8C843.1,438.3,834,452.8,834,452.8z"/>
			<path class="st5" d="M846.7,348c4.4,2.3,8.6,2.4,12.3,1.7c3.4-0.7,6.3-2.2,8.3-3.5c2.1-1.4,3.4-2.5,3.4-2.5s-0.1-0.2-0.4-0.6
				c-1.3-2.2-5.2-10.1-3.5-22.8c0-0.2-1.2,0.1-3.1,0.5c-5.7,1.3-17.1,4.6-17.6,4.7c0,0,0,0,0,0s-0.1,2.7-0.6,7.5
				c0,0.4-0.1,0.9-0.1,1.3c-0.1,0.6-0.1,1.2-0.2,1.8C844.7,340.9,846.7,348,846.7,348z"/>
			<path class="st12" d="M845.6,332.8c8.5,1.9,21.1-10.5,21.1-10.5c-0.9-0.7-1.9-1.2-2.9-1.6c-5.7,1.3-17.1,4.6-17.6,4.7
				c0,0,0,0,0,0S846,328,845.6,332.8z"/>
			<path class="st5" d="M842.7,324.7c0,0,3.5,1.2,7.9,1.8c6.5,0.9,15,0.4,17.7-7.5c4.5-13.2,10.3-21.1-3-26.5
				c-7.1-2.9-11.7-3-14.7-1.9c-2.7,1-4.3,2.9-5.5,4.7C842.5,299.4,837.3,322.4,842.7,324.7z"/>
			<path class="st20" d="M834.6,296.4c7.7,5.5,18.3,0.1,21.6,1.6c3.3,1.5,3.9,7,4,8.8c0.1,1.8,0.3,3.2,4.8,2.2
				c0.7-0.2,1.3-0.1,1.6,0.1c1.9,1.1-0.5,6.5-1.2,7.6c0,0-1,3.8,1.3,5.7c0.3,0.2,4.8,2.2,15.6-14.4c1.7-2.6,3.3-8.5,0.7-14.1
				c-2.6-5.6-13.6-11.1-22.9-14c-3.5-1.1-6.1-1-8.1-0.3c-3.4,1.2-5.2,4.4-7,7.6C842,292.5,834.6,296.4,834.6,296.4z"/>
			<path class="st4" d="M884.1,457.8c0,0-3.7,0.8-8.4,1.6c-4.6,0.8-10.2,1.5-14.1,1.5c-20.1-0.2-36.8-6.1-36.8-6.1
				c-3.8,0-5.5-5.8-6.1-14c-0.4-5.5-0.3-12.1,0-18.6c0.1-2.1,0.2-4.2,0.3-6.3c0.3-4.1,0.6-8.1,0.9-11.6c0.3-3.3,0.5-6.2,0.6-8.4
				c0,0-0.5-15.6-0.3-29.3c0.2-9.9,5.7-18.8,7.1-20.3c4-4.2,15.6-6.9,18-7.3c0.2,0,0.3,0,0.3,0c9.6,5.4,22.4-1.9,22.4-1.9
				c0.3,0,0.6,0.1,0.9,0.2c0.9-0.2,10.6,1.2,12.9,2.5c5.6,3,8.8,36.7,8.8,36.7c0.9,22.8-0.2,59.4,1.6,73.4
				C892.6,454.3,888.1,456.8,884.1,457.8z"/>
			<path class="st10" d="M868.7,337.3c0,0-14.2,14.7-24.4,11.7c0,0-1.4-2,3.2-2.6C852.1,345.7,857,345.9,868.7,337.3z"/>
			<path class="st0" d="M842.6,316.2c0,0-0.3,1.7,3.7,3.1c0,0,3.3,1.1,3.9-0.6C850.2,318.6,847.6,316.1,842.6,316.2z"/>
			<path class="st10" d="M876.5,392.9c0,0-20.7,34.6-32.4,40.7c-7.9,4.1-19.1,6.3-25.4,7.3c-0.4-5.5-0.3-12.1,0-18.6
				c8.4-1,21.2-2.6,21.2-2.6L876.5,392.9z"/>
			<path class="st10" d="M849.2,375.5l-11,39.8c0,0-13,0.8-19.2,0.6c0.3-4.1,0.3-4.3,0.6-7.8C819.5,408.1,834.4,400.3,849.2,375.5z"
				/>
			<path class="st5" d="M782.8,418.2c0,0-3.7-4.5-5.7-5.1c-2-0.6-5.9-3.6-6.4-2.4c-0.5,1.2,2.6,3.1,2.4,4.5
				c-0.2,1.4-9.8,3.7-9.8,5.2c0.1,1.5,2.3,5.1,6,4.7c3.7-0.4,13.1-2.6,15-1.7C786.3,424.4,782.8,418.2,782.8,418.2z"/>
			<path class="st4" d="M891.6,363c0,0,0.7,21.1-47.4,63.4l-9.7-17.3c-1.8-1,31.1-71.6,40.5-71.1C893.3,339.1,891.6,363,891.6,363z"
				/>
			<path class="st4" d="M840.2,407c0,0-54.7,6.2-56.7,7.3c-2,1.1-6.4,5.3-4.9,10.6c0,0,28.3,3.6,43.9,3.5
				c13.4-0.1,22.1-2.2,22.1-2.2L840.2,407z"/>
		</g>
		<path class="st21" d="M1036.8,657.4H9.9c-0.7,0-1.3-0.6-1.3-1.3v-0.7c0-0.7,0.6-1.3,1.3-1.3h1027c0.7,0,1.3,0.6,1.3,1.3v0.7
			C1038.1,656.8,1037.5,657.4,1036.8,657.4z"/>
	</g>
</g>
</svg>
