<svg id="Capa_1" data-name="Capa 1" xmlns="http://www.w3.org/2000/svg" xmlns:xlink="http://www.w3.org/1999/xlink" viewBox="0 0 512 512"><defs><style>.cls-1{fill:#F21B3F;}.cls-2{fill:url(#linear-gradient);}</style><linearGradient id="linear-gradient" x1="38.74" y1="441.29" x2="38.74" y2="483.71" gradientTransform="matrix(8, 0, 0, -8, -50, 3956)" gradientUnits="userSpaceOnUse"><stop offset="0" stop-color="#fff"/><stop offset="0.15" stop-color="#fcfeff"/><stop offset="0.28" stop-color="#f1fbfe"/><stop offset="0.4" stop-color="#dff5fd"/><stop offset="0.51" stop-color="#c6edfb"/><stop offset="0.63" stop-color="#a5e2f9"/><stop offset="0.74" stop-color="#7dd6f7"/><stop offset="0.85" stop-color="#4ec7f4"/><stop offset="0.96" stop-color="#18b6f1"/><stop offset="1" stop-color="#00aeef"/></linearGradient></defs><circle class="cls-1" cx="256" cy="256" r="256"/><path class="cls-2" d="M394.41,228.06l-13.2-2.64a10.91,10.91,0,0,1-8.59-8.59l-2.43-12.12a38.43,38.43,0,0,0,11.88-14.38h3.75a21.92,21.92,0,0,0,21.89-21.9,21.64,21.64,0,0,0-4.46-13.1l2-6a47.87,47.87,0,0,0-45.41-63H345.34a42.25,42.25,0,0,0-34,17.07l-4,1a26.47,26.47,0,0,0-8.47,3.82H101.21V250.53H154.4l-8.21,32.84H90.26v10.94H429.61V271a43.9,43.9,0,0,0-35.2-42.93ZM233.77,250.53,242,283.37H184.84l8.21-32.84Zm11.28,0h25.5A43.53,43.53,0,0,0,265.41,271v12.38H253.26ZM276.35,271a32.92,32.92,0,0,1,26.4-32.2l4.63-.93,20.68,45.51H276.35Zm50.87-40.91,10.19,5.09-14.1,11.28-5-11a21.8,21.8,0,0,0,8.9-5.41ZM349,250.53h-3l-2.16-6.47,3.69-2.94,3.68,2.94Zm-12.62,5.91-2.3,13.79L328,256.74l6.74-5.39Zm10.26,5h1.67l3.65,21.9h-9Zm11.93-5,1.7-5.09,6.73,5.39-6.13,13.49Zm18.09-20.95-5,11-14.1-11.28,10.19-5.09a22,22,0,0,0,8.9,5.4ZM361.88,219c.11.55.3,1.07.45,1.6L347.51,228l-14.83-7.41c.15-.53.33-1.05.44-1.6l1.79-8.93a37.72,37.72,0,0,0,25.19,0Zm13-45.07a27.37,27.37,0,1,1-54.73,0V152.68a16.4,16.4,0,0,1,12.36-15.91,16.42,16.42,0,0,0,15,9.76H369.4a5.48,5.48,0,0,1,5.47,5.48Zm10.95,5.47h-.44a38,38,0,0,0,.44-5.47V157.48a10.95,10.95,0,1,1,0,21.89ZM310,115l8-2,1.17-1.75a31.35,31.35,0,0,1,26.13-14h14.51a36.89,36.89,0,0,1,35,48.58l-.77,2.33a22,22,0,0,0-8.28-1.65h-1a16.38,16.38,0,0,0-15.41-10.94H347.51a5.48,5.48,0,1,1,0-11H353v-11h-5.47a16.47,16.47,0,0,0-15.82,12l-1.77.44A27.26,27.26,0,0,0,310,146.53h-.79a21.63,21.63,0,0,0-7.78,1.5c-1.45-5-3.16-12.2-3.16-17.92A15.53,15.53,0,0,1,310,115Zm-.84,42.46V173.9a38,38,0,0,0,.44,5.47h-.44a10.95,10.95,0,0,1,0-21.89Zm-197-38.31h177.6a26.34,26.34,0,0,0-2.45,10.94c0,8.8,3.09,19.64,4.77,24.85a21.64,21.64,0,0,0-4.77,13.47,21.92,21.92,0,0,0,21.89,21.89h3.75a38.52,38.52,0,0,0,11.88,14.38l-2.43,12.13a11,11,0,0,1-8.58,8.59l-13.2,2.63a43.63,43.63,0,0,0-21.83,11.52H112.15Zm53.54,131.36h16.08l-8.21,32.84H157.48Zm253,32.84H367l20.69-45.51,4.62.93a32.92,32.92,0,0,1,26.4,32.2ZM276.35,141.06H210.67V163H188.78V130.11H123.1v65.68h32.84v32.84h76.63V195.79h43.78Zm-142.3,0h43.78v43.79H134.05Zm87.57,76.63H166.89v-21.9h21.89V173.9h32.84Zm43.79-32.84H232.57V163H221.62V152h43.79ZM394,372.87a38.46,38.46,0,0,0,13.74-29.3V338.1a32.87,32.87,0,0,0-32.84-32.84H363.93a32.87,32.87,0,0,0-32.84,32.84v5.47a38.45,38.45,0,0,0,13.73,29.3,49,49,0,0,0-30.19,24.79,49.43,49.43,0,0,0-30.1-24.75,38.27,38.27,0,0,0,13.72-29.34V338.1a32.87,32.87,0,0,0-32.84-32.84h-11a32.87,32.87,0,0,0-32.84,32.84v5.47a38.24,38.24,0,0,0,13.72,29.34,49.41,49.41,0,0,0-30.12,24.79,49.48,49.48,0,0,0-30.12-24.83,38.23,38.23,0,0,0,13.68-29.3V332.63a27.4,27.4,0,0,0-27.37-27.37H123.1a11,11,0,0,0-10.95,10.95v27.36a38.24,38.24,0,0,0,13.72,29.34A49.3,49.3,0,0,0,90.26,420.2v5.47H429.61V420.2A49.11,49.11,0,0,0,394,372.87Zm-13.62,9a11,11,0,0,1-21.9,0,10.49,10.49,0,0,1,.22-1.59,37,37,0,0,0,21.46,0A10.49,10.49,0,0,1,380.35,381.89ZM342,343.57V338.1a21.92,21.92,0,0,1,21.9-21.89h10.94a21.92,21.92,0,0,1,21.9,21.89v5.47a27.37,27.37,0,0,1-54.74,0Zm-109.46,0V338.1a21.92,21.92,0,0,1,21.89-21.89h11A21.92,21.92,0,0,1,287.3,338.1v5.47a27.37,27.37,0,1,1-54.73,0ZM249,381.89h21.89a38.35,38.35,0,0,1,37.88,32.84H211.11A38.34,38.34,0,0,1,249,381.89ZM123.1,343.57V316.21h38.31a16.43,16.43,0,0,1,16.42,16.42v10.94a27.37,27.37,0,1,1-54.73,0Zm-21.51,71.16a38.38,38.38,0,0,1,37.93-32.84h21.89a38.38,38.38,0,0,1,37.93,32.84Zm219,0a38.16,38.16,0,0,1,27.09-31.3,21.78,21.78,0,0,0,43.47,0,38.19,38.19,0,0,1,27.14,31.29Z" transform="translate(-0.36 -2.84)"/></svg>