<svg id="Capa_1" data-name="Capa 1" xmlns="http://www.w3.org/2000/svg" xmlns:xlink="http://www.w3.org/1999/xlink" viewBox="0 0 512 512"><defs><style>.cls-1{fill:#F21B3F;}.cls-2{fill:url(#linear-gradient);}</style><linearGradient id="linear-gradient" x1="76.27" y1="374.09" x2="76.27" y2="450.5" gradientTransform="matrix(4, 0, 0, -4, -50, 1908)" gradientUnits="userSpaceOnUse"><stop offset="0" stop-color="#fff"/><stop offset="0.15" stop-color="#fcfeff"/><stop offset="0.28" stop-color="#f1fbfe"/><stop offset="0.4" stop-color="#dff5fd"/><stop offset="0.51" stop-color="#c6edfb"/><stop offset="0.63" stop-color="#a5e2f9"/><stop offset="0.74" stop-color="#7dd6f7"/><stop offset="0.85" stop-color="#4ec7f4"/><stop offset="0.96" stop-color="#18b6f1"/><stop offset="1" stop-color="#00aeef"/></linearGradient></defs><circle class="cls-1" cx="256" cy="256" r="256"/><g id="Layer_2" data-name="Layer 2"><path class="cls-2" d="M434.13,135.5a5,5,0,0,0-5,5V352.79a34.69,34.69,0,0,0-24.45-10.17H380.2V116.08h24.45a5,5,0,0,0,0-10.07H375.16a5,5,0,0,0-5,5v57.53H251.4c0-1.06.1-2.11.1-3.16a59.4,59.4,0,1,0-118.79,0c0,1.06,0,2.12.11,3.16H76a5,5,0,0,0-5,5v233a5,5,0,0,0,5,5H404.65a34.56,34.56,0,0,0,34.52-34.52V140.53A5,5,0,0,0,434.13,135.5Zm-92.7,125.17,15.18,15.18-9.23,9.22a5.07,5.07,0,0,0-1.47,3.56v14l-6.62,6.61a5.08,5.08,0,0,0-1.48,3.56V321L325.3,333.46l-8.68-8.69V303.26a5,5,0,0,0-1.47-3.56l-18.5-18.5a5,5,0,0,0-3.56-1.48H279.45l-9.38-9.38V257.07L286.13,241l10-3.94,6.17,6.18a5.07,5.07,0,0,0,3.56,1.47h21.7a5,5,0,0,0,1.77-.32L352,235.88a5,5,0,0,0,3.26-4.71v-15.4a5,5,0,0,0-1.47-3.56l-4.8-4.8h21.19V250l-2.34-2.33a5,5,0,0,0-5-1.26l-19.25,5.86a5,5,0,0,0-3.35,6.28,5.12,5.12,0,0,0,1.25,2.1Zm28.7-82v18.7h-128a59.55,59.55,0,0,0,7.83-18.7Zm-178-62.57A49.31,49.31,0,0,1,216,208.54a5.07,5.07,0,0,0-2.41,3.08,236.8,236.8,0,0,1-21.48,49.43,271.11,271.11,0,0,1-17.21-36.34c-1.61-4.3-3.07-8.66-4.28-13.09a5,5,0,0,0-2.41-3.08,49.32,49.32,0,0,1,23.9-92.46ZM176.86,289.44a5,5,0,0,0-3.78-1.73h-2.43l-6.92-11.54,2.32-13.49a5,5,0,0,0-2.3-5.13L140.53,243a5.07,5.07,0,0,0-2.91-.76l-11.4.55-4.38-12.29a5,5,0,0,0-1.18-1.87l-10.87-10.88V207.41h40.38a59.31,59.31,0,0,0,11.3,8.85c.62,2.14,1.3,4.27,2,6.39l-12.14,1.57a5,5,0,0,0-4.36,5.63,5.15,5.15,0,0,0,.34,1.28L150,237.6a5,5,0,0,0,1.91,2.3l16.54,10.79a5.08,5.08,0,0,0,3.82.7l3-.66c4.83,9.8,9.27,17.44,11.35,20.91,1.15,1.9,2.23,3.83,4.61,4.29a5.2,5.2,0,0,0,5.39-2.65c.68-1.11,2.83-4.64,5.7-9.84L218.39,261l11.73,15-.18,20.9L203.66,300a5,5,0,0,0-3.37,1.89l-14.15,18a5.13,5.13,0,0,0-1,2.3L181.2,346h-2.07L175,316.47l3-23.06a5.08,5.08,0,0,0-1.21-4Zm-6.66-49.59-10.1-6.59,7-.9Q168.56,236.17,170.2,239.85ZM404.65,401.59H81V178.65h53.22a59.55,59.55,0,0,0,7.83,18.7H104.75a5,5,0,0,0-5,5V377.86a5,5,0,0,0,5,5H212.63a5,5,0,0,0,0-10.07H109.79V232l2.95,2.95L118,249.74a5.11,5.11,0,0,0,5,3.34l13.56-.65,19,11.87-2.07,12a5,5,0,0,0,.65,3.45l9.34,15.59a5.07,5.07,0,0,0,3.86,2.42L165,315.83a5.08,5.08,0,0,0,0,1.35l4.79,34.52a5,5,0,0,0,5,4.34h10.72a5,5,0,0,0,5-4.21l4.41-26.77,12.06-15.31,28.62-3.35a5,5,0,0,0,4.45-4.95l.23-27.1a5.06,5.06,0,0,0-1.07-3.15l-14.62-18.7a5,5,0,0,0-4.72-1.87l-11.67,1.77a220.05,220.05,0,0,0,14.61-36.14A59.38,59.38,0,0,0,234,207.4H334.72l10.44,10.44v9.83l-18.51,7H308l-7-7a5,5,0,0,0-5.4-1.12l-14,5.53a5,5,0,0,0-1.72,1.13l-18.29,18.28A5,5,0,0,0,260,255v17.44a5,5,0,0,0,1.47,3.56L273.8,288.3a5,5,0,0,0,3.55,1.48H291l15.53,15.56v21.52a5,5,0,0,0,1.48,3.56l13.71,13.71a5,5,0,0,0,7.12,0h0l17.55-17.55a5,5,0,0,0,1.48-3.55v-8.12l6.61-6.62a5,5,0,0,0,1.48-3.56v-14l11.31-11.31a5,5,0,0,0,0-7.12h0l-12.81-12.81,8.34-2.53.37.37a23.89,23.89,0,0,0,6.94,4.78v85.55a5,5,0,0,0,5,5h25.17v20.13H314.39a5,5,0,0,0,0,10.07h91a5,5,0,0,0,5-5V353.41a24.45,24.45,0,0,1-5.75,48.19ZM192.1,193.44a28,28,0,1,0-28-28h0A28.05,28.05,0,0,0,192.1,193.44Zm0-46a18,18,0,1,1-17.95,18h0a18,18,0,0,1,17.95-18Zm84.18,230.42a5,5,0,0,1-5,5H255.78a5,5,0,1,1,0-10.06h15.46a5,5,0,0,1,5,5Z" transform="translate(0.94 -2.84)"/></g></svg>